<?xml version="1.0" encoding="UTF-8" standalone="no"?>
<!DOCTYPE svg PUBLIC "-//W3C//DTD SVG 1.1//EN"
 "http://www.w3.org/Graphics/SVG/1.1/DTD/svg11.dtd">
<!-- Generated by graphviz version 2.43.0 (0)
 -->
<!-- Title: model Pages: 1 -->
<svg width="897pt" height="260pt"
 viewBox="0.00 0.00 896.71 260.00" xmlns="http://www.w3.org/2000/svg" xmlns:xlink="http://www.w3.org/1999/xlink">
<g id="graph0" class="graph" transform="scale(1 1) rotate(0) translate(4 256)">
<title>model</title>
<polygon fill="white" stroke="transparent" points="-4,4 -4,-256 892.71,-256 892.71,4 -4,4"/>
<text text-anchor="start" x="372.86" y="-233" font-family="Times,serif" font-weight="bold" font-size="20.00">CBD (CBDA)</text>
<!-- node_139887695801264 -->
<g id="node1" class="node">
<title>node_139887695801264</title>
<polygon fill="none" stroke="black" points="402.39,-129 273.39,-129 273.39,0 402.39,0 402.39,-129"/>
<polyline fill="none" stroke="black" points="285.39,-129 273.39,-117 "/>
<polyline fill="none" stroke="black" points="273.39,-12 285.39,0 "/>
<polyline fill="none" stroke="black" points="390.39,0 402.39,-12 "/>
<polyline fill="none" stroke="black" points="402.39,-117 390.39,-129 "/>
<text text-anchor="middle" x="337.89" y="-68.3" font-family="Times,serif" font-size="14.00">IntegratorBlock</text>
<text text-anchor="middle" x="337.89" y="-53.3" font-family="Times,serif" font-size="14.00">(integrator)</text>
</g>
<!-- inter_139887695801264_OUT1 -->
<g id="node4" class="node">
<title>inter_139887695801264_OUT1</title>
<ellipse fill="black" stroke="black" cx="462.77" cy="-128.5" rx="0.36" ry="0.36"/>
</g>
<!-- node_139887695801264&#45;&gt;inter_139887695801264_OUT1 -->
<g id="edge3" class="edge">
<title>node_139887695801264&#45;&gt;inter_139887695801264_OUT1</title>
<path fill="none" stroke="black" d="M412.52,-128.25C412.52,-128.25 462.43,-128.25 462.43,-128.25"/>
<polygon fill="none" stroke="black" points="402.52,-124.75 412.52,-128.25 402.52,-131.75 402.52,-124.75"/>
<text text-anchor="middle" x="423.52" y="-117.05" font-family="Times,serif" font-size="14.00">OUT1</text>
</g>
<!-- inter_139887695822608_OUT1 -->
<g id="node2" class="node">
<title>inter_139887695822608_OUT1</title>
<ellipse fill="black" stroke="black" cx="851.63" cy="-87.5" rx="0.36" ry="0.36"/>
</g>
<!-- inter_139887695822608_OUT1&#45;&gt;node_139887695801264 -->
<g id="edge1" class="edge">
<title>inter_139887695822608_OUT1&#45;&gt;node_139887695801264</title>
<path fill="none" stroke="black" d="M851.26,-87.5C851.26,-87.5 412.63,-87.5 412.63,-87.5"/>
<polygon fill="black" stroke="black" points="412.63,-84 402.63,-87.5 412.63,-91 412.63,-84"/>
<text text-anchor="middle" x="416.13" y="-76.3" font-family="Times,serif" font-size="14.00">IN1</text>
</g>
<!-- node_139887695801216_OUT1 -->
<g id="node11" class="node">
<title>node_139887695801216_OUT1</title>
<ellipse fill="black" stroke="black" cx="888.35" cy="-87.5" rx="0.36" ry="0.36"/>
</g>
<!-- inter_139887695822608_OUT1&#45;&gt;node_139887695801216_OUT1 -->
<g id="edge11" class="edge">
<title>inter_139887695822608_OUT1&#45;&gt;node_139887695801216_OUT1</title>
<path fill="none" stroke="black" d="M852.05,-87.5C852.05,-87.5 877.99,-87.5 877.99,-87.5"/>
<polygon fill="none" stroke="black" points="877.99,-91 887.99,-87.5 877.99,-84 877.99,-91"/>
<text text-anchor="middle" x="866.99" y="-76.3" font-family="Times,serif" font-size="14.00">OUT1</text>
</g>
<!-- inter_139887695822368_OUT1 -->
<g id="node3" class="node">
<title>inter_139887695822368_OUT1</title>
<ellipse fill="black" stroke="black" cx="213.14" cy="-64.5" rx="0.36" ry="0.36"/>
</g>
<!-- inter_139887695822368_OUT1&#45;&gt;node_139887695801264 -->
<g id="edge2" class="edge">
<title>inter_139887695822368_OUT1&#45;&gt;node_139887695801264</title>
<path fill="none" stroke="black" d="M213.93,-64.5C213.93,-64.5 263.28,-64.5 263.28,-64.5"/>
<polygon fill="black" stroke="black" points="263.28,-68 273.28,-64.5 263.28,-61 263.28,-68"/>
<text text-anchor="middle" x="265.28" y="-53.3" font-family="Times,serif" font-size="14.00">IC</text>
</g>
<!-- node_139887695820064 -->
<g id="node5" class="node">
<title>node_139887695820064</title>
<polygon fill="none" stroke="black" points="628.27,-222 499.27,-222 499.27,-93 628.27,-93 628.27,-222"/>
<polyline fill="none" stroke="black" points="511.27,-222 499.27,-210 "/>
<polyline fill="none" stroke="black" points="499.27,-105 511.27,-93 "/>
<polyline fill="none" stroke="black" points="616.27,-93 628.27,-105 "/>
<polyline fill="none" stroke="black" points="628.27,-210 616.27,-222 "/>
<text text-anchor="middle" x="563.77" y="-161.3" font-family="Times,serif" font-size="14.00">IntegratorBlock</text>
<text text-anchor="middle" x="563.77" y="-146.3" font-family="Times,serif" font-size="14.00">(integrator2)</text>
</g>
<!-- inter_139887695801264_OUT1&#45;&gt;node_139887695820064 -->
<g id="edge4" class="edge">
<title>inter_139887695801264_OUT1&#45;&gt;node_139887695820064</title>
<path fill="none" stroke="black" d="M463.42,-128.5C463.42,-128.5 489.22,-128.5 489.22,-128.5"/>
<polygon fill="black" stroke="black" points="489.22,-132 499.22,-128.5 489.22,-125 489.22,-132"/>
<text text-anchor="middle" x="485.72" y="-117.3" font-family="Times,serif" font-size="14.00">IN1</text>
</g>
<!-- inter_139887695820064_OUT1 -->
<g id="node7" class="node">
<title>inter_139887695820064_OUT1</title>
<ellipse fill="black" stroke="black" cx="664.77" cy="-145.5" rx="0.36" ry="0.36"/>
</g>
<!-- node_139887695820064&#45;&gt;inter_139887695820064_OUT1 -->
<g id="edge6" class="edge">
<title>node_139887695820064&#45;&gt;inter_139887695820064_OUT1</title>
<path fill="none" stroke="black" d="M638.31,-145.5C638.31,-145.5 664.35,-145.5 664.35,-145.5"/>
<polygon fill="none" stroke="black" points="628.31,-142 638.31,-145.5 628.31,-149 628.31,-142"/>
<text text-anchor="middle" x="649.31" y="-149.3" font-family="Times,serif" font-size="14.00">OUT1</text>
</g>
<!-- inter_139887695822464_OUT1 -->
<g id="node6" class="node">
<title>inter_139887695822464_OUT1</title>
<ellipse fill="black" stroke="black" cx="462.77" cy="-170.5" rx="0.36" ry="0.36"/>
</g>
<!-- inter_139887695822464_OUT1&#45;&gt;node_139887695820064 -->
<g id="edge5" class="edge">
<title>inter_139887695822464_OUT1&#45;&gt;node_139887695820064</title>
<path fill="none" stroke="black" d="M463.42,-170.5C463.42,-170.5 489.22,-170.5 489.22,-170.5"/>
<polygon fill="black" stroke="black" points="489.22,-174 499.22,-170.5 489.22,-167 489.22,-174"/>
<text text-anchor="middle" x="491.22" y="-159.3" font-family="Times,serif" font-size="14.00">IC</text>
</g>
<!-- node_139887695822608 -->
<g id="node10" class="node">
<title>node_139887695822608</title>
<polygon fill="none" stroke="black" points="815.27,-153.5 701.27,-153.5 701.27,-115.5 815.27,-115.5 815.27,-153.5"/>
<text text-anchor="middle" x="758.27" y="-138.3" font-family="Times,serif" font-size="14.00">NegatorBlock</text>
<text text-anchor="middle" x="758.27" y="-123.3" font-family="Times,serif" font-size="14.00">(negate)</text>
</g>
<!-- inter_139887695820064_OUT1&#45;&gt;node_139887695822608 -->
<g id="edge9" class="edge">
<title>inter_139887695820064_OUT1&#45;&gt;node_139887695822608</title>
<path fill="none" stroke="black" d="M665.37,-145.5C665.37,-145.5 691.05,-145.5 691.05,-145.5"/>
<polygon fill="black" stroke="black" points="691.05,-149 701.05,-145.5 691.05,-142 691.05,-149"/>
<text text-anchor="middle" x="687.55" y="-134.3" font-family="Times,serif" font-size="14.00">IN1</text>
</g>
<!-- node_139887695822368 -->
<g id="node8" class="node">
<title>node_139887695822368</title>
<ellipse fill="none" stroke="black" cx="88.39" cy="-64.5" rx="88.28" ry="37.45"/>
<text text-anchor="middle" x="88.39" y="-75.8" font-family="Times,serif" font-size="14.00"> ConstantBlock</text>
<text text-anchor="middle" x="88.39" y="-60.8" font-family="Times,serif" font-size="14.00">(zero)</text>
<text text-anchor="middle" x="88.39" y="-45.8" font-family="Times,serif" font-size="14.00">0</text>
</g>
<!-- node_139887695822368&#45;&gt;inter_139887695822368_OUT1 -->
<g id="edge7" class="edge">
<title>node_139887695822368&#45;&gt;inter_139887695822368_OUT1</title>
<path fill="none" stroke="black" d="M187.05,-64.5C187.05,-64.5 212.73,-64.5 212.73,-64.5"/>
<polygon fill="none" stroke="black" points="177.05,-61 187.05,-64.5 177.05,-68 177.05,-61"/>
<text text-anchor="middle" x="198.05" y="-53.3" font-family="Times,serif" font-size="14.00">OUT1</text>
</g>
<!-- node_139887695822464 -->
<g id="node9" class="node">
<title>node_139887695822464</title>
<ellipse fill="none" stroke="black" cx="337.89" cy="-184.5" rx="88.28" ry="37.45"/>
<text text-anchor="middle" x="337.89" y="-195.8" font-family="Times,serif" font-size="14.00"> ConstantBlock</text>
<text text-anchor="middle" x="337.89" y="-180.8" font-family="Times,serif" font-size="14.00">(one)</text>
<text text-anchor="middle" x="337.89" y="-165.8" font-family="Times,serif" font-size="14.00">1</text>
</g>
<!-- node_139887695822464&#45;&gt;inter_139887695822464_OUT1 -->
<g id="edge8" class="edge">
<title>node_139887695822464&#45;&gt;inter_139887695822464_OUT1</title>
<path fill="none" stroke="black" d="M430.14,-170.5C430.14,-170.5 462.28,-170.5 462.28,-170.5"/>
<polygon fill="none" stroke="black" points="420.14,-167 430.14,-170.5 420.14,-174 420.14,-167"/>
<text text-anchor="middle" x="441.14" y="-159.3" font-family="Times,serif" font-size="14.00">OUT1</text>
</g>
<!-- node_139887695822608&#45;&gt;inter_139887695822608_OUT1 -->
<g id="edge10" class="edge">
<title>node_139887695822608&#45;&gt;inter_139887695822608_OUT1</title>
<path fill="none" stroke="black" d="M825.32,-134.5C825.32,-134.5 851.71,-134.5 851.71,-134.5 851.71,-134.5 851.71,-93.19 851.71,-88.03"/>
<polygon fill="none" stroke="black" points="815.32,-131 825.32,-134.5 815.32,-138 815.32,-131"/>
<text text-anchor="middle" x="836.32" y="-123.3" font-family="Times,serif" font-size="14.00">OUT1</text>
</g>
</g>
</svg>
