<?xml version="1.0" encoding="UTF-8" standalone="no"?>
<!DOCTYPE svg PUBLIC "-//W3C//DTD SVG 1.1//EN"
 "http://www.w3.org/Graphics/SVG/1.1/DTD/svg11.dtd">
<!-- Generated by graphviz version 3.0.0 (20220226.1711)
 -->
<!-- Title: model Pages: 1 -->
<svg width="780pt" height="232pt"
 viewBox="0.00 0.00 779.83 232.48" xmlns="http://www.w3.org/2000/svg" xmlns:xlink="http://www.w3.org/1999/xlink">
<g id="graph0" class="graph" transform="scale(1 1) rotate(0) translate(4 228.48)">
<title>model</title>
<polygon fill="white" stroke="transparent" points="-4,4 -4,-228.48 775.83,-228.48 775.83,4 -4,4"/>
<text text-anchor="start" x="326.92" y="-205.48" font-family="Times,serif" font-weight="bold" font-size="20.00">CBD (CBDA)</text>
<!-- node_4752143600 -->
<g id="node1" class="node">
<title>node_4752143600</title>
<polygon fill="none" stroke="black" points="337.97,-102 235.97,-102 235.97,0 337.97,0 337.97,-102"/>
<polyline fill="none" stroke="black" points="247.97,-102 235.97,-90 "/>
<polyline fill="none" stroke="black" points="235.97,-12 247.97,0 "/>
<polyline fill="none" stroke="black" points="325.97,0 337.97,-12 "/>
<polyline fill="none" stroke="black" points="337.97,-90 325.97,-102 "/>
<text text-anchor="middle" x="286.97" y="-54.8" font-family="Times,serif" font-size="14.00">IntegratorBlock</text>
<text text-anchor="middle" x="286.97" y="-39.8" font-family="Times,serif" font-size="14.00">(integrator)</text>
</g>
<!-- inter_4752143600_OUT1 -->
<g id="node4" class="node">
<title>inter_4752143600_OUT1</title>
<ellipse fill="black" stroke="black" cx="394.89" cy="-108" rx="0.36" ry="0.36"/>
</g>
<!-- node_4752143600&#45;&gt;inter_4752143600_OUT1 -->
<g id="edge3" class="edge">
<title>node_4752143600&#45;&gt;inter_4752143600_OUT1</title>
<path fill="none" stroke="black" d="M348.21,-90.5C348.21,-90.5 395.83,-90.5 395.83,-90.5 395.83,-90.5 395.83,-106.92 395.83,-107.95"/>
<polygon fill="none" stroke="black" points="338.21,-87 348.21,-90.5 338.21,-94 338.21,-87"/>
<text text-anchor="middle" x="355.71" y="-79.3" font-family="Times,serif" font-size="14.00">OUT1</text>
</g>
<!-- inter_4765076160_OUT1 -->
<g id="node2" class="node">
<title>inter_4765076160_OUT1</title>
<ellipse fill="black" stroke="black" cx="734.75" cy="-74" rx="0.36" ry="0.36"/>
</g>
<!-- inter_4765076160_OUT1&#45;&gt;node_4752143600 -->
<g id="edge1" class="edge">
<title>inter_4765076160_OUT1&#45;&gt;node_4752143600</title>
<path fill="none" stroke="black" d="M734.02,-74C734.02,-74 348.26,-74 348.26,-74"/>
<polygon fill="black" stroke="black" points="348.26,-70.5 338.26,-74 348.26,-77.5 348.26,-70.5"/>
<text text-anchor="middle" x="349.26" y="-62.8" font-family="Times,serif" font-size="14.00">IN1</text>
</g>
<!-- node_4752143792_OUT1 -->
<g id="node11" class="node">
<title>node_4752143792_OUT1</title>
<ellipse fill="black" stroke="black" cx="771.47" cy="-74" rx="0.36" ry="0.36"/>
</g>
<!-- inter_4765076160_OUT1&#45;&gt;node_4752143792_OUT1 -->
<g id="edge11" class="edge">
<title>inter_4765076160_OUT1&#45;&gt;node_4752143792_OUT1</title>
<path fill="none" stroke="black" d="M735.16,-74C735.16,-74 761.11,-74 761.11,-74"/>
<polygon fill="none" stroke="black" points="761.11,-77.5 771.11,-74 761.11,-70.5 761.11,-77.5"/>
<text text-anchor="middle" x="753.61" y="-62.8" font-family="Times,serif" font-size="14.00">OUT1</text>
</g>
<!-- inter_4765075920_OUT1 -->
<g id="node3" class="node">
<title>inter_4765075920_OUT1</title>
<ellipse fill="black" stroke="black" cx="179.2" cy="-51" rx="0.36" ry="0.36"/>
</g>
<!-- inter_4765075920_OUT1&#45;&gt;node_4752143600 -->
<g id="edge2" class="edge">
<title>inter_4765075920_OUT1&#45;&gt;node_4752143600</title>
<path fill="none" stroke="black" d="M179.88,-51C179.88,-51 225.97,-51 225.97,-51"/>
<polygon fill="black" stroke="black" points="225.97,-54.5 235.97,-51 225.97,-47.5 225.97,-54.5"/>
<text text-anchor="middle" x="228.97" y="-39.8" font-family="Times,serif" font-size="14.00">IC</text>
</g>
<!-- node_4765073616 -->
<g id="node5" class="node">
<title>node_4765073616</title>
<polygon fill="none" stroke="black" points="533.39,-181 431.39,-181 431.39,-79 533.39,-79 533.39,-181"/>
<polyline fill="none" stroke="black" points="443.39,-181 431.39,-169 "/>
<polyline fill="none" stroke="black" points="431.39,-91 443.39,-79 "/>
<polyline fill="none" stroke="black" points="521.39,-79 533.39,-91 "/>
<polyline fill="none" stroke="black" points="533.39,-169 521.39,-181 "/>
<text text-anchor="middle" x="482.39" y="-133.8" font-family="Times,serif" font-size="14.00">IntegratorBlock</text>
<text text-anchor="middle" x="482.39" y="-118.8" font-family="Times,serif" font-size="14.00">(integrator2)</text>
</g>
<!-- inter_4752143600_OUT1&#45;&gt;node_4765073616 -->
<g id="edge4" class="edge">
<title>inter_4752143600_OUT1&#45;&gt;node_4765073616</title>
<path fill="none" stroke="black" d="M395.45,-108C395.45,-108 421,-108 421,-108"/>
<polygon fill="black" stroke="black" points="421,-111.5 431,-108 421,-104.5 421,-111.5"/>
<text text-anchor="middle" x="420" y="-96.8" font-family="Times,serif" font-size="14.00">IN1</text>
</g>
<!-- inter_4765073616_OUT1 -->
<g id="node7" class="node">
<title>inter_4765073616_OUT1</title>
<ellipse fill="black" stroke="black" cx="569.89" cy="-122" rx="0.36" ry="0.36"/>
</g>
<!-- node_4765073616&#45;&gt;inter_4765073616_OUT1 -->
<g id="edge6" class="edge">
<title>node_4765073616&#45;&gt;inter_4765073616_OUT1</title>
<path fill="none" stroke="black" d="M543.54,-122C543.54,-122 569.45,-122 569.45,-122"/>
<polygon fill="none" stroke="black" points="533.54,-118.5 543.54,-122 533.54,-125.5 533.54,-118.5"/>
<text text-anchor="middle" x="551.04" y="-110.8" font-family="Times,serif" font-size="14.00">OUT1</text>
</g>
<!-- inter_4765076016_OUT1 -->
<g id="node6" class="node">
<title>inter_4765076016_OUT1</title>
<ellipse fill="black" stroke="black" cx="394.89" cy="-143" rx="0.36" ry="0.36"/>
</g>
<!-- inter_4765076016_OUT1&#45;&gt;node_4765073616 -->
<g id="edge5" class="edge">
<title>inter_4765076016_OUT1&#45;&gt;node_4765073616</title>
<path fill="none" stroke="black" d="M395.45,-143C395.45,-143 421,-143 421,-143"/>
<polygon fill="black" stroke="black" points="421,-146.5 431,-143 421,-139.5 421,-146.5"/>
<text text-anchor="middle" x="424" y="-131.8" font-family="Times,serif" font-size="14.00">IC</text>
</g>
<!-- node_4765076160 -->
<g id="node10" class="node">
<title>node_4765076160</title>
<polygon fill="none" stroke="black" points="698.39,-133 606.39,-133 606.39,-95 698.39,-95 698.39,-133"/>
<text text-anchor="middle" x="652.39" y="-117.8" font-family="Times,serif" font-size="14.00">NegatorBlock</text>
<text text-anchor="middle" x="652.39" y="-102.8" font-family="Times,serif" font-size="14.00">(negate)</text>
</g>
<!-- inter_4765073616_OUT1&#45;&gt;node_4765076160 -->
<g id="edge9" class="edge">
<title>inter_4765073616_OUT1&#45;&gt;node_4765076160</title>
<path fill="none" stroke="black" d="M570.42,-122C570.42,-122 596.22,-122 596.22,-122"/>
<polygon fill="black" stroke="black" points="596.22,-125.5 606.22,-122 596.22,-118.5 596.22,-125.5"/>
<text text-anchor="middle" x="595.22" y="-110.8" font-family="Times,serif" font-size="14.00">IN1</text>
</g>
<!-- node_4765075920 -->
<g id="node8" class="node">
<title>node_4765075920</title>
<ellipse fill="none" stroke="black" cx="71.42" cy="-51" rx="71.34" ry="37.45"/>
<text text-anchor="middle" x="71.42" y="-62.3" font-family="Times,serif" font-size="14.00"> ConstantBlock</text>
<text text-anchor="middle" x="71.42" y="-47.3" font-family="Times,serif" font-size="14.00">(minus_one)</text>
<text text-anchor="middle" x="71.42" y="-32.3" font-family="Times,serif" font-size="14.00">&#45;1</text>
</g>
<!-- node_4765075920&#45;&gt;inter_4765075920_OUT1 -->
<g id="edge7" class="edge">
<title>node_4765075920&#45;&gt;inter_4765075920_OUT1</title>
<path fill="none" stroke="black" d="M153.01,-51C153.01,-51 178.78,-51 178.78,-51"/>
<polygon fill="none" stroke="black" points="143.01,-47.5 153.01,-51 143.01,-54.5 143.01,-47.5"/>
<text text-anchor="middle" x="160.51" y="-39.8" font-family="Times,serif" font-size="14.00">OUT1</text>
</g>
<!-- node_4765076016 -->
<g id="node9" class="node">
<title>node_4765076016</title>
<ellipse fill="none" stroke="black" cx="286.97" cy="-157" rx="71.34" ry="37.45"/>
<text text-anchor="middle" x="286.97" y="-168.3" font-family="Times,serif" font-size="14.00"> ConstantBlock</text>
<text text-anchor="middle" x="286.97" y="-153.3" font-family="Times,serif" font-size="14.00">(zero)</text>
<text text-anchor="middle" x="286.97" y="-138.3" font-family="Times,serif" font-size="14.00">0</text>
</g>
<!-- node_4765076016&#45;&gt;inter_4765076016_OUT1 -->
<g id="edge8" class="edge">
<title>node_4765076016&#45;&gt;inter_4765076016_OUT1</title>
<path fill="none" stroke="black" d="M363.48,-143C363.48,-143 394.4,-143 394.4,-143"/>
<polygon fill="none" stroke="black" points="353.48,-139.5 363.48,-143 353.48,-146.5 353.48,-139.5"/>
<text text-anchor="middle" x="370.98" y="-131.8" font-family="Times,serif" font-size="14.00">OUT1</text>
</g>
<!-- node_4765076160&#45;&gt;inter_4765076160_OUT1 -->
<g id="edge10" class="edge">
<title>node_4765076160&#45;&gt;inter_4765076160_OUT1</title>
<path fill="none" stroke="black" d="M708.43,-114C708.43,-114 734.83,-114 734.83,-114 734.83,-114 734.83,-78.84 734.83,-74.45"/>
<polygon fill="none" stroke="black" points="698.43,-110.5 708.43,-114 698.43,-117.5 698.43,-110.5"/>
<text text-anchor="middle" x="715.93" y="-102.8" font-family="Times,serif" font-size="14.00">OUT1</text>
</g>
</g>
</svg>
