<?xml version="1.0" encoding="UTF-8" standalone="no"?>
<!DOCTYPE svg PUBLIC "-//W3C//DTD SVG 1.1//EN"
 "http://www.w3.org/Graphics/SVG/1.1/DTD/svg11.dtd">
<!-- Generated by graphviz version 2.43.0 (0)
 -->
<!-- Title: model Pages: 1 -->
<svg width="892pt" height="254pt"
 viewBox="0.00 0.00 891.71 254.48" xmlns="http://www.w3.org/2000/svg" xmlns:xlink="http://www.w3.org/1999/xlink">
<g id="graph0" class="graph" transform="scale(1 1) rotate(0) translate(4 250.48)">
<title>model</title>
<polygon fill="white" stroke="transparent" points="-4,4 -4,-250.48 887.71,-250.48 887.71,4 -4,4"/>
<text text-anchor="start" x="369.36" y="-227.48" font-family="Times,serif" font-weight="bold" font-size="20.00">CBD (CBDB)</text>
<!-- node_139887695839920 -->
<g id="node1" class="node">
<title>node_139887695839920</title>
<polygon fill="none" stroke="black" points="399.89,-124 275.89,-124 275.89,0 399.89,0 399.89,-124"/>
<polyline fill="none" stroke="black" points="287.89,-124 275.89,-112 "/>
<polyline fill="none" stroke="black" points="275.89,-12 287.89,0 "/>
<polyline fill="none" stroke="black" points="387.89,0 399.89,-12 "/>
<polyline fill="none" stroke="black" points="399.89,-112 387.89,-124 "/>
<text text-anchor="middle" x="337.89" y="-65.8" font-family="Times,serif" font-size="14.00">DerivatorBlock</text>
<text text-anchor="middle" x="337.89" y="-50.8" font-family="Times,serif" font-size="14.00">(derivative)</text>
</g>
<!-- inter_139887695839920_OUT1 -->
<g id="node4" class="node">
<title>inter_139887695839920_OUT1</title>
<ellipse fill="black" stroke="black" cx="462.77" cy="-125" rx="0.36" ry="0.36"/>
</g>
<!-- node_139887695839920&#45;&gt;inter_139887695839920_OUT1 -->
<g id="edge3" class="edge">
<title>node_139887695839920&#45;&gt;inter_139887695839920_OUT1</title>
<path fill="none" stroke="black" d="M410.06,-107C410.06,-107 463.71,-107 463.71,-107 463.71,-107 463.71,-123.89 463.71,-124.95"/>
<polygon fill="none" stroke="black" points="400.06,-103.5 410.06,-107 400.06,-110.5 400.06,-103.5"/>
<text text-anchor="middle" x="421.06" y="-95.8" font-family="Times,serif" font-size="14.00">OUT1</text>
</g>
<!-- inter_139887695863568_OUT1 -->
<g id="node2" class="node">
<title>inter_139887695863568_OUT1</title>
<ellipse fill="black" stroke="black" cx="846.63" cy="-85" rx="0.36" ry="0.36"/>
</g>
<!-- inter_139887695863568_OUT1&#45;&gt;node_139887695839920 -->
<g id="edge1" class="edge">
<title>inter_139887695863568_OUT1&#45;&gt;node_139887695839920</title>
<path fill="none" stroke="black" d="M846.26,-85C846.26,-85 409.99,-85 409.99,-85"/>
<polygon fill="black" stroke="black" points="409.99,-81.5 399.99,-85 409.99,-88.5 409.99,-81.5"/>
<text text-anchor="middle" x="413.49" y="-73.8" font-family="Times,serif" font-size="14.00">IN1</text>
</g>
<!-- node_139887695840016_OUT1 -->
<g id="node11" class="node">
<title>node_139887695840016_OUT1</title>
<ellipse fill="black" stroke="black" cx="883.35" cy="-85" rx="0.36" ry="0.36"/>
</g>
<!-- inter_139887695863568_OUT1&#45;&gt;node_139887695840016_OUT1 -->
<g id="edge11" class="edge">
<title>inter_139887695863568_OUT1&#45;&gt;node_139887695840016_OUT1</title>
<path fill="none" stroke="black" d="M847.05,-85C847.05,-85 872.99,-85 872.99,-85"/>
<polygon fill="none" stroke="black" points="872.99,-88.5 882.99,-85 872.99,-81.5 872.99,-88.5"/>
<text text-anchor="middle" x="861.99" y="-73.8" font-family="Times,serif" font-size="14.00">OUT1</text>
</g>
<!-- inter_139887695863328_OUT1 -->
<g id="node3" class="node">
<title>inter_139887695863328_OUT1</title>
<ellipse fill="black" stroke="black" cx="213.14" cy="-62" rx="0.36" ry="0.36"/>
</g>
<!-- inter_139887695863328_OUT1&#45;&gt;node_139887695839920 -->
<g id="edge2" class="edge">
<title>inter_139887695863328_OUT1&#45;&gt;node_139887695839920</title>
<path fill="none" stroke="black" d="M213.93,-62C213.93,-62 265.72,-62 265.72,-62"/>
<polygon fill="black" stroke="black" points="265.72,-65.5 275.72,-62 265.72,-58.5 265.72,-65.5"/>
<text text-anchor="middle" x="267.72" y="-50.8" font-family="Times,serif" font-size="14.00">IC</text>
</g>
<!-- node_139887695859872 -->
<g id="node5" class="node">
<title>node_139887695859872</title>
<polygon fill="none" stroke="black" points="623.27,-214 499.27,-214 499.27,-90 623.27,-90 623.27,-214"/>
<polyline fill="none" stroke="black" points="511.27,-214 499.27,-202 "/>
<polyline fill="none" stroke="black" points="499.27,-102 511.27,-90 "/>
<polyline fill="none" stroke="black" points="611.27,-90 623.27,-102 "/>
<polyline fill="none" stroke="black" points="623.27,-202 611.27,-214 "/>
<text text-anchor="middle" x="561.27" y="-155.8" font-family="Times,serif" font-size="14.00">DerivatorBlock</text>
<text text-anchor="middle" x="561.27" y="-140.8" font-family="Times,serif" font-size="14.00">(derivative2)</text>
</g>
<!-- inter_139887695839920_OUT1&#45;&gt;node_139887695859872 -->
<g id="edge4" class="edge">
<title>inter_139887695839920_OUT1&#45;&gt;node_139887695859872</title>
<path fill="none" stroke="black" d="M463.4,-125C463.4,-125 489.12,-125 489.12,-125"/>
<polygon fill="black" stroke="black" points="489.12,-128.5 499.12,-125 489.12,-121.5 489.12,-128.5"/>
<text text-anchor="middle" x="485.62" y="-113.8" font-family="Times,serif" font-size="14.00">IN1</text>
</g>
<!-- inter_139887695859872_OUT1 -->
<g id="node7" class="node">
<title>inter_139887695859872_OUT1</title>
<ellipse fill="black" stroke="black" cx="659.77" cy="-141" rx="0.36" ry="0.36"/>
</g>
<!-- node_139887695859872&#45;&gt;inter_139887695859872_OUT1 -->
<g id="edge6" class="edge">
<title>node_139887695859872&#45;&gt;inter_139887695859872_OUT1</title>
<path fill="none" stroke="black" d="M633.38,-141C633.38,-141 659.34,-141 659.34,-141"/>
<polygon fill="none" stroke="black" points="623.38,-137.5 633.38,-141 623.38,-144.5 623.38,-137.5"/>
<text text-anchor="middle" x="644.38" y="-144.8" font-family="Times,serif" font-size="14.00">OUT1</text>
</g>
<!-- inter_139887695863424_OUT1 -->
<g id="node6" class="node">
<title>inter_139887695863424_OUT1</title>
<ellipse fill="black" stroke="black" cx="462.77" cy="-165" rx="0.36" ry="0.36"/>
</g>
<!-- inter_139887695863424_OUT1&#45;&gt;node_139887695859872 -->
<g id="edge5" class="edge">
<title>inter_139887695863424_OUT1&#45;&gt;node_139887695859872</title>
<path fill="none" stroke="black" d="M463.4,-165C463.4,-165 489.12,-165 489.12,-165"/>
<polygon fill="black" stroke="black" points="489.12,-168.5 499.12,-165 489.12,-161.5 489.12,-168.5"/>
<text text-anchor="middle" x="491.12" y="-153.8" font-family="Times,serif" font-size="14.00">IC</text>
</g>
<!-- node_139887695863568 -->
<g id="node10" class="node">
<title>node_139887695863568</title>
<polygon fill="none" stroke="black" points="810.27,-149 696.27,-149 696.27,-111 810.27,-111 810.27,-149"/>
<text text-anchor="middle" x="753.27" y="-133.8" font-family="Times,serif" font-size="14.00">NegatorBlock</text>
<text text-anchor="middle" x="753.27" y="-118.8" font-family="Times,serif" font-size="14.00">(negate)</text>
</g>
<!-- inter_139887695859872_OUT1&#45;&gt;node_139887695863568 -->
<g id="edge9" class="edge">
<title>inter_139887695859872_OUT1&#45;&gt;node_139887695863568</title>
<path fill="none" stroke="black" d="M660.37,-141C660.37,-141 686.05,-141 686.05,-141"/>
<polygon fill="black" stroke="black" points="686.05,-144.5 696.05,-141 686.05,-137.5 686.05,-144.5"/>
<text text-anchor="middle" x="682.55" y="-129.8" font-family="Times,serif" font-size="14.00">IN1</text>
</g>
<!-- node_139887695863328 -->
<g id="node8" class="node">
<title>node_139887695863328</title>
<ellipse fill="none" stroke="black" cx="88.39" cy="-62" rx="88.28" ry="37.45"/>
<text text-anchor="middle" x="88.39" y="-73.3" font-family="Times,serif" font-size="14.00"> ConstantBlock</text>
<text text-anchor="middle" x="88.39" y="-58.3" font-family="Times,serif" font-size="14.00">(one)</text>
<text text-anchor="middle" x="88.39" y="-43.3" font-family="Times,serif" font-size="14.00">1</text>
</g>
<!-- node_139887695863328&#45;&gt;inter_139887695863328_OUT1 -->
<g id="edge7" class="edge">
<title>node_139887695863328&#45;&gt;inter_139887695863328_OUT1</title>
<path fill="none" stroke="black" d="M187.05,-62C187.05,-62 212.73,-62 212.73,-62"/>
<polygon fill="none" stroke="black" points="177.05,-58.5 187.05,-62 177.05,-65.5 177.05,-58.5"/>
<text text-anchor="middle" x="198.05" y="-50.8" font-family="Times,serif" font-size="14.00">OUT1</text>
</g>
<!-- node_139887695863424 -->
<g id="node9" class="node">
<title>node_139887695863424</title>
<ellipse fill="none" stroke="black" cx="337.89" cy="-179" rx="88.28" ry="37.45"/>
<text text-anchor="middle" x="337.89" y="-190.3" font-family="Times,serif" font-size="14.00"> ConstantBlock</text>
<text text-anchor="middle" x="337.89" y="-175.3" font-family="Times,serif" font-size="14.00">(zero)</text>
<text text-anchor="middle" x="337.89" y="-160.3" font-family="Times,serif" font-size="14.00">0</text>
</g>
<!-- node_139887695863424&#45;&gt;inter_139887695863424_OUT1 -->
<g id="edge8" class="edge">
<title>node_139887695863424&#45;&gt;inter_139887695863424_OUT1</title>
<path fill="none" stroke="black" d="M430.14,-165C430.14,-165 462.28,-165 462.28,-165"/>
<polygon fill="none" stroke="black" points="420.14,-161.5 430.14,-165 420.14,-168.5 420.14,-161.5"/>
<text text-anchor="middle" x="441.14" y="-153.8" font-family="Times,serif" font-size="14.00">OUT1</text>
</g>
<!-- node_139887695863568&#45;&gt;inter_139887695863568_OUT1 -->
<g id="edge10" class="edge">
<title>node_139887695863568&#45;&gt;inter_139887695863568_OUT1</title>
<path fill="none" stroke="black" d="M820.32,-130C820.32,-130 846.71,-130 846.71,-130 846.71,-130 846.71,-90.45 846.71,-85.51"/>
<polygon fill="none" stroke="black" points="810.32,-126.5 820.32,-130 810.32,-133.5 810.32,-126.5"/>
<text text-anchor="middle" x="831.32" y="-118.8" font-family="Times,serif" font-size="14.00">OUT1</text>
</g>
</g>
</svg>
