<?xml version="1.0" encoding="UTF-8" standalone="no"?>
<!DOCTYPE svg PUBLIC "-//W3C//DTD SVG 1.1//EN"
 "http://www.w3.org/Graphics/SVG/1.1/DTD/svg11.dtd">
<!-- Generated by graphviz version 3.0.0 (20220226.1711)
 -->
<!-- Title: model Pages: 1 -->
<svg width="779pt" height="232pt"
 viewBox="0.00 0.00 778.83 231.98" xmlns="http://www.w3.org/2000/svg" xmlns:xlink="http://www.w3.org/1999/xlink">
<g id="graph0" class="graph" transform="scale(1 1) rotate(0) translate(4 227.98)">
<title>model</title>
<polygon fill="white" stroke="transparent" points="-4,4 -4,-227.98 774.83,-227.98 774.83,4 -4,4"/>
<text text-anchor="start" x="326.92" y="-204.98" font-family="Times,serif" font-weight="bold" font-size="20.00">CBD (CBDB)</text>
<!-- node_4765077024 -->
<g id="node1" class="node">
<title>node_4765077024</title>
<polygon fill="none" stroke="black" points="337.47,-101 236.47,-101 236.47,0 337.47,0 337.47,-101"/>
<polyline fill="none" stroke="black" points="248.47,-101 236.47,-89 "/>
<polyline fill="none" stroke="black" points="236.47,-12 248.47,0 "/>
<polyline fill="none" stroke="black" points="325.47,0 337.47,-12 "/>
<polyline fill="none" stroke="black" points="337.47,-89 325.47,-101 "/>
<text text-anchor="middle" x="286.97" y="-54.3" font-family="Times,serif" font-size="14.00">DerivatorBlock</text>
<text text-anchor="middle" x="286.97" y="-39.3" font-family="Times,serif" font-size="14.00">(derivative)</text>
</g>
<!-- inter_4765077024_OUT1 -->
<g id="node4" class="node">
<title>inter_4765077024_OUT1</title>
<ellipse fill="black" stroke="black" cx="394.89" cy="-107.5" rx="0.36" ry="0.36"/>
</g>
<!-- node_4765077024&#45;&gt;inter_4765077024_OUT1 -->
<g id="edge3" class="edge">
<title>node_4765077024&#45;&gt;inter_4765077024_OUT1</title>
<path fill="none" stroke="black" d="M347.58,-90C347.58,-90 395.83,-90 395.83,-90 395.83,-90 395.83,-106.42 395.83,-107.45"/>
<polygon fill="none" stroke="black" points="337.58,-86.5 347.58,-90 337.58,-93.5 337.58,-86.5"/>
<text text-anchor="middle" x="355.08" y="-78.8" font-family="Times,serif" font-size="14.00">OUT1</text>
</g>
<!-- inter_4765117120_OUT1 -->
<g id="node2" class="node">
<title>inter_4765117120_OUT1</title>
<ellipse fill="black" stroke="black" cx="733.75" cy="-73.5" rx="0.36" ry="0.36"/>
</g>
<!-- inter_4765117120_OUT1&#45;&gt;node_4765077024 -->
<g id="edge1" class="edge">
<title>inter_4765117120_OUT1&#45;&gt;node_4765077024</title>
<path fill="none" stroke="black" d="M733.03,-73.5C733.03,-73.5 347.72,-73.5 347.72,-73.5"/>
<polygon fill="black" stroke="black" points="347.72,-70 337.72,-73.5 347.72,-77 347.72,-70"/>
<text text-anchor="middle" x="348.72" y="-62.3" font-family="Times,serif" font-size="14.00">IN1</text>
</g>
<!-- node_4765077120_OUT1 -->
<g id="node11" class="node">
<title>node_4765077120_OUT1</title>
<ellipse fill="black" stroke="black" cx="770.47" cy="-73.5" rx="0.36" ry="0.36"/>
</g>
<!-- inter_4765117120_OUT1&#45;&gt;node_4765077120_OUT1 -->
<g id="edge11" class="edge">
<title>inter_4765117120_OUT1&#45;&gt;node_4765077120_OUT1</title>
<path fill="none" stroke="black" d="M734.16,-73.5C734.16,-73.5 760.11,-73.5 760.11,-73.5"/>
<polygon fill="none" stroke="black" points="760.11,-77 770.11,-73.5 760.11,-70 760.11,-77"/>
<text text-anchor="middle" x="752.61" y="-62.3" font-family="Times,serif" font-size="14.00">OUT1</text>
</g>
<!-- inter_4765116880_OUT1 -->
<g id="node3" class="node">
<title>inter_4765116880_OUT1</title>
<ellipse fill="black" stroke="black" cx="179.2" cy="-50.5" rx="0.36" ry="0.36"/>
</g>
<!-- inter_4765116880_OUT1&#45;&gt;node_4765077024 -->
<g id="edge2" class="edge">
<title>inter_4765116880_OUT1&#45;&gt;node_4765077024</title>
<path fill="none" stroke="black" d="M179.88,-50.5C179.88,-50.5 226.27,-50.5 226.27,-50.5"/>
<polygon fill="black" stroke="black" points="226.27,-54 236.27,-50.5 226.27,-47 226.27,-54"/>
<text text-anchor="middle" x="229.27" y="-39.3" font-family="Times,serif" font-size="14.00">IC</text>
</g>
<!-- node_4765092880 -->
<g id="node5" class="node">
<title>node_4765092880</title>
<polygon fill="none" stroke="black" points="532.39,-180 431.39,-180 431.39,-79 532.39,-79 532.39,-180"/>
<polyline fill="none" stroke="black" points="443.39,-180 431.39,-168 "/>
<polyline fill="none" stroke="black" points="431.39,-91 443.39,-79 "/>
<polyline fill="none" stroke="black" points="520.39,-79 532.39,-91 "/>
<polyline fill="none" stroke="black" points="532.39,-168 520.39,-180 "/>
<text text-anchor="middle" x="481.89" y="-133.3" font-family="Times,serif" font-size="14.00">DerivatorBlock</text>
<text text-anchor="middle" x="481.89" y="-118.3" font-family="Times,serif" font-size="14.00">(derivative2)</text>
</g>
<!-- inter_4765077024_OUT1&#45;&gt;node_4765092880 -->
<g id="edge4" class="edge">
<title>inter_4765077024_OUT1&#45;&gt;node_4765092880</title>
<path fill="none" stroke="black" d="M395.45,-107.5C395.45,-107.5 421.28,-107.5 421.28,-107.5"/>
<polygon fill="black" stroke="black" points="421.28,-111 431.28,-107.5 421.27,-104 421.28,-111"/>
<text text-anchor="middle" x="420.28" y="-96.3" font-family="Times,serif" font-size="14.00">IN1</text>
</g>
<!-- inter_4765092880_OUT1 -->
<g id="node7" class="node">
<title>inter_4765092880_OUT1</title>
<ellipse fill="black" stroke="black" cx="568.89" cy="-121.5" rx="0.36" ry="0.36"/>
</g>
<!-- node_4765092880&#45;&gt;inter_4765092880_OUT1 -->
<g id="edge6" class="edge">
<title>node_4765092880&#45;&gt;inter_4765092880_OUT1</title>
<path fill="none" stroke="black" d="M542.5,-121.5C542.5,-121.5 568.45,-121.5 568.45,-121.5"/>
<polygon fill="none" stroke="black" points="532.5,-118 542.5,-121.5 532.5,-125 532.5,-118"/>
<text text-anchor="middle" x="550" y="-110.3" font-family="Times,serif" font-size="14.00">OUT1</text>
</g>
<!-- inter_4765116976_OUT1 -->
<g id="node6" class="node">
<title>inter_4765116976_OUT1</title>
<ellipse fill="black" stroke="black" cx="394.89" cy="-142.5" rx="0.36" ry="0.36"/>
</g>
<!-- inter_4765116976_OUT1&#45;&gt;node_4765092880 -->
<g id="edge5" class="edge">
<title>inter_4765116976_OUT1&#45;&gt;node_4765092880</title>
<path fill="none" stroke="black" d="M395.45,-142.5C395.45,-142.5 421.28,-142.5 421.28,-142.5"/>
<polygon fill="black" stroke="black" points="421.28,-146 431.28,-142.5 421.27,-139 421.28,-146"/>
<text text-anchor="middle" x="424.28" y="-131.3" font-family="Times,serif" font-size="14.00">IC</text>
</g>
<!-- node_4765117120 -->
<g id="node10" class="node">
<title>node_4765117120</title>
<polygon fill="none" stroke="black" points="697.39,-132.5 605.39,-132.5 605.39,-94.5 697.39,-94.5 697.39,-132.5"/>
<text text-anchor="middle" x="651.39" y="-117.3" font-family="Times,serif" font-size="14.00">NegatorBlock</text>
<text text-anchor="middle" x="651.39" y="-102.3" font-family="Times,serif" font-size="14.00">(negate)</text>
</g>
<!-- inter_4765092880_OUT1&#45;&gt;node_4765117120 -->
<g id="edge9" class="edge">
<title>inter_4765092880_OUT1&#45;&gt;node_4765117120</title>
<path fill="none" stroke="black" d="M569.42,-121.5C569.42,-121.5 595.22,-121.5 595.22,-121.5"/>
<polygon fill="black" stroke="black" points="595.22,-125 605.22,-121.5 595.22,-118 595.22,-125"/>
<text text-anchor="middle" x="594.22" y="-110.3" font-family="Times,serif" font-size="14.00">IN1</text>
</g>
<!-- node_4765116880 -->
<g id="node8" class="node">
<title>node_4765116880</title>
<ellipse fill="none" stroke="black" cx="71.42" cy="-50.5" rx="71.34" ry="37.45"/>
<text text-anchor="middle" x="71.42" y="-61.8" font-family="Times,serif" font-size="14.00"> ConstantBlock</text>
<text text-anchor="middle" x="71.42" y="-46.8" font-family="Times,serif" font-size="14.00">(one)</text>
<text text-anchor="middle" x="71.42" y="-31.8" font-family="Times,serif" font-size="14.00">1</text>
</g>
<!-- node_4765116880&#45;&gt;inter_4765116880_OUT1 -->
<g id="edge7" class="edge">
<title>node_4765116880&#45;&gt;inter_4765116880_OUT1</title>
<path fill="none" stroke="black" d="M153.01,-50.5C153.01,-50.5 178.78,-50.5 178.78,-50.5"/>
<polygon fill="none" stroke="black" points="143.01,-47 153.01,-50.5 143.01,-54 143.01,-47"/>
<text text-anchor="middle" x="160.51" y="-39.3" font-family="Times,serif" font-size="14.00">OUT1</text>
</g>
<!-- node_4765116976 -->
<g id="node9" class="node">
<title>node_4765116976</title>
<ellipse fill="none" stroke="black" cx="286.97" cy="-156.5" rx="71.34" ry="37.45"/>
<text text-anchor="middle" x="286.97" y="-167.8" font-family="Times,serif" font-size="14.00"> ConstantBlock</text>
<text text-anchor="middle" x="286.97" y="-152.8" font-family="Times,serif" font-size="14.00">(zero)</text>
<text text-anchor="middle" x="286.97" y="-137.8" font-family="Times,serif" font-size="14.00">0</text>
</g>
<!-- node_4765116976&#45;&gt;inter_4765116976_OUT1 -->
<g id="edge8" class="edge">
<title>node_4765116976&#45;&gt;inter_4765116976_OUT1</title>
<path fill="none" stroke="black" d="M363.48,-142.5C363.48,-142.5 394.4,-142.5 394.4,-142.5"/>
<polygon fill="none" stroke="black" points="353.48,-139 363.48,-142.5 353.48,-146 353.48,-139"/>
<text text-anchor="middle" x="370.98" y="-131.3" font-family="Times,serif" font-size="14.00">OUT1</text>
</g>
<!-- node_4765117120&#45;&gt;inter_4765117120_OUT1 -->
<g id="edge10" class="edge">
<title>node_4765117120&#45;&gt;inter_4765117120_OUT1</title>
<path fill="none" stroke="black" d="M707.43,-113.5C707.43,-113.5 733.83,-113.5 733.83,-113.5 733.83,-113.5 733.83,-78.34 733.83,-73.95"/>
<polygon fill="none" stroke="black" points="697.43,-110 707.43,-113.5 697.43,-117 697.43,-110"/>
<text text-anchor="middle" x="714.93" y="-102.3" font-family="Times,serif" font-size="14.00">OUT1</text>
</g>
</g>
</svg>
