<?xml version="1.0" encoding="UTF-8" standalone="no"?>
<!DOCTYPE svg PUBLIC "-//W3C//DTD SVG 1.1//EN"
 "http://www.w3.org/Graphics/SVG/1.1/DTD/svg11.dtd">
<!-- Generated by graphviz version 2.43.0 (0)
 -->
<!-- Title: model Pages: 1 -->
<svg width="993pt" height="219pt"
 viewBox="0.00 0.00 993.37 219.48" xmlns="http://www.w3.org/2000/svg" xmlns:xlink="http://www.w3.org/1999/xlink">
<g id="graph0" class="graph" transform="scale(1 1) rotate(0) translate(4 215.48)">
<title>model</title>
<polygon fill="white" stroke="transparent" points="-4,4 -4,-215.48 989.37,-215.48 989.37,4 -4,4"/>
<text text-anchor="start" x="416.69" y="-192.48" font-family="Times,serif" font-weight="bold" font-size="20.00">CBD (errorB)</text>
<!-- node_139887695924720 -->
<g id="node1" class="node">
<title>node_139887695924720</title>
<polygon fill="none" stroke="black" points="62,-181.48 0,-181.48 0,-119.48 62,-119.48 62,-181.48"/>
<polyline fill="none" stroke="black" points="12,-181.48 0,-169.48 "/>
<polyline fill="none" stroke="black" points="0,-131.48 12,-119.48 "/>
<polyline fill="none" stroke="black" points="50,-119.48 62,-131.48 "/>
<polyline fill="none" stroke="black" points="62,-169.48 50,-181.48 "/>
<text text-anchor="middle" x="31" y="-154.28" font-family="Times,serif" font-size="14.00">CBDB</text>
<text text-anchor="middle" x="31" y="-139.28" font-family="Times,serif" font-size="14.00">(cbdb)</text>
</g>
<!-- inter_139887695924720_OUT1 -->
<g id="node2" class="node">
<title>inter_139887695924720_OUT1</title>
<ellipse fill="black" stroke="black" cx="98.36" cy="-150.48" rx="0.36" ry="0.36"/>
</g>
<!-- node_139887695924720&#45;&gt;inter_139887695924720_OUT1 -->
<g id="edge1" class="edge">
<title>node_139887695924720&#45;&gt;inter_139887695924720_OUT1</title>
<path fill="none" stroke="black" d="M72.31,-150.48C72.31,-150.48 97.89,-150.48 97.89,-150.48"/>
<polygon fill="none" stroke="black" points="62.31,-146.98 72.31,-150.48 62.31,-153.98 62.31,-146.98"/>
<text text-anchor="middle" x="83.31" y="-154.28" font-family="Times,serif" font-size="14.00">OUT1</text>
</g>
<!-- node_139887695984672 -->
<g id="node13" class="node">
<title>node_139887695984672</title>
<polygon fill="none" stroke="black" points="248.72,-169.48 134.72,-169.48 134.72,-131.48 248.72,-131.48 248.72,-169.48"/>
<text text-anchor="middle" x="191.72" y="-154.28" font-family="Times,serif" font-size="14.00">NegatorBlock</text>
<text text-anchor="middle" x="191.72" y="-139.28" font-family="Times,serif" font-size="14.00">(negate)</text>
</g>
<!-- inter_139887695924720_OUT1&#45;&gt;node_139887695984672 -->
<g id="edge10" class="edge">
<title>inter_139887695924720_OUT1&#45;&gt;node_139887695984672</title>
<path fill="none" stroke="black" d="M98.96,-150.48C98.96,-150.48 124.58,-150.48 124.58,-150.48"/>
<polygon fill="black" stroke="black" points="124.58,-153.98 134.58,-150.48 124.58,-146.98 124.58,-153.98"/>
<text text-anchor="middle" x="121.08" y="-139.28" font-family="Times,serif" font-size="14.00">IN1</text>
</g>
<!-- node_139887695965056 -->
<g id="node3" class="node">
<title>node_139887695965056</title>
<polygon fill="none" stroke="black" points="230.22,-112.98 153.22,-112.98 153.22,-35.98 230.22,-35.98 230.22,-112.98"/>
<polyline fill="none" stroke="black" points="165.22,-112.98 153.22,-100.98 "/>
<polyline fill="none" stroke="black" points="153.22,-47.98 165.22,-35.98 "/>
<polyline fill="none" stroke="black" points="218.22,-35.98 230.22,-47.98 "/>
<polyline fill="none" stroke="black" points="230.22,-100.98 218.22,-112.98 "/>
<text text-anchor="middle" x="191.72" y="-78.28" font-family="Times,serif" font-size="14.00">SinGen</text>
<text text-anchor="middle" x="191.72" y="-63.28" font-family="Times,serif" font-size="14.00">(sinGen)</text>
</g>
<!-- inter_139887695965056_OUT1 -->
<g id="node4" class="node">
<title>inter_139887695965056_OUT1</title>
<ellipse fill="black" stroke="black" cx="285.08" cy="-102.48" rx="0.36" ry="0.36"/>
</g>
<!-- node_139887695965056&#45;&gt;inter_139887695965056_OUT1 -->
<g id="edge2" class="edge">
<title>node_139887695965056&#45;&gt;inter_139887695965056_OUT1</title>
<path fill="none" stroke="black" d="M240.23,-102.48C240.23,-102.48 284.34,-102.48 284.34,-102.48"/>
<polygon fill="none" stroke="black" points="230.23,-98.98 240.23,-102.48 230.23,-105.98 230.23,-98.98"/>
<text text-anchor="middle" x="251.23" y="-91.28" font-family="Times,serif" font-size="14.00">OUT1</text>
</g>
<!-- node_139887695984576 -->
<g id="node10" class="node">
<title>node_139887695984576</title>
<polygon fill="none" stroke="black" points="419.44,-130.48 321.44,-130.48 321.44,-92.48 419.44,-92.48 419.44,-130.48"/>
<text text-anchor="middle" x="370.44" y="-115.28" font-family="Times,serif" font-size="14.00">AdderBlock</text>
<text text-anchor="middle" x="370.44" y="-100.28" font-family="Times,serif" font-size="14.00">(minus)</text>
</g>
<!-- inter_139887695965056_OUT1&#45;&gt;node_139887695984576 -->
<g id="edge7" class="edge">
<title>inter_139887695965056_OUT1&#45;&gt;node_139887695984576</title>
<path fill="none" stroke="black" d="M285.63,-102.48C285.63,-102.48 311.25,-102.48 311.25,-102.48"/>
<polygon fill="black" stroke="black" points="311.25,-105.98 321.25,-102.48 311.25,-98.98 311.25,-105.98"/>
<text text-anchor="middle" x="307.75" y="-91.28" font-family="Times,serif" font-size="14.00">IN1</text>
</g>
<!-- node_139887695965728 -->
<g id="node5" class="node">
<title>node_139887695965728</title>
<polygon fill="none" stroke="black" points="870.66,-137.98 741.66,-137.98 741.66,-8.98 870.66,-8.98 870.66,-137.98"/>
<polyline fill="none" stroke="black" points="753.66,-137.98 741.66,-125.98 "/>
<polyline fill="none" stroke="black" points="741.66,-20.98 753.66,-8.98 "/>
<polyline fill="none" stroke="black" points="858.66,-8.98 870.66,-20.98 "/>
<polyline fill="none" stroke="black" points="870.66,-125.98 858.66,-137.98 "/>
<text text-anchor="middle" x="806.16" y="-77.28" font-family="Times,serif" font-size="14.00">IntegratorBlock</text>
<text text-anchor="middle" x="806.16" y="-62.28" font-family="Times,serif" font-size="14.00">(integrator)</text>
</g>
<!-- inter_139887695965728_OUT1 -->
<g id="node8" class="node">
<title>inter_139887695965728_OUT1</title>
<ellipse fill="black" stroke="black" cx="907.02" cy="-73.48" rx="0.36" ry="0.36"/>
</g>
<!-- node_139887695965728&#45;&gt;inter_139887695965728_OUT1 -->
<g id="edge5" class="edge">
<title>node_139887695965728&#45;&gt;inter_139887695965728_OUT1</title>
<path fill="none" stroke="black" d="M880.89,-73.48C880.89,-73.48 906.59,-73.48 906.59,-73.48"/>
<polygon fill="none" stroke="black" points="870.89,-69.98 880.89,-73.48 870.89,-76.98 870.89,-69.98"/>
<text text-anchor="middle" x="891.89" y="-77.28" font-family="Times,serif" font-size="14.00">OUT1</text>
</g>
<!-- inter_139887695984960_OUT1 -->
<g id="node6" class="node">
<title>inter_139887695984960_OUT1</title>
<ellipse fill="black" stroke="black" cx="705.3" cy="-97.48" rx="0.36" ry="0.36"/>
</g>
<!-- inter_139887695984960_OUT1&#45;&gt;node_139887695965728 -->
<g id="edge3" class="edge">
<title>inter_139887695984960_OUT1&#45;&gt;node_139887695965728</title>
<path fill="none" stroke="black" d="M705.94,-97.48C705.94,-97.48 731.42,-97.48 731.42,-97.48"/>
<polygon fill="black" stroke="black" points="731.42,-100.98 741.42,-97.48 731.42,-93.98 731.42,-100.98"/>
<text text-anchor="middle" x="727.92" y="-86.28" font-family="Times,serif" font-size="14.00">IN1</text>
</g>
<!-- inter_139887695984480_OUT1 -->
<g id="node7" class="node">
<title>inter_139887695984480_OUT1</title>
<ellipse fill="black" stroke="black" cx="705.3" cy="-64.48" rx="0.36" ry="0.36"/>
</g>
<!-- inter_139887695984480_OUT1&#45;&gt;node_139887695965728 -->
<g id="edge4" class="edge">
<title>inter_139887695984480_OUT1&#45;&gt;node_139887695965728</title>
<path fill="none" stroke="black" d="M705.94,-64.48C705.94,-64.48 731.42,-64.48 731.42,-64.48"/>
<polygon fill="black" stroke="black" points="731.42,-67.98 741.42,-64.48 731.42,-60.98 731.42,-67.98"/>
<text text-anchor="middle" x="733.42" y="-53.28" font-family="Times,serif" font-size="14.00">IC</text>
</g>
<!-- node_139887695924816_OUT1 -->
<g id="node15" class="node">
<title>node_139887695924816_OUT1</title>
<ellipse fill="black" stroke="black" cx="943.74" cy="-73.48" rx="0.36" ry="0.36"/>
</g>
<!-- inter_139887695965728_OUT1&#45;&gt;node_139887695924816_OUT1 -->
<g id="edge14" class="edge">
<title>inter_139887695965728_OUT1&#45;&gt;node_139887695924816_OUT1</title>
<path fill="none" stroke="black" d="M907.43,-73.48C907.43,-73.48 933.37,-73.48 933.37,-73.48"/>
<polygon fill="none" stroke="black" points="933.37,-76.98 943.37,-73.48 933.37,-69.98 933.37,-76.98"/>
<text text-anchor="middle" x="964.37" y="-62.28" font-family="Times,serif" font-size="14.00">OUT1</text>
</g>
<!-- node_139887695984480 -->
<g id="node9" class="node">
<title>node_139887695984480</title>
<ellipse fill="none" stroke="black" cx="580.55" cy="-37.48" rx="88.28" ry="37.45"/>
<text text-anchor="middle" x="580.55" y="-48.78" font-family="Times,serif" font-size="14.00"> ConstantBlock</text>
<text text-anchor="middle" x="580.55" y="-33.78" font-family="Times,serif" font-size="14.00">(zero)</text>
<text text-anchor="middle" x="580.55" y="-18.78" font-family="Times,serif" font-size="14.00">0</text>
</g>
<!-- node_139887695984480&#45;&gt;inter_139887695984480_OUT1 -->
<g id="edge6" class="edge">
<title>node_139887695984480&#45;&gt;inter_139887695984480_OUT1</title>
<path fill="none" stroke="black" d="M652.19,-64.48C652.19,-64.48 704.93,-64.48 704.93,-64.48"/>
<polygon fill="none" stroke="black" points="642.19,-60.98 652.19,-64.48 642.19,-67.98 642.19,-60.98"/>
<text text-anchor="middle" x="663.19" y="-68.28" font-family="Times,serif" font-size="14.00">OUT1</text>
</g>
<!-- inter_139887695984576_OUT1 -->
<g id="node12" class="node">
<title>inter_139887695984576_OUT1</title>
<ellipse fill="black" stroke="black" cx="455.8" cy="-111.48" rx="0.36" ry="0.36"/>
</g>
<!-- node_139887695984576&#45;&gt;inter_139887695984576_OUT1 -->
<g id="edge9" class="edge">
<title>node_139887695984576&#45;&gt;inter_139887695984576_OUT1</title>
<path fill="none" stroke="black" d="M429.6,-111.48C429.6,-111.48 455.36,-111.48 455.36,-111.48"/>
<polygon fill="none" stroke="black" points="419.6,-107.98 429.6,-111.48 419.6,-114.98 419.6,-107.98"/>
<text text-anchor="middle" x="440.6" y="-115.28" font-family="Times,serif" font-size="14.00">OUT1</text>
</g>
<!-- inter_139887695984672_OUT1 -->
<g id="node11" class="node">
<title>inter_139887695984672_OUT1</title>
<ellipse fill="black" stroke="black" cx="285.08" cy="-135.48" rx="0.36" ry="0.36"/>
</g>
<!-- inter_139887695984672_OUT1&#45;&gt;node_139887695984576 -->
<g id="edge8" class="edge">
<title>inter_139887695984672_OUT1&#45;&gt;node_139887695984576</title>
<path fill="none" stroke="black" d="M285.1,-135.03C285.1,-133.02 285.1,-124.98 285.1,-124.98 285.1,-124.98 311.29,-124.98 311.29,-124.98"/>
<polygon fill="black" stroke="black" points="311.29,-128.48 321.29,-124.98 311.29,-121.48 311.29,-128.48"/>
<text text-anchor="middle" x="307.79" y="-113.78" font-family="Times,serif" font-size="14.00">IN2</text>
</g>
<!-- node_139887695984960 -->
<g id="node14" class="node">
<title>node_139887695984960</title>
<polygon fill="none" stroke="black" points="624.55,-130.48 536.55,-130.48 536.55,-92.48 624.55,-92.48 624.55,-130.48"/>
<text text-anchor="middle" x="580.55" y="-115.28" font-family="Times,serif" font-size="14.00">AbsBlock</text>
<text text-anchor="middle" x="580.55" y="-100.28" font-family="Times,serif" font-size="14.00">(absolute)</text>
</g>
<!-- inter_139887695984576_OUT1&#45;&gt;node_139887695984960 -->
<g id="edge12" class="edge">
<title>inter_139887695984576_OUT1&#45;&gt;node_139887695984960</title>
<path fill="none" stroke="black" d="M456.6,-111.48C456.6,-111.48 526.26,-111.48 526.26,-111.48"/>
<polygon fill="black" stroke="black" points="526.26,-114.98 536.26,-111.48 526.26,-107.98 526.26,-114.98"/>
<text text-anchor="middle" x="522.76" y="-100.28" font-family="Times,serif" font-size="14.00">IN1</text>
</g>
<!-- node_139887695984672&#45;&gt;inter_139887695984672_OUT1 -->
<g id="edge11" class="edge">
<title>node_139887695984672&#45;&gt;inter_139887695984672_OUT1</title>
<path fill="none" stroke="black" d="M258.98,-135.48C258.98,-135.48 284.65,-135.48 284.65,-135.48"/>
<polygon fill="none" stroke="black" points="248.98,-131.98 258.98,-135.48 248.98,-138.98 248.98,-131.98"/>
<text text-anchor="middle" x="269.98" y="-139.28" font-family="Times,serif" font-size="14.00">OUT1</text>
</g>
<!-- node_139887695984960&#45;&gt;inter_139887695984960_OUT1 -->
<g id="edge13" class="edge">
<title>node_139887695984960&#45;&gt;inter_139887695984960_OUT1</title>
<path fill="none" stroke="black" d="M634.88,-97.48C634.88,-97.48 704.79,-97.48 704.79,-97.48"/>
<polygon fill="none" stroke="black" points="624.88,-93.98 634.88,-97.48 624.88,-100.98 624.88,-93.98"/>
<text text-anchor="middle" x="645.88" y="-86.28" font-family="Times,serif" font-size="14.00">OUT1</text>
</g>
</g>
</svg>
