<?xml version="1.0" encoding="UTF-8" standalone="no"?>
<!DOCTYPE svg PUBLIC "-//W3C//DTD SVG 1.1//EN"
 "http://www.w3.org/Graphics/SVG/1.1/DTD/svg11.dtd">
<!-- Generated by graphviz version 2.43.0 (0)
 -->
<!-- Title: model Pages: 1 -->
<svg width="992pt" height="219pt"
 viewBox="0.00 0.00 992.37 218.98" xmlns="http://www.w3.org/2000/svg" xmlns:xlink="http://www.w3.org/1999/xlink">
<g id="graph0" class="graph" transform="scale(1 1) rotate(0) translate(4 214.98)">
<title>model</title>
<polygon fill="white" stroke="transparent" points="-4,4 -4,-214.98 988.37,-214.98 988.37,4 -4,4"/>
<text text-anchor="start" x="416.69" y="-191.98" font-family="Times,serif" font-weight="bold" font-size="20.00">CBD (errorA)</text>
<!-- node_139887695885648 -->
<g id="node1" class="node">
<title>node_139887695885648</title>
<polygon fill="none" stroke="black" points="61,-180.98 0,-180.98 0,-119.98 61,-119.98 61,-180.98"/>
<polyline fill="none" stroke="black" points="12,-180.98 0,-168.98 "/>
<polyline fill="none" stroke="black" points="0,-131.98 12,-119.98 "/>
<polyline fill="none" stroke="black" points="49,-119.98 61,-131.98 "/>
<polyline fill="none" stroke="black" points="61,-168.98 49,-180.98 "/>
<text text-anchor="middle" x="30.5" y="-154.28" font-family="Times,serif" font-size="14.00">CBDA</text>
<text text-anchor="middle" x="30.5" y="-139.28" font-family="Times,serif" font-size="14.00">(cbda)</text>
</g>
<!-- inter_139887695885648_OUT1 -->
<g id="node2" class="node">
<title>inter_139887695885648_OUT1</title>
<ellipse fill="black" stroke="black" cx="97.36" cy="-150.48" rx="0.36" ry="0.36"/>
</g>
<!-- node_139887695885648&#45;&gt;inter_139887695885648_OUT1 -->
<g id="edge1" class="edge">
<title>node_139887695885648&#45;&gt;inter_139887695885648_OUT1</title>
<path fill="none" stroke="black" d="M71.19,-150.48C71.19,-150.48 96.89,-150.48 96.89,-150.48"/>
<polygon fill="none" stroke="black" points="61.19,-146.98 71.19,-150.48 61.19,-153.98 61.19,-146.98"/>
<text text-anchor="middle" x="82.19" y="-154.28" font-family="Times,serif" font-size="14.00">OUT1</text>
</g>
<!-- node_139887695923424 -->
<g id="node13" class="node">
<title>node_139887695923424</title>
<polygon fill="none" stroke="black" points="247.72,-169.48 133.72,-169.48 133.72,-131.48 247.72,-131.48 247.72,-169.48"/>
<text text-anchor="middle" x="190.72" y="-154.28" font-family="Times,serif" font-size="14.00">NegatorBlock</text>
<text text-anchor="middle" x="190.72" y="-139.28" font-family="Times,serif" font-size="14.00">(negate)</text>
</g>
<!-- inter_139887695885648_OUT1&#45;&gt;node_139887695923424 -->
<g id="edge10" class="edge">
<title>inter_139887695885648_OUT1&#45;&gt;node_139887695923424</title>
<path fill="none" stroke="black" d="M97.96,-150.48C97.96,-150.48 123.58,-150.48 123.58,-150.48"/>
<polygon fill="black" stroke="black" points="123.58,-153.98 133.58,-150.48 123.58,-146.98 123.58,-153.98"/>
<text text-anchor="middle" x="120.08" y="-139.28" font-family="Times,serif" font-size="14.00">IN1</text>
</g>
<!-- node_139887695903808 -->
<g id="node3" class="node">
<title>node_139887695903808</title>
<polygon fill="none" stroke="black" points="229.22,-112.98 152.22,-112.98 152.22,-35.98 229.22,-35.98 229.22,-112.98"/>
<polyline fill="none" stroke="black" points="164.22,-112.98 152.22,-100.98 "/>
<polyline fill="none" stroke="black" points="152.22,-47.98 164.22,-35.98 "/>
<polyline fill="none" stroke="black" points="217.22,-35.98 229.22,-47.98 "/>
<polyline fill="none" stroke="black" points="229.22,-100.98 217.22,-112.98 "/>
<text text-anchor="middle" x="190.72" y="-78.28" font-family="Times,serif" font-size="14.00">SinGen</text>
<text text-anchor="middle" x="190.72" y="-63.28" font-family="Times,serif" font-size="14.00">(sinGen)</text>
</g>
<!-- inter_139887695903808_OUT1 -->
<g id="node4" class="node">
<title>inter_139887695903808_OUT1</title>
<ellipse fill="black" stroke="black" cx="284.08" cy="-102.48" rx="0.36" ry="0.36"/>
</g>
<!-- node_139887695903808&#45;&gt;inter_139887695903808_OUT1 -->
<g id="edge2" class="edge">
<title>node_139887695903808&#45;&gt;inter_139887695903808_OUT1</title>
<path fill="none" stroke="black" d="M239.23,-102.48C239.23,-102.48 283.34,-102.48 283.34,-102.48"/>
<polygon fill="none" stroke="black" points="229.23,-98.98 239.23,-102.48 229.23,-105.98 229.23,-98.98"/>
<text text-anchor="middle" x="250.23" y="-91.28" font-family="Times,serif" font-size="14.00">OUT1</text>
</g>
<!-- node_139887695923328 -->
<g id="node10" class="node">
<title>node_139887695923328</title>
<polygon fill="none" stroke="black" points="418.44,-130.48 320.44,-130.48 320.44,-92.48 418.44,-92.48 418.44,-130.48"/>
<text text-anchor="middle" x="369.44" y="-115.28" font-family="Times,serif" font-size="14.00">AdderBlock</text>
<text text-anchor="middle" x="369.44" y="-100.28" font-family="Times,serif" font-size="14.00">(minus)</text>
</g>
<!-- inter_139887695903808_OUT1&#45;&gt;node_139887695923328 -->
<g id="edge7" class="edge">
<title>inter_139887695903808_OUT1&#45;&gt;node_139887695923328</title>
<path fill="none" stroke="black" d="M284.63,-102.48C284.63,-102.48 310.25,-102.48 310.25,-102.48"/>
<polygon fill="black" stroke="black" points="310.25,-105.98 320.25,-102.48 310.25,-98.98 310.25,-105.98"/>
<text text-anchor="middle" x="306.75" y="-91.28" font-family="Times,serif" font-size="14.00">IN1</text>
</g>
<!-- node_139887695904480 -->
<g id="node5" class="node">
<title>node_139887695904480</title>
<polygon fill="none" stroke="black" points="869.66,-137.98 740.66,-137.98 740.66,-8.98 869.66,-8.98 869.66,-137.98"/>
<polyline fill="none" stroke="black" points="752.66,-137.98 740.66,-125.98 "/>
<polyline fill="none" stroke="black" points="740.66,-20.98 752.66,-8.98 "/>
<polyline fill="none" stroke="black" points="857.66,-8.98 869.66,-20.98 "/>
<polyline fill="none" stroke="black" points="869.66,-125.98 857.66,-137.98 "/>
<text text-anchor="middle" x="805.16" y="-77.28" font-family="Times,serif" font-size="14.00">IntegratorBlock</text>
<text text-anchor="middle" x="805.16" y="-62.28" font-family="Times,serif" font-size="14.00">(integrator)</text>
</g>
<!-- inter_139887695904480_OUT1 -->
<g id="node8" class="node">
<title>inter_139887695904480_OUT1</title>
<ellipse fill="black" stroke="black" cx="906.02" cy="-73.48" rx="0.36" ry="0.36"/>
</g>
<!-- node_139887695904480&#45;&gt;inter_139887695904480_OUT1 -->
<g id="edge5" class="edge">
<title>node_139887695904480&#45;&gt;inter_139887695904480_OUT1</title>
<path fill="none" stroke="black" d="M879.89,-73.48C879.89,-73.48 905.59,-73.48 905.59,-73.48"/>
<polygon fill="none" stroke="black" points="869.89,-69.98 879.89,-73.48 869.89,-76.98 869.89,-69.98"/>
<text text-anchor="middle" x="890.89" y="-77.28" font-family="Times,serif" font-size="14.00">OUT1</text>
</g>
<!-- inter_139887695923712_OUT1 -->
<g id="node6" class="node">
<title>inter_139887695923712_OUT1</title>
<ellipse fill="black" stroke="black" cx="704.3" cy="-97.48" rx="0.36" ry="0.36"/>
</g>
<!-- inter_139887695923712_OUT1&#45;&gt;node_139887695904480 -->
<g id="edge3" class="edge">
<title>inter_139887695923712_OUT1&#45;&gt;node_139887695904480</title>
<path fill="none" stroke="black" d="M704.94,-97.48C704.94,-97.48 730.42,-97.48 730.42,-97.48"/>
<polygon fill="black" stroke="black" points="730.42,-100.98 740.42,-97.48 730.42,-93.98 730.42,-100.98"/>
<text text-anchor="middle" x="726.92" y="-86.28" font-family="Times,serif" font-size="14.00">IN1</text>
</g>
<!-- inter_139887695923232_OUT1 -->
<g id="node7" class="node">
<title>inter_139887695923232_OUT1</title>
<ellipse fill="black" stroke="black" cx="704.3" cy="-64.48" rx="0.36" ry="0.36"/>
</g>
<!-- inter_139887695923232_OUT1&#45;&gt;node_139887695904480 -->
<g id="edge4" class="edge">
<title>inter_139887695923232_OUT1&#45;&gt;node_139887695904480</title>
<path fill="none" stroke="black" d="M704.94,-64.48C704.94,-64.48 730.42,-64.48 730.42,-64.48"/>
<polygon fill="black" stroke="black" points="730.42,-67.98 740.42,-64.48 730.42,-60.98 730.42,-67.98"/>
<text text-anchor="middle" x="732.42" y="-53.28" font-family="Times,serif" font-size="14.00">IC</text>
</g>
<!-- node_139887695885744_OUT1 -->
<g id="node15" class="node">
<title>node_139887695885744_OUT1</title>
<ellipse fill="black" stroke="black" cx="942.74" cy="-73.48" rx="0.36" ry="0.36"/>
</g>
<!-- inter_139887695904480_OUT1&#45;&gt;node_139887695885744_OUT1 -->
<g id="edge14" class="edge">
<title>inter_139887695904480_OUT1&#45;&gt;node_139887695885744_OUT1</title>
<path fill="none" stroke="black" d="M906.43,-73.48C906.43,-73.48 932.37,-73.48 932.37,-73.48"/>
<polygon fill="none" stroke="black" points="932.37,-76.98 942.37,-73.48 932.37,-69.98 932.37,-76.98"/>
<text text-anchor="middle" x="963.37" y="-62.28" font-family="Times,serif" font-size="14.00">OUT1</text>
</g>
<!-- node_139887695923232 -->
<g id="node9" class="node">
<title>node_139887695923232</title>
<ellipse fill="none" stroke="black" cx="579.55" cy="-37.48" rx="88.28" ry="37.45"/>
<text text-anchor="middle" x="579.55" y="-48.78" font-family="Times,serif" font-size="14.00"> ConstantBlock</text>
<text text-anchor="middle" x="579.55" y="-33.78" font-family="Times,serif" font-size="14.00">(zero)</text>
<text text-anchor="middle" x="579.55" y="-18.78" font-family="Times,serif" font-size="14.00">0</text>
</g>
<!-- node_139887695923232&#45;&gt;inter_139887695923232_OUT1 -->
<g id="edge6" class="edge">
<title>node_139887695923232&#45;&gt;inter_139887695923232_OUT1</title>
<path fill="none" stroke="black" d="M651.19,-64.48C651.19,-64.48 703.93,-64.48 703.93,-64.48"/>
<polygon fill="none" stroke="black" points="641.19,-60.98 651.19,-64.48 641.19,-67.98 641.19,-60.98"/>
<text text-anchor="middle" x="662.19" y="-68.28" font-family="Times,serif" font-size="14.00">OUT1</text>
</g>
<!-- inter_139887695923328_OUT1 -->
<g id="node12" class="node">
<title>inter_139887695923328_OUT1</title>
<ellipse fill="black" stroke="black" cx="454.8" cy="-111.48" rx="0.36" ry="0.36"/>
</g>
<!-- node_139887695923328&#45;&gt;inter_139887695923328_OUT1 -->
<g id="edge9" class="edge">
<title>node_139887695923328&#45;&gt;inter_139887695923328_OUT1</title>
<path fill="none" stroke="black" d="M428.6,-111.48C428.6,-111.48 454.36,-111.48 454.36,-111.48"/>
<polygon fill="none" stroke="black" points="418.6,-107.98 428.6,-111.48 418.6,-114.98 418.6,-107.98"/>
<text text-anchor="middle" x="439.6" y="-115.28" font-family="Times,serif" font-size="14.00">OUT1</text>
</g>
<!-- inter_139887695923424_OUT1 -->
<g id="node11" class="node">
<title>inter_139887695923424_OUT1</title>
<ellipse fill="black" stroke="black" cx="284.08" cy="-135.48" rx="0.36" ry="0.36"/>
</g>
<!-- inter_139887695923424_OUT1&#45;&gt;node_139887695923328 -->
<g id="edge8" class="edge">
<title>inter_139887695923424_OUT1&#45;&gt;node_139887695923328</title>
<path fill="none" stroke="black" d="M284.1,-135.04C284.1,-133.07 284.1,-125.23 284.1,-125.23 284.1,-125.23 310.29,-125.23 310.29,-125.23"/>
<polygon fill="black" stroke="black" points="310.29,-128.73 320.29,-125.23 310.29,-121.73 310.29,-128.73"/>
<text text-anchor="middle" x="306.79" y="-114.03" font-family="Times,serif" font-size="14.00">IN2</text>
</g>
<!-- node_139887695923712 -->
<g id="node14" class="node">
<title>node_139887695923712</title>
<polygon fill="none" stroke="black" points="623.55,-130.48 535.55,-130.48 535.55,-92.48 623.55,-92.48 623.55,-130.48"/>
<text text-anchor="middle" x="579.55" y="-115.28" font-family="Times,serif" font-size="14.00">AbsBlock</text>
<text text-anchor="middle" x="579.55" y="-100.28" font-family="Times,serif" font-size="14.00">(absolute)</text>
</g>
<!-- inter_139887695923328_OUT1&#45;&gt;node_139887695923712 -->
<g id="edge12" class="edge">
<title>inter_139887695923328_OUT1&#45;&gt;node_139887695923712</title>
<path fill="none" stroke="black" d="M455.6,-111.48C455.6,-111.48 525.26,-111.48 525.26,-111.48"/>
<polygon fill="black" stroke="black" points="525.26,-114.98 535.26,-111.48 525.26,-107.98 525.26,-114.98"/>
<text text-anchor="middle" x="521.76" y="-100.28" font-family="Times,serif" font-size="14.00">IN1</text>
</g>
<!-- node_139887695923424&#45;&gt;inter_139887695923424_OUT1 -->
<g id="edge11" class="edge">
<title>node_139887695923424&#45;&gt;inter_139887695923424_OUT1</title>
<path fill="none" stroke="black" d="M257.98,-135.48C257.98,-135.48 283.65,-135.48 283.65,-135.48"/>
<polygon fill="none" stroke="black" points="247.98,-131.98 257.98,-135.48 247.98,-138.98 247.98,-131.98"/>
<text text-anchor="middle" x="268.98" y="-139.28" font-family="Times,serif" font-size="14.00">OUT1</text>
</g>
<!-- node_139887695923712&#45;&gt;inter_139887695923712_OUT1 -->
<g id="edge13" class="edge">
<title>node_139887695923712&#45;&gt;inter_139887695923712_OUT1</title>
<path fill="none" stroke="black" d="M633.88,-97.48C633.88,-97.48 703.79,-97.48 703.79,-97.48"/>
<polygon fill="none" stroke="black" points="623.88,-93.98 633.88,-97.48 623.88,-100.98 623.88,-93.98"/>
<text text-anchor="middle" x="644.88" y="-86.28" font-family="Times,serif" font-size="14.00">OUT1</text>
</g>
</g>
</svg>
