<?xml version="1.0" encoding="UTF-8" standalone="no"?>
<!DOCTYPE svg PUBLIC "-//W3C//DTD SVG 1.1//EN"
 "http://www.w3.org/Graphics/SVG/1.1/DTD/svg11.dtd">
<!-- Generated by graphviz version 3.0.0 (20220226.1711)
 -->
<!-- Title: model Pages: 1 -->
<svg width="846pt" height="211pt"
 viewBox="0.00 0.00 846.16 211.48" xmlns="http://www.w3.org/2000/svg" xmlns:xlink="http://www.w3.org/1999/xlink">
<g id="graph0" class="graph" transform="scale(1 1) rotate(0) translate(4 207.48)">
<title>model</title>
<polygon fill="white" stroke="transparent" points="-4,4 -4,-207.48 842.16,-207.48 842.16,4 -4,4"/>
<text text-anchor="start" x="358.58" y="-184.48" font-family="Times,serif" font-weight="bold" font-size="20.00">CBD (errorA)</text>
<!-- node_4765131008 -->
<g id="node1" class="node">
<title>node_4765131008</title>
<polygon fill="none" stroke="black" points="54,-173.48 0,-173.48 0,-119.48 54,-119.48 54,-173.48"/>
<polyline fill="none" stroke="black" points="12,-173.48 0,-161.48 "/>
<polyline fill="none" stroke="black" points="0,-131.48 12,-119.48 "/>
<polyline fill="none" stroke="black" points="42,-119.48 54,-131.48 "/>
<polyline fill="none" stroke="black" points="54,-161.48 42,-173.48 "/>
<text text-anchor="middle" x="27" y="-150.28" font-family="Times,serif" font-size="14.00">CBDA</text>
<text text-anchor="middle" x="27" y="-135.28" font-family="Times,serif" font-size="14.00">(cbda)</text>
</g>
<!-- inter_4765131008_OUT1 -->
<g id="node2" class="node">
<title>inter_4765131008_OUT1</title>
<ellipse fill="black" stroke="black" cx="90.36" cy="-146.48" rx="0.36" ry="0.36"/>
</g>
<!-- node_4765131008&#45;&gt;inter_4765131008_OUT1 -->
<g id="edge1" class="edge">
<title>node_4765131008&#45;&gt;inter_4765131008_OUT1</title>
<path fill="none" stroke="black" d="M64.24,-146.48C64.24,-146.48 89.88,-146.48 89.88,-146.48"/>
<polygon fill="none" stroke="black" points="54.24,-142.98 64.24,-146.48 54.24,-149.98 54.24,-142.98"/>
<text text-anchor="middle" x="71.74" y="-135.28" font-family="Times,serif" font-size="14.00">OUT1</text>
</g>
<!-- node_4765092640 -->
<g id="node13" class="node">
<title>node_4765092640</title>
<polygon fill="none" stroke="black" points="218.72,-165.48 126.72,-165.48 126.72,-127.48 218.72,-127.48 218.72,-165.48"/>
<text text-anchor="middle" x="172.72" y="-150.28" font-family="Times,serif" font-size="14.00">NegatorBlock</text>
<text text-anchor="middle" x="172.72" y="-135.28" font-family="Times,serif" font-size="14.00">(negate)</text>
</g>
<!-- inter_4765131008_OUT1&#45;&gt;node_4765092640 -->
<g id="edge10" class="edge">
<title>inter_4765131008_OUT1&#45;&gt;node_4765092640</title>
<path fill="none" stroke="black" d="M90.89,-146.48C90.89,-146.48 116.63,-146.48 116.63,-146.48"/>
<polygon fill="black" stroke="black" points="116.63,-149.98 126.63,-146.48 116.63,-142.98 116.63,-149.98"/>
<text text-anchor="middle" x="115.63" y="-135.28" font-family="Times,serif" font-size="14.00">IN1</text>
</g>
<!-- node_4765132784 -->
<g id="node3" class="node">
<title>node_4765132784</title>
<polygon fill="none" stroke="black" points="204.72,-109.48 140.72,-109.48 140.72,-45.48 204.72,-45.48 204.72,-109.48"/>
<polyline fill="none" stroke="black" points="152.72,-109.48 140.72,-97.48 "/>
<polyline fill="none" stroke="black" points="140.72,-57.48 152.72,-45.48 "/>
<polyline fill="none" stroke="black" points="192.72,-45.48 204.72,-57.48 "/>
<polyline fill="none" stroke="black" points="204.72,-97.48 192.72,-109.48 "/>
<text text-anchor="middle" x="172.72" y="-81.28" font-family="Times,serif" font-size="14.00">SinGen</text>
<text text-anchor="middle" x="172.72" y="-66.28" font-family="Times,serif" font-size="14.00">(sinGen)</text>
</g>
<!-- inter_4765132784_OUT1 -->
<g id="node4" class="node">
<title>inter_4765132784_OUT1</title>
<ellipse fill="black" stroke="black" cx="255.08" cy="-102.48" rx="0.36" ry="0.36"/>
</g>
<!-- node_4765132784&#45;&gt;inter_4765132784_OUT1 -->
<g id="edge2" class="edge">
<title>node_4765132784&#45;&gt;inter_4765132784_OUT1</title>
<path fill="none" stroke="black" d="M214.8,-102.48C214.8,-102.48 254.39,-102.48 254.39,-102.48"/>
<polygon fill="none" stroke="black" points="204.8,-98.98 214.8,-102.48 204.8,-105.98 204.8,-98.98"/>
<text text-anchor="middle" x="222.3" y="-91.28" font-family="Times,serif" font-size="14.00">OUT1</text>
</g>
<!-- node_4765091536 -->
<g id="node10" class="node">
<title>node_4765091536</title>
<polygon fill="none" stroke="black" points="374.44,-130.48 291.44,-130.48 291.44,-92.48 374.44,-92.48 374.44,-130.48"/>
<text text-anchor="middle" x="332.94" y="-115.28" font-family="Times,serif" font-size="14.00">AdderBlock</text>
<text text-anchor="middle" x="332.94" y="-100.28" font-family="Times,serif" font-size="14.00">(minus)</text>
</g>
<!-- inter_4765132784_OUT1&#45;&gt;node_4765091536 -->
<g id="edge7" class="edge">
<title>inter_4765132784_OUT1&#45;&gt;node_4765091536</title>
<path fill="none" stroke="black" d="M255.58,-102.48C255.58,-102.48 281.1,-102.48 281.1,-102.48"/>
<polygon fill="black" stroke="black" points="281.1,-105.98 291.1,-102.48 281.1,-98.98 281.1,-105.98"/>
<text text-anchor="middle" x="280.1" y="-91.28" font-family="Times,serif" font-size="14.00">IN1</text>
</g>
<!-- node_4765133456 -->
<g id="node5" class="node">
<title>node_4765133456</title>
<polygon fill="none" stroke="black" points="764.72,-124.48 662.72,-124.48 662.72,-22.48 764.72,-22.48 764.72,-124.48"/>
<polyline fill="none" stroke="black" points="674.72,-124.48 662.72,-112.48 "/>
<polyline fill="none" stroke="black" points="662.72,-34.48 674.72,-22.48 "/>
<polyline fill="none" stroke="black" points="752.72,-22.48 764.72,-34.48 "/>
<polyline fill="none" stroke="black" points="764.72,-112.48 752.72,-124.48 "/>
<text text-anchor="middle" x="713.72" y="-77.28" font-family="Times,serif" font-size="14.00">IntegratorBlock</text>
<text text-anchor="middle" x="713.72" y="-62.28" font-family="Times,serif" font-size="14.00">(integrator)</text>
</g>
<!-- inter_4765133456_OUT1 -->
<g id="node8" class="node">
<title>inter_4765133456_OUT1</title>
<ellipse fill="black" stroke="black" cx="801.08" cy="-73.48" rx="0.36" ry="0.36"/>
</g>
<!-- node_4765133456&#45;&gt;inter_4765133456_OUT1 -->
<g id="edge5" class="edge">
<title>node_4765133456&#45;&gt;inter_4765133456_OUT1</title>
<path fill="none" stroke="black" d="M774.79,-73.48C774.79,-73.48 800.64,-73.48 800.64,-73.48"/>
<polygon fill="none" stroke="black" points="764.79,-69.98 774.79,-73.48 764.79,-76.98 764.79,-69.98"/>
<text text-anchor="middle" x="782.29" y="-62.28" font-family="Times,serif" font-size="14.00">OUT1</text>
</g>
<!-- inter_4765091392_OUT1 -->
<g id="node6" class="node">
<title>inter_4765091392_OUT1</title>
<ellipse fill="black" stroke="black" cx="626.36" cy="-97.48" rx="0.36" ry="0.36"/>
</g>
<!-- inter_4765091392_OUT1&#45;&gt;node_4765133456 -->
<g id="edge3" class="edge">
<title>inter_4765091392_OUT1&#45;&gt;node_4765133456</title>
<path fill="none" stroke="black" d="M626.91,-97.48C626.91,-97.48 652.41,-97.48 652.41,-97.48"/>
<polygon fill="black" stroke="black" points="652.41,-100.98 662.41,-97.48 652.41,-93.98 652.41,-100.98"/>
<text text-anchor="middle" x="651.41" y="-86.28" font-family="Times,serif" font-size="14.00">IN1</text>
</g>
<!-- inter_4765092928_OUT1 -->
<g id="node7" class="node">
<title>inter_4765092928_OUT1</title>
<ellipse fill="black" stroke="black" cx="626.36" cy="-64.48" rx="0.36" ry="0.36"/>
</g>
<!-- inter_4765092928_OUT1&#45;&gt;node_4765133456 -->
<g id="edge4" class="edge">
<title>inter_4765092928_OUT1&#45;&gt;node_4765133456</title>
<path fill="none" stroke="black" d="M626.91,-64.48C626.91,-64.48 652.41,-64.48 652.41,-64.48"/>
<polygon fill="black" stroke="black" points="652.41,-67.98 662.41,-64.48 652.41,-60.98 652.41,-67.98"/>
<text text-anchor="middle" x="655.41" y="-53.28" font-family="Times,serif" font-size="14.00">IC</text>
</g>
<!-- node_4765131104_OUT1 -->
<g id="node15" class="node">
<title>node_4765131104_OUT1</title>
<ellipse fill="black" stroke="black" cx="837.8" cy="-73.48" rx="0.36" ry="0.36"/>
</g>
<!-- inter_4765133456_OUT1&#45;&gt;node_4765131104_OUT1 -->
<g id="edge14" class="edge">
<title>inter_4765133456_OUT1&#45;&gt;node_4765131104_OUT1</title>
<path fill="none" stroke="black" d="M801.49,-73.48C801.49,-73.48 827.43,-73.48 827.43,-73.48"/>
<polygon fill="none" stroke="black" points="827.43,-76.98 837.43,-73.48 827.43,-69.98 827.43,-76.98"/>
<text text-anchor="middle" x="819.93" y="-62.28" font-family="Times,serif" font-size="14.00">OUT1</text>
</g>
<!-- node_4765092928 -->
<g id="node9" class="node">
<title>node_4765092928</title>
<ellipse fill="none" stroke="black" cx="518.58" cy="-37.48" rx="71.34" ry="37.45"/>
<text text-anchor="middle" x="518.58" y="-48.78" font-family="Times,serif" font-size="14.00"> ConstantBlock</text>
<text text-anchor="middle" x="518.58" y="-33.78" font-family="Times,serif" font-size="14.00">(zero)</text>
<text text-anchor="middle" x="518.58" y="-18.78" font-family="Times,serif" font-size="14.00">0</text>
</g>
<!-- node_4765092928&#45;&gt;inter_4765092928_OUT1 -->
<g id="edge6" class="edge">
<title>node_4765092928&#45;&gt;inter_4765092928_OUT1</title>
<path fill="none" stroke="black" d="M578.37,-64.48C578.37,-64.48 625.6,-64.48 625.6,-64.48"/>
<polygon fill="none" stroke="black" points="568.37,-60.98 578.37,-64.48 568.37,-67.98 568.37,-60.98"/>
<text text-anchor="middle" x="585.87" y="-68.28" font-family="Times,serif" font-size="14.00">OUT1</text>
</g>
<!-- inter_4765091536_OUT1 -->
<g id="node12" class="node">
<title>inter_4765091536_OUT1</title>
<ellipse fill="black" stroke="black" cx="410.8" cy="-111.48" rx="0.36" ry="0.36"/>
</g>
<!-- node_4765091536&#45;&gt;inter_4765091536_OUT1 -->
<g id="edge9" class="edge">
<title>node_4765091536&#45;&gt;inter_4765091536_OUT1</title>
<path fill="none" stroke="black" d="M384.61,-111.48C384.61,-111.48 410.35,-111.48 410.35,-111.48"/>
<polygon fill="none" stroke="black" points="374.61,-107.98 384.61,-111.48 374.61,-114.98 374.61,-107.98"/>
<text text-anchor="middle" x="392.11" y="-100.28" font-family="Times,serif" font-size="14.00">OUT1</text>
</g>
<!-- inter_4765092640_OUT1 -->
<g id="node11" class="node">
<title>inter_4765092640_OUT1</title>
<ellipse fill="black" stroke="black" cx="255.08" cy="-133.48" rx="0.36" ry="0.36"/>
</g>
<!-- inter_4765092640_OUT1&#45;&gt;node_4765091536 -->
<g id="edge8" class="edge">
<title>inter_4765092640_OUT1&#45;&gt;node_4765091536</title>
<path fill="none" stroke="black" d="M255.16,-133.05C255.16,-131.13 255.16,-123.48 255.16,-123.48 255.16,-123.48 281.32,-123.48 281.32,-123.48"/>
<polygon fill="black" stroke="black" points="281.32,-126.98 291.32,-123.48 281.32,-119.98 281.32,-126.98"/>
<text text-anchor="middle" x="280.32" y="-112.28" font-family="Times,serif" font-size="14.00">IN2</text>
</g>
<!-- node_4765091392 -->
<g id="node14" class="node">
<title>node_4765091392</title>
<polygon fill="none" stroke="black" points="554.08,-130.48 483.08,-130.48 483.08,-92.48 554.08,-92.48 554.08,-130.48"/>
<text text-anchor="middle" x="518.58" y="-115.28" font-family="Times,serif" font-size="14.00">AbsBlock</text>
<text text-anchor="middle" x="518.58" y="-100.28" font-family="Times,serif" font-size="14.00">(absolute)</text>
</g>
<!-- inter_4765091536_OUT1&#45;&gt;node_4765091392 -->
<g id="edge12" class="edge">
<title>inter_4765091536_OUT1&#45;&gt;node_4765091392</title>
<path fill="none" stroke="black" d="M411.49,-111.48C411.49,-111.48 472.9,-111.48 472.9,-111.48"/>
<polygon fill="black" stroke="black" points="472.9,-114.98 482.9,-111.48 472.9,-107.98 472.9,-114.98"/>
<text text-anchor="middle" x="471.9" y="-100.28" font-family="Times,serif" font-size="14.00">IN1</text>
</g>
<!-- node_4765092640&#45;&gt;inter_4765092640_OUT1 -->
<g id="edge11" class="edge">
<title>node_4765092640&#45;&gt;inter_4765092640_OUT1</title>
<path fill="none" stroke="black" d="M229.2,-133.48C229.2,-133.48 254.64,-133.48 254.64,-133.48"/>
<polygon fill="none" stroke="black" points="219.2,-129.98 229.2,-133.48 219.2,-136.98 219.2,-129.98"/>
<text text-anchor="middle" x="236.7" y="-122.28" font-family="Times,serif" font-size="14.00">OUT1</text>
</g>
<!-- node_4765091392&#45;&gt;inter_4765091392_OUT1 -->
<g id="edge13" class="edge">
<title>node_4765091392&#45;&gt;inter_4765091392_OUT1</title>
<path fill="none" stroke="black" d="M564.17,-97.48C564.17,-97.48 625.89,-97.48 625.89,-97.48"/>
<polygon fill="none" stroke="black" points="554.17,-93.98 564.17,-97.48 554.17,-100.98 554.17,-93.98"/>
<text text-anchor="middle" x="571.67" y="-86.28" font-family="Times,serif" font-size="14.00">OUT1</text>
</g>
</g>
</svg>
