<?xml version="1.0" encoding="UTF-8" standalone="no"?>
<!DOCTYPE svg PUBLIC "-//W3C//DTD SVG 1.1//EN"
 "http://www.w3.org/Graphics/SVG/1.1/DTD/svg11.dtd">
<!-- Generated by graphviz version 3.0.0 (20220226.1711)
 -->
<!-- Title: model Pages: 1 -->
<svg width="845pt" height="211pt"
 viewBox="0.00 0.00 845.16 210.98" xmlns="http://www.w3.org/2000/svg" xmlns:xlink="http://www.w3.org/1999/xlink">
<g id="graph0" class="graph" transform="scale(1 1) rotate(0) translate(4 206.98)">
<title>model</title>
<polygon fill="white" stroke="transparent" points="-4,4 -4,-206.98 841.16,-206.98 841.16,4 -4,4"/>
<text text-anchor="start" x="358.58" y="-183.98" font-family="Times,serif" font-weight="bold" font-size="20.00">CBD (errorB)</text>
<!-- node_4765092256 -->
<g id="node1" class="node">
<title>node_4765092256</title>
<polygon fill="none" stroke="black" points="53,-172.98 0,-172.98 0,-119.98 53,-119.98 53,-172.98"/>
<polyline fill="none" stroke="black" points="12,-172.98 0,-160.98 "/>
<polyline fill="none" stroke="black" points="0,-131.98 12,-119.98 "/>
<polyline fill="none" stroke="black" points="41,-119.98 53,-131.98 "/>
<polyline fill="none" stroke="black" points="53,-160.98 41,-172.98 "/>
<text text-anchor="middle" x="26.5" y="-150.28" font-family="Times,serif" font-size="14.00">CBDB</text>
<text text-anchor="middle" x="26.5" y="-135.28" font-family="Times,serif" font-size="14.00">(cbdb)</text>
</g>
<!-- inter_4765092256_OUT1 -->
<g id="node2" class="node">
<title>inter_4765092256_OUT1</title>
<ellipse fill="black" stroke="black" cx="89.36" cy="-146.48" rx="0.36" ry="0.36"/>
</g>
<!-- node_4765092256&#45;&gt;inter_4765092256_OUT1 -->
<g id="edge1" class="edge">
<title>node_4765092256&#45;&gt;inter_4765092256_OUT1</title>
<path fill="none" stroke="black" d="M63.16,-146.48C63.16,-146.48 88.87,-146.48 88.87,-146.48"/>
<polygon fill="none" stroke="black" points="53.16,-142.98 63.16,-146.48 53.16,-149.98 53.16,-142.98"/>
<text text-anchor="middle" x="70.66" y="-135.28" font-family="Times,serif" font-size="14.00">OUT1</text>
</g>
<!-- node_4765202032 -->
<g id="node13" class="node">
<title>node_4765202032</title>
<polygon fill="none" stroke="black" points="217.72,-165.48 125.72,-165.48 125.72,-127.48 217.72,-127.48 217.72,-165.48"/>
<text text-anchor="middle" x="171.72" y="-150.28" font-family="Times,serif" font-size="14.00">NegatorBlock</text>
<text text-anchor="middle" x="171.72" y="-135.28" font-family="Times,serif" font-size="14.00">(negate)</text>
</g>
<!-- inter_4765092256_OUT1&#45;&gt;node_4765202032 -->
<g id="edge10" class="edge">
<title>inter_4765092256_OUT1&#45;&gt;node_4765202032</title>
<path fill="none" stroke="black" d="M89.89,-146.48C89.89,-146.48 115.63,-146.48 115.63,-146.48"/>
<polygon fill="black" stroke="black" points="115.63,-149.98 125.63,-146.48 115.63,-142.98 115.63,-149.98"/>
<text text-anchor="middle" x="114.63" y="-135.28" font-family="Times,serif" font-size="14.00">IN1</text>
</g>
<!-- node_4765182416 -->
<g id="node3" class="node">
<title>node_4765182416</title>
<polygon fill="none" stroke="black" points="203.72,-109.48 139.72,-109.48 139.72,-45.48 203.72,-45.48 203.72,-109.48"/>
<polyline fill="none" stroke="black" points="151.72,-109.48 139.72,-97.48 "/>
<polyline fill="none" stroke="black" points="139.72,-57.48 151.72,-45.48 "/>
<polyline fill="none" stroke="black" points="191.72,-45.48 203.72,-57.48 "/>
<polyline fill="none" stroke="black" points="203.72,-97.48 191.72,-109.48 "/>
<text text-anchor="middle" x="171.72" y="-81.28" font-family="Times,serif" font-size="14.00">SinGen</text>
<text text-anchor="middle" x="171.72" y="-66.28" font-family="Times,serif" font-size="14.00">(sinGen)</text>
</g>
<!-- inter_4765182416_OUT1 -->
<g id="node4" class="node">
<title>inter_4765182416_OUT1</title>
<ellipse fill="black" stroke="black" cx="254.08" cy="-102.48" rx="0.36" ry="0.36"/>
</g>
<!-- node_4765182416&#45;&gt;inter_4765182416_OUT1 -->
<g id="edge2" class="edge">
<title>node_4765182416&#45;&gt;inter_4765182416_OUT1</title>
<path fill="none" stroke="black" d="M213.8,-102.48C213.8,-102.48 253.39,-102.48 253.39,-102.48"/>
<polygon fill="none" stroke="black" points="203.8,-98.98 213.8,-102.48 203.8,-105.98 203.8,-98.98"/>
<text text-anchor="middle" x="221.3" y="-91.28" font-family="Times,serif" font-size="14.00">OUT1</text>
</g>
<!-- node_4765201936 -->
<g id="node10" class="node">
<title>node_4765201936</title>
<polygon fill="none" stroke="black" points="373.44,-130.48 290.44,-130.48 290.44,-92.48 373.44,-92.48 373.44,-130.48"/>
<text text-anchor="middle" x="331.94" y="-115.28" font-family="Times,serif" font-size="14.00">AdderBlock</text>
<text text-anchor="middle" x="331.94" y="-100.28" font-family="Times,serif" font-size="14.00">(minus)</text>
</g>
<!-- inter_4765182416_OUT1&#45;&gt;node_4765201936 -->
<g id="edge7" class="edge">
<title>inter_4765182416_OUT1&#45;&gt;node_4765201936</title>
<path fill="none" stroke="black" d="M254.58,-102.48C254.58,-102.48 280.1,-102.48 280.1,-102.48"/>
<polygon fill="black" stroke="black" points="280.1,-105.98 290.1,-102.48 280.1,-98.98 280.1,-105.98"/>
<text text-anchor="middle" x="279.1" y="-91.28" font-family="Times,serif" font-size="14.00">IN1</text>
</g>
<!-- node_4765183088 -->
<g id="node5" class="node">
<title>node_4765183088</title>
<polygon fill="none" stroke="black" points="763.72,-124.48 661.72,-124.48 661.72,-22.48 763.72,-22.48 763.72,-124.48"/>
<polyline fill="none" stroke="black" points="673.72,-124.48 661.72,-112.48 "/>
<polyline fill="none" stroke="black" points="661.72,-34.48 673.72,-22.48 "/>
<polyline fill="none" stroke="black" points="751.72,-22.48 763.72,-34.48 "/>
<polyline fill="none" stroke="black" points="763.72,-112.48 751.72,-124.48 "/>
<text text-anchor="middle" x="712.72" y="-77.28" font-family="Times,serif" font-size="14.00">IntegratorBlock</text>
<text text-anchor="middle" x="712.72" y="-62.28" font-family="Times,serif" font-size="14.00">(integrator)</text>
</g>
<!-- inter_4765183088_OUT1 -->
<g id="node8" class="node">
<title>inter_4765183088_OUT1</title>
<ellipse fill="black" stroke="black" cx="800.08" cy="-73.48" rx="0.36" ry="0.36"/>
</g>
<!-- node_4765183088&#45;&gt;inter_4765183088_OUT1 -->
<g id="edge5" class="edge">
<title>node_4765183088&#45;&gt;inter_4765183088_OUT1</title>
<path fill="none" stroke="black" d="M773.79,-73.48C773.79,-73.48 799.64,-73.48 799.64,-73.48"/>
<polygon fill="none" stroke="black" points="763.79,-69.98 773.79,-73.48 763.79,-76.98 763.79,-69.98"/>
<text text-anchor="middle" x="781.29" y="-62.28" font-family="Times,serif" font-size="14.00">OUT1</text>
</g>
<!-- inter_4765202320_OUT1 -->
<g id="node6" class="node">
<title>inter_4765202320_OUT1</title>
<ellipse fill="black" stroke="black" cx="625.36" cy="-97.48" rx="0.36" ry="0.36"/>
</g>
<!-- inter_4765202320_OUT1&#45;&gt;node_4765183088 -->
<g id="edge3" class="edge">
<title>inter_4765202320_OUT1&#45;&gt;node_4765183088</title>
<path fill="none" stroke="black" d="M625.91,-97.48C625.91,-97.48 651.41,-97.48 651.41,-97.48"/>
<polygon fill="black" stroke="black" points="651.41,-100.98 661.41,-97.48 651.41,-93.98 651.41,-100.98"/>
<text text-anchor="middle" x="650.41" y="-86.28" font-family="Times,serif" font-size="14.00">IN1</text>
</g>
<!-- inter_4765201840_OUT1 -->
<g id="node7" class="node">
<title>inter_4765201840_OUT1</title>
<ellipse fill="black" stroke="black" cx="625.36" cy="-64.48" rx="0.36" ry="0.36"/>
</g>
<!-- inter_4765201840_OUT1&#45;&gt;node_4765183088 -->
<g id="edge4" class="edge">
<title>inter_4765201840_OUT1&#45;&gt;node_4765183088</title>
<path fill="none" stroke="black" d="M625.91,-64.48C625.91,-64.48 651.41,-64.48 651.41,-64.48"/>
<polygon fill="black" stroke="black" points="651.41,-67.98 661.41,-64.48 651.41,-60.98 651.41,-67.98"/>
<text text-anchor="middle" x="654.41" y="-53.28" font-family="Times,serif" font-size="14.00">IC</text>
</g>
<!-- node_4765090528_OUT1 -->
<g id="node15" class="node">
<title>node_4765090528_OUT1</title>
<ellipse fill="black" stroke="black" cx="836.8" cy="-73.48" rx="0.36" ry="0.36"/>
</g>
<!-- inter_4765183088_OUT1&#45;&gt;node_4765090528_OUT1 -->
<g id="edge14" class="edge">
<title>inter_4765183088_OUT1&#45;&gt;node_4765090528_OUT1</title>
<path fill="none" stroke="black" d="M800.49,-73.48C800.49,-73.48 826.43,-73.48 826.43,-73.48"/>
<polygon fill="none" stroke="black" points="826.43,-76.98 836.43,-73.48 826.43,-69.98 826.43,-76.98"/>
<text text-anchor="middle" x="818.93" y="-62.28" font-family="Times,serif" font-size="14.00">OUT1</text>
</g>
<!-- node_4765201840 -->
<g id="node9" class="node">
<title>node_4765201840</title>
<ellipse fill="none" stroke="black" cx="517.58" cy="-37.48" rx="71.34" ry="37.45"/>
<text text-anchor="middle" x="517.58" y="-48.78" font-family="Times,serif" font-size="14.00"> ConstantBlock</text>
<text text-anchor="middle" x="517.58" y="-33.78" font-family="Times,serif" font-size="14.00">(zero)</text>
<text text-anchor="middle" x="517.58" y="-18.78" font-family="Times,serif" font-size="14.00">0</text>
</g>
<!-- node_4765201840&#45;&gt;inter_4765201840_OUT1 -->
<g id="edge6" class="edge">
<title>node_4765201840&#45;&gt;inter_4765201840_OUT1</title>
<path fill="none" stroke="black" d="M577.37,-64.48C577.37,-64.48 624.6,-64.48 624.6,-64.48"/>
<polygon fill="none" stroke="black" points="567.37,-60.98 577.37,-64.48 567.37,-67.98 567.37,-60.98"/>
<text text-anchor="middle" x="584.87" y="-68.28" font-family="Times,serif" font-size="14.00">OUT1</text>
</g>
<!-- inter_4765201936_OUT1 -->
<g id="node12" class="node">
<title>inter_4765201936_OUT1</title>
<ellipse fill="black" stroke="black" cx="409.8" cy="-111.48" rx="0.36" ry="0.36"/>
</g>
<!-- node_4765201936&#45;&gt;inter_4765201936_OUT1 -->
<g id="edge9" class="edge">
<title>node_4765201936&#45;&gt;inter_4765201936_OUT1</title>
<path fill="none" stroke="black" d="M383.61,-111.48C383.61,-111.48 409.35,-111.48 409.35,-111.48"/>
<polygon fill="none" stroke="black" points="373.61,-107.98 383.61,-111.48 373.61,-114.98 373.61,-107.98"/>
<text text-anchor="middle" x="391.11" y="-100.28" font-family="Times,serif" font-size="14.00">OUT1</text>
</g>
<!-- inter_4765202032_OUT1 -->
<g id="node11" class="node">
<title>inter_4765202032_OUT1</title>
<ellipse fill="black" stroke="black" cx="254.08" cy="-133.48" rx="0.36" ry="0.36"/>
</g>
<!-- inter_4765202032_OUT1&#45;&gt;node_4765201936 -->
<g id="edge8" class="edge">
<title>inter_4765202032_OUT1&#45;&gt;node_4765201936</title>
<path fill="none" stroke="black" d="M254.16,-133.06C254.16,-131.19 254.16,-123.73 254.16,-123.73 254.16,-123.73 280.32,-123.73 280.32,-123.73"/>
<polygon fill="black" stroke="black" points="280.32,-127.23 290.32,-123.73 280.32,-120.23 280.32,-127.23"/>
<text text-anchor="middle" x="279.32" y="-112.53" font-family="Times,serif" font-size="14.00">IN2</text>
</g>
<!-- node_4765202320 -->
<g id="node14" class="node">
<title>node_4765202320</title>
<polygon fill="none" stroke="black" points="553.08,-130.48 482.08,-130.48 482.08,-92.48 553.08,-92.48 553.08,-130.48"/>
<text text-anchor="middle" x="517.58" y="-115.28" font-family="Times,serif" font-size="14.00">AbsBlock</text>
<text text-anchor="middle" x="517.58" y="-100.28" font-family="Times,serif" font-size="14.00">(absolute)</text>
</g>
<!-- inter_4765201936_OUT1&#45;&gt;node_4765202320 -->
<g id="edge12" class="edge">
<title>inter_4765201936_OUT1&#45;&gt;node_4765202320</title>
<path fill="none" stroke="black" d="M410.49,-111.48C410.49,-111.48 471.9,-111.48 471.9,-111.48"/>
<polygon fill="black" stroke="black" points="471.9,-114.98 481.9,-111.48 471.9,-107.98 471.9,-114.98"/>
<text text-anchor="middle" x="470.9" y="-100.28" font-family="Times,serif" font-size="14.00">IN1</text>
</g>
<!-- node_4765202032&#45;&gt;inter_4765202032_OUT1 -->
<g id="edge11" class="edge">
<title>node_4765202032&#45;&gt;inter_4765202032_OUT1</title>
<path fill="none" stroke="black" d="M228.2,-133.48C228.2,-133.48 253.64,-133.48 253.64,-133.48"/>
<polygon fill="none" stroke="black" points="218.2,-129.98 228.2,-133.48 218.2,-136.98 218.2,-129.98"/>
<text text-anchor="middle" x="235.7" y="-122.28" font-family="Times,serif" font-size="14.00">OUT1</text>
</g>
<!-- node_4765202320&#45;&gt;inter_4765202320_OUT1 -->
<g id="edge13" class="edge">
<title>node_4765202320&#45;&gt;inter_4765202320_OUT1</title>
<path fill="none" stroke="black" d="M563.17,-97.48C563.17,-97.48 624.89,-97.48 624.89,-97.48"/>
<polygon fill="none" stroke="black" points="553.17,-93.98 563.17,-97.48 553.17,-100.98 553.17,-93.98"/>
<text text-anchor="middle" x="570.67" y="-86.28" font-family="Times,serif" font-size="14.00">OUT1</text>
</g>
</g>
</svg>
