<?xml version="1.0" encoding="UTF-8" standalone="no"?>
<!DOCTYPE svg PUBLIC "-//W3C//DTD SVG 1.1//EN"
 "http://www.w3.org/Graphics/SVG/1.1/DTD/svg11.dtd">
<!-- Generated by graphviz version 3.0.0 (20220226.1711)
 -->
<!-- Title: model Pages: 1 -->
<svg width="327pt" height="99pt"
 viewBox="0.00 0.00 327.16 98.50" xmlns="http://www.w3.org/2000/svg" xmlns:xlink="http://www.w3.org/1999/xlink">
<g id="graph0" class="graph" transform="scale(1 1) rotate(0) translate(4 94.5)">
<title>model</title>
<polygon fill="white" stroke="transparent" points="-4,4 -4,-94.5 323.16,-94.5 323.16,4 -4,4"/>
<text text-anchor="start" x="97.08" y="-71.5" font-family="Times,serif" font-weight="bold" font-size="20.00">CBD (SinGen)</text>
<!-- node_4765117984 -->
<g id="node1" class="node">
<title>node_4765117984</title>
<polygon fill="none" stroke="black" points="78,-43 0,-43 0,-5 78,-5 78,-43"/>
<text text-anchor="middle" x="39" y="-27.8" font-family="Times,serif" font-size="14.00">TimeBlock</text>
<text text-anchor="middle" x="39" y="-12.8" font-family="Times,serif" font-size="14.00">(time)</text>
</g>
<!-- inter_4765117984_OUT1 -->
<g id="node2" class="node">
<title>inter_4765117984_OUT1</title>
<ellipse fill="black" stroke="black" cx="114.36" cy="-34" rx="0.36" ry="0.36"/>
</g>
<!-- node_4765117984&#45;&gt;inter_4765117984_OUT1 -->
<g id="edge1" class="edge">
<title>node_4765117984&#45;&gt;inter_4765117984_OUT1</title>
<path fill="none" stroke="black" d="M88,-34C88,-34 113.9,-34 113.9,-34"/>
<polygon fill="none" stroke="black" points="78,-30.5 88,-34 78,-37.5 78,-30.5"/>
<text text-anchor="middle" x="95.5" y="-22.8" font-family="Times,serif" font-size="14.00">OUT1</text>
</g>
<!-- inter_4765117984_relative -->
<g id="node3" class="node">
<title>inter_4765117984_relative</title>
<ellipse fill="black" stroke="black" cx="114.36" cy="-15" rx="0.36" ry="0.36"/>
</g>
<!-- node_4765117984&#45;&gt;inter_4765117984_relative -->
<g id="edge2" class="edge">
<title>node_4765117984&#45;&gt;inter_4765117984_relative</title>
<path fill="none" stroke="black" d="M88,-15C88,-15 113.9,-15 113.9,-15"/>
<polygon fill="none" stroke="black" points="78,-11.5 88,-15 78,-18.5 78,-11.5"/>
<text text-anchor="middle" x="98.5" y="-3.8" font-family="Times,serif" font-size="14.00">relative</text>
</g>
<!-- node_4765118032 -->
<g id="node4" class="node">
<title>node_4765118032</title>
<polygon fill="none" stroke="black" points="245.72,-60.5 150.72,-60.5 150.72,-7.5 245.72,-7.5 245.72,-60.5"/>
<text text-anchor="middle" x="198.22" y="-45.3" font-family="Times,serif" font-size="14.00"> GenericBlock</text>
<text text-anchor="middle" x="198.22" y="-30.3" font-family="Times,serif" font-size="14.00">(sin)</text>
<text text-anchor="middle" x="198.22" y="-15.3" font-family="Times,serif" font-size="14.00">sin</text>
</g>
<!-- inter_4765117984_OUT1&#45;&gt;node_4765118032 -->
<g id="edge3" class="edge">
<title>inter_4765117984_OUT1&#45;&gt;node_4765118032</title>
<path fill="none" stroke="black" d="M114.9,-34C114.9,-34 140.36,-34 140.36,-34"/>
<polygon fill="black" stroke="black" points="140.36,-37.5 150.36,-34 140.36,-30.5 140.36,-37.5"/>
<text text-anchor="middle" x="139.36" y="-22.8" font-family="Times,serif" font-size="14.00">IN1</text>
</g>
<!-- inter_4765118032_OUT1 -->
<g id="node5" class="node">
<title>inter_4765118032_OUT1</title>
<ellipse fill="black" stroke="black" cx="282.08" cy="-34" rx="0.36" ry="0.36"/>
</g>
<!-- node_4765118032&#45;&gt;inter_4765118032_OUT1 -->
<g id="edge4" class="edge">
<title>node_4765118032&#45;&gt;inter_4765118032_OUT1</title>
<path fill="none" stroke="black" d="M256.03,-34C256.03,-34 281.64,-34 281.64,-34"/>
<polygon fill="none" stroke="black" points="246.03,-30.5 256.03,-34 246.03,-37.5 246.03,-30.5"/>
<text text-anchor="middle" x="263.53" y="-22.8" font-family="Times,serif" font-size="14.00">OUT1</text>
</g>
<!-- node_4765118080_OUT1 -->
<g id="node6" class="node">
<title>node_4765118080_OUT1</title>
<ellipse fill="black" stroke="black" cx="318.8" cy="-34" rx="0.36" ry="0.36"/>
</g>
<!-- inter_4765118032_OUT1&#45;&gt;node_4765118080_OUT1 -->
<g id="edge5" class="edge">
<title>inter_4765118032_OUT1&#45;&gt;node_4765118080_OUT1</title>
<path fill="none" stroke="black" d="M282.49,-34C282.49,-34 308.44,-34 308.44,-34"/>
<polygon fill="none" stroke="black" points="308.44,-37.5 318.44,-34 308.44,-30.5 308.44,-37.5"/>
<text text-anchor="middle" x="300.94" y="-22.8" font-family="Times,serif" font-size="14.00">OUT1</text>
</g>
</g>
</svg>
