<?xml version="1.0" encoding="UTF-8" standalone="no"?>
<!DOCTYPE svg PUBLIC "-//W3C//DTD SVG 1.1//EN"
 "http://www.w3.org/Graphics/SVG/1.1/DTD/svg11.dtd">
<!-- Generated by graphviz version 2.43.0 (0)
 -->
<!-- Title: model Pages: 1 -->
<svg width="402pt" height="94pt"
 viewBox="0.00 0.00 402.44 93.50" xmlns="http://www.w3.org/2000/svg" xmlns:xlink="http://www.w3.org/1999/xlink">
<g id="graph0" class="graph" transform="scale(1 1) rotate(0) translate(4 89.5)">
<title>model</title>
<polygon fill="white" stroke="transparent" points="-4,4 -4,-89.5 398.44,-89.5 398.44,4 -4,4"/>
<text text-anchor="start" x="118.72" y="-66.5" font-family="Times,serif" font-weight="bold" font-size="20.00">CBD (SinGen)</text>
<!-- node_139887695884976 -->
<g id="node1" class="node">
<title>node_139887695884976</title>
<polygon fill="none" stroke="black" points="91,-38 0,-38 0,0 91,0 91,-38"/>
<text text-anchor="middle" x="45.5" y="-22.8" font-family="Times,serif" font-size="14.00">TimeBlock</text>
<text text-anchor="middle" x="45.5" y="-7.8" font-family="Times,serif" font-size="14.00">(time)</text>
</g>
<!-- inter_139887695884976_OUT1 -->
<g id="node2" class="node">
<title>inter_139887695884976_OUT1</title>
<ellipse fill="black" stroke="black" cx="127.36" cy="-29" rx="0.36" ry="0.36"/>
</g>
<!-- node_139887695884976&#45;&gt;inter_139887695884976_OUT1 -->
<g id="edge1" class="edge">
<title>node_139887695884976&#45;&gt;inter_139887695884976_OUT1</title>
<path fill="none" stroke="black" d="M101.22,-29C101.22,-29 126.91,-29 126.91,-29"/>
<polygon fill="none" stroke="black" points="91.22,-25.5 101.22,-29 91.22,-32.5 91.22,-25.5"/>
<text text-anchor="middle" x="112.22" y="-32.8" font-family="Times,serif" font-size="14.00">OUT1</text>
</g>
<!-- inter_139887695884976_relative -->
<g id="node3" class="node">
<title>inter_139887695884976_relative</title>
<ellipse fill="black" stroke="black" cx="127.36" cy="-10" rx="0.36" ry="0.36"/>
</g>
<!-- node_139887695884976&#45;&gt;inter_139887695884976_relative -->
<g id="edge2" class="edge">
<title>node_139887695884976&#45;&gt;inter_139887695884976_relative</title>
<path fill="none" stroke="black" d="M101.22,-10C101.22,-10 126.91,-10 126.91,-10"/>
<polygon fill="none" stroke="black" points="91.22,-6.5 101.22,-10 91.22,-13.5 91.22,-6.5"/>
<text text-anchor="middle" x="118.72" y="-13.8" font-family="Times,serif" font-size="14.00">relative</text>
</g>
<!-- node_139887695885024 -->
<g id="node4" class="node">
<title>node_139887695885024</title>
<polygon fill="none" stroke="black" points="279.72,-55.5 163.72,-55.5 163.72,-2.5 279.72,-2.5 279.72,-55.5"/>
<text text-anchor="middle" x="221.72" y="-40.3" font-family="Times,serif" font-size="14.00"> GenericBlock</text>
<text text-anchor="middle" x="221.72" y="-25.3" font-family="Times,serif" font-size="14.00">(sin)</text>
<text text-anchor="middle" x="221.72" y="-10.3" font-family="Times,serif" font-size="14.00">sin</text>
</g>
<!-- inter_139887695884976_OUT1&#45;&gt;node_139887695885024 -->
<g id="edge3" class="edge">
<title>inter_139887695884976_OUT1&#45;&gt;node_139887695885024</title>
<path fill="none" stroke="black" d="M127.96,-29C127.96,-29 153.72,-29 153.72,-29"/>
<polygon fill="black" stroke="black" points="153.72,-32.5 163.72,-29 153.72,-25.5 153.72,-32.5"/>
<text text-anchor="middle" x="150.22" y="-32.8" font-family="Times,serif" font-size="14.00">IN1</text>
</g>
<!-- inter_139887695885024_OUT1 -->
<g id="node5" class="node">
<title>inter_139887695885024_OUT1</title>
<ellipse fill="black" stroke="black" cx="316.08" cy="-29" rx="0.36" ry="0.36"/>
</g>
<!-- node_139887695885024&#45;&gt;inter_139887695885024_OUT1 -->
<g id="edge4" class="edge">
<title>node_139887695885024&#45;&gt;inter_139887695885024_OUT1</title>
<path fill="none" stroke="black" d="M289.87,-29C289.87,-29 315.65,-29 315.65,-29"/>
<polygon fill="none" stroke="black" points="279.87,-25.5 289.87,-29 279.87,-32.5 279.87,-25.5"/>
<text text-anchor="middle" x="300.87" y="-32.8" font-family="Times,serif" font-size="14.00">OUT1</text>
</g>
<!-- node_139887695885072_OUT1 -->
<g id="node6" class="node">
<title>node_139887695885072_OUT1</title>
<ellipse fill="black" stroke="black" cx="352.8" cy="-29" rx="0.36" ry="0.36"/>
</g>
<!-- inter_139887695885024_OUT1&#45;&gt;node_139887695885072_OUT1 -->
<g id="edge5" class="edge">
<title>inter_139887695885024_OUT1&#45;&gt;node_139887695885072_OUT1</title>
<path fill="none" stroke="black" d="M316.49,-29C316.49,-29 342.44,-29 342.44,-29"/>
<polygon fill="none" stroke="black" points="342.44,-32.5 352.44,-29 342.44,-25.5 342.44,-32.5"/>
<text text-anchor="middle" x="373.44" y="-17.8" font-family="Times,serif" font-size="14.00">OUT1</text>
</g>
</g>
</svg>
