<?xml version="1.0" encoding="UTF-8" standalone="no"?>
<!DOCTYPE svg PUBLIC "-//W3C//DTD SVG 1.1//EN"
 "http://www.w3.org/Graphics/SVG/1.1/DTD/svg11.dtd">
<!-- Generated by graphviz version 3.0.0 (20220226.1711)
 -->
<!-- Title: model Pages: 1 -->
<svg width="605pt" height="127pt"
 viewBox="0.00 0.00 605.16 127.36" xmlns="http://www.w3.org/2000/svg" xmlns:xlink="http://www.w3.org/1999/xlink">
<g id="graph0" class="graph" transform="scale(1 1) rotate(0) translate(4 123.36)">
<title>model</title>
<polygon fill="white" stroke="transparent" points="-4,4 -4,-123.36 601.16,-123.36 601.16,4 -4,4"/>
<text text-anchor="start" x="151.08" y="-100.36" font-family="Times,serif" font-weight="bold" font-size="20.00">integrator (ForwardEulerMethod)</text>
<!-- node_5218676352_IN1 -->
<g id="node1" class="node">
<title>node_5218676352_IN1</title>
<ellipse fill="black" stroke="black" cx="43" cy="-89" rx="0.36" ry="0.36"/>
</g>
<!-- inter_5218676352_IN1 -->
<g id="node2" class="node">
<title>inter_5218676352_IN1</title>
<ellipse fill="black" stroke="black" cx="122.36" cy="-84" rx="0.36" ry="0.36"/>
</g>
<!-- node_5218676352_IN1&#45;&gt;inter_5218676352_IN1 -->
<g id="edge1" class="edge">
<title>node_5218676352_IN1&#45;&gt;inter_5218676352_IN1</title>
<path fill="none" stroke="black" d="M53.06,-88.5C53.06,-88.5 123.16,-88.5 123.16,-88.5 123.16,-88.5 123.16,-84.54 123.16,-84.05"/>
<polygon fill="black" stroke="black" points="43.06,-85 53.06,-88.5 43.06,-92 43.06,-85"/>
<text text-anchor="middle" x="32.06" y="-77.3" font-family="Times,serif" font-size="14.00">IN1</text>
</g>
<!-- node_11233100992 -->
<g id="node7" class="node">
<title>node_11233100992</title>
<polygon fill="none" stroke="black" points="249.72,-89 158.72,-89 158.72,-51 249.72,-51 249.72,-89"/>
<text text-anchor="middle" x="204.22" y="-73.8" font-family="Times,serif" font-size="14.00">ProductBlock</text>
<text text-anchor="middle" x="204.22" y="-58.8" font-family="Times,serif" font-size="14.00">(multDelta)</text>
</g>
<!-- inter_5218676352_IN1&#45;&gt;node_11233100992 -->
<g id="edge4" class="edge">
<title>inter_5218676352_IN1&#45;&gt;node_11233100992</title>
<path fill="none" stroke="black" d="M122.88,-84C122.88,-84 148.41,-84 148.41,-84"/>
<polygon fill="black" stroke="black" points="148.41,-87.5 158.41,-84 148.41,-80.5 148.41,-87.5"/>
<text text-anchor="middle" x="147.41" y="-72.8" font-family="Times,serif" font-size="14.00">IN1</text>
</g>
<!-- node_5218676352_IC -->
<g id="node3" class="node">
<title>node_5218676352_IC</title>
<ellipse fill="black" stroke="black" cx="363.94" cy="-19" rx="0.36" ry="0.36"/>
</g>
<!-- inter_5218676352_IC -->
<g id="node4" class="node">
<title>inter_5218676352_IC</title>
<ellipse fill="black" stroke="black" cx="441.94" cy="-19" rx="0.36" ry="0.36"/>
</g>
<!-- node_5218676352_IC&#45;&gt;inter_5218676352_IC -->
<g id="edge2" class="edge">
<title>node_5218676352_IC&#45;&gt;inter_5218676352_IC</title>
<path fill="none" stroke="black" d="M374.44,-19C374.44,-19 441.49,-19 441.49,-19"/>
<polygon fill="black" stroke="black" points="364.44,-15.5 374.44,-19 364.44,-22.5 364.44,-15.5"/>
<text text-anchor="middle" x="357.44" y="-7.8" font-family="Times,serif" font-size="14.00">IC</text>
</g>
<!-- node_11233100176 -->
<g id="node9" class="node">
<title>node_11233100176</title>
<polygon fill="none" stroke="black" points="560.44,-38 478.44,-38 478.44,0 560.44,0 560.44,-38"/>
<text text-anchor="middle" x="519.44" y="-22.8" font-family="Times,serif" font-size="14.00">DelayBlock</text>
<text text-anchor="middle" x="519.44" y="-7.8" font-family="Times,serif" font-size="14.00">(delayState)</text>
</g>
<!-- inter_5218676352_IC&#45;&gt;node_11233100176 -->
<g id="edge8" class="edge">
<title>inter_5218676352_IC&#45;&gt;node_11233100176</title>
<path fill="none" stroke="black" d="M442.43,-19C442.43,-19 468.22,-19 468.22,-19"/>
<polygon fill="black" stroke="black" points="468.22,-22.5 478.22,-19 468.22,-15.5 468.22,-22.5"/>
<text text-anchor="middle" x="471.22" y="-7.8" font-family="Times,serif" font-size="14.00">IC</text>
</g>
<!-- node_4955335312 -->
<g id="node5" class="node">
<title>node_4955335312</title>
<polygon fill="none" stroke="black" points="86,-71 0,-71 0,-33 86,-33 86,-71"/>
<text text-anchor="middle" x="43" y="-55.8" font-family="Times,serif" font-size="14.00">DeltaTBlock</text>
<text text-anchor="middle" x="43" y="-40.8" font-family="Times,serif" font-size="14.00">(delta_t)</text>
</g>
<!-- inter_4955335312_OUT1 -->
<g id="node6" class="node">
<title>inter_4955335312_OUT1</title>
<ellipse fill="black" stroke="black" cx="122.36" cy="-61" rx="0.36" ry="0.36"/>
</g>
<!-- node_4955335312&#45;&gt;inter_4955335312_OUT1 -->
<g id="edge3" class="edge">
<title>node_4955335312&#45;&gt;inter_4955335312_OUT1</title>
<path fill="none" stroke="black" d="M96.4,-61C96.4,-61 121.91,-61 121.91,-61"/>
<polygon fill="none" stroke="black" points="86.4,-57.5 96.4,-61 86.4,-64.5 86.4,-57.5"/>
<text text-anchor="middle" x="103.9" y="-49.8" font-family="Times,serif" font-size="14.00">OUT1</text>
</g>
<!-- inter_4955335312_OUT1&#45;&gt;node_11233100992 -->
<g id="edge5" class="edge">
<title>inter_4955335312_OUT1&#45;&gt;node_11233100992</title>
<path fill="none" stroke="black" d="M122.88,-61C122.88,-61 148.41,-61 148.41,-61"/>
<polygon fill="black" stroke="black" points="148.41,-64.5 158.41,-61 148.41,-57.5 148.41,-64.5"/>
<text text-anchor="middle" x="147.41" y="-49.8" font-family="Times,serif" font-size="14.00">IN2</text>
</g>
<!-- inter_11233100992_OUT1 -->
<g id="node8" class="node">
<title>inter_11233100992_OUT1</title>
<ellipse fill="black" stroke="black" cx="286.08" cy="-70" rx="0.36" ry="0.36"/>
</g>
<!-- node_11233100992&#45;&gt;inter_11233100992_OUT1 -->
<g id="edge6" class="edge">
<title>node_11233100992&#45;&gt;inter_11233100992_OUT1</title>
<path fill="none" stroke="black" d="M259.94,-70C259.94,-70 285.63,-70 285.63,-70"/>
<polygon fill="none" stroke="black" points="249.94,-66.5 259.94,-70 249.94,-73.5 249.94,-66.5"/>
<text text-anchor="middle" x="267.44" y="-58.8" font-family="Times,serif" font-size="14.00">OUT1</text>
</g>
<!-- node_11233101040 -->
<g id="node12" class="node">
<title>node_11233101040</title>
<polygon fill="none" stroke="black" points="405.44,-89 322.44,-89 322.44,-51 405.44,-51 405.44,-89"/>
<text text-anchor="middle" x="363.94" y="-73.8" font-family="Times,serif" font-size="14.00">AdderBlock</text>
<text text-anchor="middle" x="363.94" y="-58.8" font-family="Times,serif" font-size="14.00">(sumState)</text>
</g>
<!-- inter_11233100992_OUT1&#45;&gt;node_11233101040 -->
<g id="edge10" class="edge">
<title>inter_11233100992_OUT1&#45;&gt;node_11233101040</title>
<path fill="none" stroke="black" d="M286.58,-70C286.58,-70 312.1,-70 312.1,-70"/>
<polygon fill="black" stroke="black" points="312.1,-73.5 322.1,-70 312.1,-66.5 312.1,-73.5"/>
<text text-anchor="middle" x="311.1" y="-58.8" font-family="Times,serif" font-size="14.00">IN1</text>
</g>
<!-- inter_11233100176_OUT1 -->
<g id="node11" class="node">
<title>inter_11233100176_OUT1</title>
<ellipse fill="black" stroke="black" cx="596.8" cy="-51" rx="0.36" ry="0.36"/>
</g>
<!-- node_11233100176&#45;&gt;inter_11233100176_OUT1 -->
<g id="edge9" class="edge">
<title>node_11233100176&#45;&gt;inter_11233100176_OUT1</title>
<path fill="none" stroke="black" d="M541.16,-48.05C541.16,-48.05 541.16,-50.5 541.16,-50.5 541.16,-50.5 593.38,-50.5 596.64,-50.5"/>
<polygon fill="none" stroke="black" points="544.66,-38.05 541.16,-48.05 537.66,-38.05 544.66,-38.05"/>
<text text-anchor="middle" x="523.66" y="-41.85" font-family="Times,serif" font-size="14.00">OUT1</text>
</g>
<!-- inter_11233101040_OUT1 -->
<g id="node10" class="node">
<title>inter_11233101040_OUT1</title>
<ellipse fill="black" stroke="black" cx="441.94" cy="-56" rx="0.36" ry="0.36"/>
</g>
<!-- inter_11233101040_OUT1&#45;&gt;node_11233100176 -->
<g id="edge7" class="edge">
<title>inter_11233101040_OUT1&#45;&gt;node_11233100176</title>
<path fill="none" stroke="black" d="M442.16,-55.67C442.16,-52.43 442.16,-26.5 442.16,-26.5 442.16,-26.5 468.09,-26.5 468.09,-26.5"/>
<polygon fill="black" stroke="black" points="468.09,-30 478.09,-26.5 468.09,-23 468.09,-30"/>
<text text-anchor="middle" x="467.09" y="-30.3" font-family="Times,serif" font-size="14.00">IN1</text>
</g>
<!-- node_5218676352_OUT1 -->
<g id="node13" class="node">
<title>node_5218676352_OUT1</title>
<ellipse fill="black" stroke="black" cx="519.44" cy="-56" rx="0.36" ry="0.36"/>
</g>
<!-- inter_11233101040_OUT1&#45;&gt;node_5218676352_OUT1 -->
<g id="edge13" class="edge">
<title>inter_11233101040_OUT1&#45;&gt;node_5218676352_OUT1</title>
<path fill="none" stroke="black" d="M442.43,-56C442.43,-56 508.99,-56 508.99,-56"/>
<polygon fill="none" stroke="black" points="508.99,-59.5 518.99,-56 508.99,-52.5 508.99,-59.5"/>
<text text-anchor="middle" x="501.49" y="-59.8" font-family="Times,serif" font-size="14.00">OUT1</text>
</g>
<!-- inter_11233100176_OUT1&#45;&gt;node_11233101040 -->
<g id="edge11" class="edge">
<title>inter_11233100176_OUT1&#45;&gt;node_11233101040</title>
<path fill="none" stroke="black" d="M596.63,-51.5C596.63,-51.5 415.47,-51.5 415.47,-51.5"/>
<polygon fill="black" stroke="black" points="415.47,-48 405.47,-51.5 415.47,-55 415.47,-48"/>
<text text-anchor="middle" x="394.47" y="-40.3" font-family="Times,serif" font-size="14.00">IN2</text>
</g>
<!-- node_11233101040&#45;&gt;inter_11233101040_OUT1 -->
<g id="edge12" class="edge">
<title>node_11233101040&#45;&gt;inter_11233101040_OUT1</title>
<path fill="none" stroke="black" d="M415.68,-56C415.68,-56 441.49,-56 441.49,-56"/>
<polygon fill="none" stroke="black" points="405.68,-52.5 415.68,-56 405.68,-59.5 405.68,-52.5"/>
<text text-anchor="middle" x="423.18" y="-44.8" font-family="Times,serif" font-size="14.00">OUT1</text>
</g>
</g>
</svg>
