<?xml version="1.0" encoding="UTF-8" standalone="no"?>
<!DOCTYPE svg PUBLIC "-//W3C//DTD SVG 1.1//EN"
 "http://www.w3.org/Graphics/SVG/1.1/DTD/svg11.dtd">
<!-- Generated by graphviz version 2.43.0 (0)
 -->
<!-- Title: model Pages: 1 -->
<svg width="686pt" height="127pt"
 viewBox="0.00 0.00 685.56 127.36" xmlns="http://www.w3.org/2000/svg" xmlns:xlink="http://www.w3.org/1999/xlink">
<g id="graph0" class="graph" transform="scale(1 1) rotate(0) translate(4 123.36)">
<title>model</title>
<polygon fill="white" stroke="transparent" points="-4,4 -4,-123.36 681.56,-123.36 681.56,4 -4,4"/>
<text text-anchor="start" x="149.28" y="-100.36" font-family="Times,serif" font-weight="bold" font-size="20.00">integrator (ForwardEulerMethod)</text>
<!-- node_140455899420320_IN1 -->
<g id="node1" class="node">
<title>node_140455899420320_IN1</title>
<ellipse fill="black" stroke="black" cx="51.5" cy="-89" rx="0.36" ry="0.36"/>
</g>
<!-- inter_140455899420320_IN1 -->
<g id="node2" class="node">
<title>inter_140455899420320_IN1</title>
<ellipse fill="black" stroke="black" cx="139.36" cy="-84" rx="0.36" ry="0.36"/>
</g>
<!-- node_140455899420320_IN1&#45;&gt;inter_140455899420320_IN1 -->
<g id="edge1" class="edge">
<title>node_140455899420320_IN1&#45;&gt;inter_140455899420320_IN1</title>
<path fill="none" stroke="black" d="M61.56,-88.5C61.56,-88.5 140.16,-88.5 140.16,-88.5 140.16,-88.5 140.16,-84.54 140.16,-84.05"/>
<polygon fill="black" stroke="black" points="51.56,-85 61.56,-88.5 51.56,-92 51.56,-85"/>
<text text-anchor="middle" x="38.06" y="-77.3" font-family="Times,serif" font-size="14.00">IN1</text>
</g>
<!-- node_140455899418976 -->
<g id="node7" class="node">
<title>node_140455899418976</title>
<polygon fill="none" stroke="black" points="287.72,-89 175.72,-89 175.72,-51 287.72,-51 287.72,-89"/>
<text text-anchor="middle" x="231.72" y="-73.8" font-family="Times,serif" font-size="14.00">ProductBlock</text>
<text text-anchor="middle" x="231.72" y="-58.8" font-family="Times,serif" font-size="14.00">(multDelta)</text>
</g>
<!-- inter_140455899420320_IN1&#45;&gt;node_140455899418976 -->
<g id="edge4" class="edge">
<title>inter_140455899420320_IN1&#45;&gt;node_140455899418976</title>
<path fill="none" stroke="black" d="M139.95,-84C139.95,-84 165.7,-84 165.7,-84"/>
<polygon fill="black" stroke="black" points="165.7,-87.5 175.7,-84 165.7,-80.5 165.7,-87.5"/>
<text text-anchor="middle" x="162.2" y="-72.8" font-family="Times,serif" font-size="14.00">IN1</text>
</g>
<!-- node_140455899420320_IC -->
<g id="node3" class="node">
<title>node_140455899420320_IC</title>
<ellipse fill="black" stroke="black" cx="409.44" cy="-19" rx="0.36" ry="0.36"/>
</g>
<!-- inter_140455899420320_IC -->
<g id="node4" class="node">
<title>inter_140455899420320_IC</title>
<ellipse fill="black" stroke="black" cx="494.94" cy="-19" rx="0.36" ry="0.36"/>
</g>
<!-- node_140455899420320_IC&#45;&gt;inter_140455899420320_IC -->
<g id="edge2" class="edge">
<title>node_140455899420320_IC&#45;&gt;inter_140455899420320_IC</title>
<path fill="none" stroke="black" d="M419.99,-19C419.99,-19 494.44,-19 494.44,-19"/>
<polygon fill="black" stroke="black" points="409.99,-15.5 419.99,-19 409.99,-22.5 409.99,-15.5"/>
<text text-anchor="middle" x="401.99" y="-7.8" font-family="Times,serif" font-size="14.00">IC</text>
</g>
<!-- node_140455899419024 -->
<g id="node9" class="node">
<title>node_140455899419024</title>
<polygon fill="none" stroke="black" points="635.44,-38 531.44,-38 531.44,0 635.44,0 635.44,-38"/>
<text text-anchor="middle" x="583.44" y="-22.8" font-family="Times,serif" font-size="14.00">DelayBlock</text>
<text text-anchor="middle" x="583.44" y="-7.8" font-family="Times,serif" font-size="14.00">(delayState)</text>
</g>
<!-- inter_140455899420320_IC&#45;&gt;node_140455899419024 -->
<g id="edge8" class="edge">
<title>inter_140455899420320_IC&#45;&gt;node_140455899419024</title>
<path fill="none" stroke="black" d="M495.51,-19C495.51,-19 520.98,-19 520.98,-19"/>
<polygon fill="black" stroke="black" points="520.98,-22.5 530.98,-19 520.98,-15.5 520.98,-22.5"/>
<text text-anchor="middle" x="522.98" y="-7.8" font-family="Times,serif" font-size="14.00">IC</text>
</g>
<!-- node_140455899418832 -->
<g id="node5" class="node">
<title>node_140455899418832</title>
<polygon fill="none" stroke="black" points="103,-71 0,-71 0,-33 103,-33 103,-71"/>
<text text-anchor="middle" x="51.5" y="-55.8" font-family="Times,serif" font-size="14.00">DeltaTBlock</text>
<text text-anchor="middle" x="51.5" y="-40.8" font-family="Times,serif" font-size="14.00">(delta_t)</text>
</g>
<!-- inter_140455899418832_OUT1 -->
<g id="node6" class="node">
<title>inter_140455899418832_OUT1</title>
<ellipse fill="black" stroke="black" cx="139.36" cy="-61" rx="0.36" ry="0.36"/>
</g>
<!-- node_140455899418832&#45;&gt;inter_140455899418832_OUT1 -->
<g id="edge3" class="edge">
<title>node_140455899418832&#45;&gt;inter_140455899418832_OUT1</title>
<path fill="none" stroke="black" d="M113.12,-61C113.12,-61 138.92,-61 138.92,-61"/>
<polygon fill="none" stroke="black" points="103.12,-57.5 113.12,-61 103.12,-64.5 103.12,-57.5"/>
<text text-anchor="middle" x="124.12" y="-64.8" font-family="Times,serif" font-size="14.00">OUT1</text>
</g>
<!-- inter_140455899418832_OUT1&#45;&gt;node_140455899418976 -->
<g id="edge5" class="edge">
<title>inter_140455899418832_OUT1&#45;&gt;node_140455899418976</title>
<path fill="none" stroke="black" d="M139.95,-61C139.95,-61 165.7,-61 165.7,-61"/>
<polygon fill="black" stroke="black" points="165.7,-64.5 175.7,-61 165.7,-57.5 165.7,-64.5"/>
<text text-anchor="middle" x="162.2" y="-49.8" font-family="Times,serif" font-size="14.00">IN2</text>
</g>
<!-- inter_140455899418976_OUT1 -->
<g id="node8" class="node">
<title>inter_140455899418976_OUT1</title>
<ellipse fill="black" stroke="black" cx="324.08" cy="-70" rx="0.36" ry="0.36"/>
</g>
<!-- node_140455899418976&#45;&gt;inter_140455899418976_OUT1 -->
<g id="edge6" class="edge">
<title>node_140455899418976&#45;&gt;inter_140455899418976_OUT1</title>
<path fill="none" stroke="black" d="M297.84,-70C297.84,-70 323.65,-70 323.65,-70"/>
<polygon fill="none" stroke="black" points="287.84,-66.5 297.84,-70 287.84,-73.5 287.84,-66.5"/>
<text text-anchor="middle" x="308.84" y="-73.8" font-family="Times,serif" font-size="14.00">OUT1</text>
</g>
<!-- node_140455899419504 -->
<g id="node12" class="node">
<title>node_140455899419504</title>
<polygon fill="none" stroke="black" points="458.44,-89 360.44,-89 360.44,-51 458.44,-51 458.44,-89"/>
<text text-anchor="middle" x="409.44" y="-73.8" font-family="Times,serif" font-size="14.00">AdderBlock</text>
<text text-anchor="middle" x="409.44" y="-58.8" font-family="Times,serif" font-size="14.00">(sumState)</text>
</g>
<!-- inter_140455899418976_OUT1&#45;&gt;node_140455899419504 -->
<g id="edge10" class="edge">
<title>inter_140455899418976_OUT1&#45;&gt;node_140455899419504</title>
<path fill="none" stroke="black" d="M324.63,-70C324.63,-70 350.25,-70 350.25,-70"/>
<polygon fill="black" stroke="black" points="350.25,-73.5 360.25,-70 350.25,-66.5 350.25,-73.5"/>
<text text-anchor="middle" x="346.75" y="-58.8" font-family="Times,serif" font-size="14.00">IN1</text>
</g>
<!-- inter_140455899419024_OUT1 -->
<g id="node11" class="node">
<title>inter_140455899419024_OUT1</title>
<ellipse fill="black" stroke="black" cx="671.8" cy="-51" rx="0.36" ry="0.36"/>
</g>
<!-- node_140455899419024&#45;&gt;inter_140455899419024_OUT1 -->
<g id="edge9" class="edge">
<title>node_140455899419024&#45;&gt;inter_140455899419024_OUT1</title>
<path fill="none" stroke="black" d="M645.56,-19C645.56,-19 672.16,-19 672.16,-19 672.16,-19 672.16,-49.03 672.16,-50.91"/>
<polygon fill="none" stroke="black" points="635.56,-15.5 645.56,-19 635.56,-22.5 635.56,-15.5"/>
<text text-anchor="middle" x="656.56" y="-7.8" font-family="Times,serif" font-size="14.00">OUT1</text>
</g>
<!-- inter_140455899419504_OUT1 -->
<g id="node10" class="node">
<title>inter_140455899419504_OUT1</title>
<ellipse fill="black" stroke="black" cx="494.94" cy="-56" rx="0.36" ry="0.36"/>
</g>
<!-- inter_140455899419504_OUT1&#45;&gt;node_140455899419024 -->
<g id="edge7" class="edge">
<title>inter_140455899419504_OUT1&#45;&gt;node_140455899419024</title>
<path fill="none" stroke="black" d="M495.16,-55.67C495.16,-52.43 495.16,-26.5 495.16,-26.5 495.16,-26.5 521.32,-26.5 521.32,-26.5"/>
<polygon fill="black" stroke="black" points="521.32,-30 531.32,-26.5 521.32,-23 521.32,-30"/>
<text text-anchor="middle" x="517.82" y="-30.3" font-family="Times,serif" font-size="14.00">IN1</text>
</g>
<!-- node_140455899420320_OUT1 -->
<g id="node13" class="node">
<title>node_140455899420320_OUT1</title>
<ellipse fill="black" stroke="black" cx="583.44" cy="-56" rx="0.36" ry="0.36"/>
</g>
<!-- inter_140455899419504_OUT1&#45;&gt;node_140455899420320_OUT1 -->
<g id="edge13" class="edge">
<title>inter_140455899419504_OUT1&#45;&gt;node_140455899420320_OUT1</title>
<path fill="none" stroke="black" d="M495.51,-56C495.51,-56 572.93,-56 572.93,-56"/>
<polygon fill="none" stroke="black" points="572.93,-59.5 582.93,-56 572.93,-52.5 572.93,-59.5"/>
<text text-anchor="middle" x="561.93" y="-44.8" font-family="Times,serif" font-size="14.00">OUT1</text>
</g>
<!-- inter_140455899419024_OUT1&#45;&gt;node_140455899419504 -->
<g id="edge11" class="edge">
<title>inter_140455899419024_OUT1&#45;&gt;node_140455899419504</title>
<path fill="none" stroke="black" d="M671.75,-51.5C671.75,-51.5 468.72,-51.5 468.72,-51.5"/>
<polygon fill="black" stroke="black" points="468.72,-48 458.72,-51.5 468.72,-55 468.72,-48"/>
<text text-anchor="middle" x="445.22" y="-40.3" font-family="Times,serif" font-size="14.00">IN2</text>
</g>
<!-- node_140455899419504&#45;&gt;inter_140455899419504_OUT1 -->
<g id="edge12" class="edge">
<title>node_140455899419504&#45;&gt;inter_140455899419504_OUT1</title>
<path fill="none" stroke="black" d="M468.68,-56C468.68,-56 494.5,-56 494.5,-56"/>
<polygon fill="none" stroke="black" points="458.68,-52.5 468.68,-56 458.68,-59.5 458.68,-52.5"/>
<text text-anchor="middle" x="479.68" y="-59.8" font-family="Times,serif" font-size="14.00">OUT1</text>
</g>
</g>
</svg>
