<?xml version="1.0" encoding="UTF-8" standalone="no"?>
<!DOCTYPE svg PUBLIC "-//W3C//DTD SVG 1.1//EN"
 "http://www.w3.org/Graphics/SVG/1.1/DTD/svg11.dtd">
<!-- Generated by graphviz version 2.43.0 (0)
 -->
<!-- Title: model Pages: 1 -->
<svg width="759pt" height="224pt"
 viewBox="0.00 0.00 759.34 224.48" xmlns="http://www.w3.org/2000/svg" xmlns:xlink="http://www.w3.org/1999/xlink">
<g id="graph0" class="graph" transform="scale(1 1) rotate(0) translate(4 220.48)">
<title>model</title>
<polygon fill="white" stroke="transparent" points="-4,4 -4,-220.48 755.34,-220.48 755.34,4 -4,4"/>
<text text-anchor="start" x="186.17" y="-197.48" font-family="Times,serif" font-weight="bold" font-size="20.00">integrator (ForwardEulerMethod)</text>
<!-- node_139806839215728_IN1 -->
<g id="node1" class="node">
<title>node_139806839215728_IN1</title>
<ellipse fill="black" stroke="black" cx="88.39" cy="-93" rx="0.36" ry="0.36"/>
</g>
<!-- inter_139806839215728_IN1 -->
<g id="node2" class="node">
<title>inter_139806839215728_IN1</title>
<ellipse fill="black" stroke="black" cx="213.14" cy="-84" rx="0.36" ry="0.36"/>
</g>
<!-- node_139806839215728_IN1&#45;&gt;inter_139806839215728_IN1 -->
<g id="edge1" class="edge">
<title>node_139806839215728_IN1&#45;&gt;inter_139806839215728_IN1</title>
<path fill="none" stroke="black" d="M88.94,-84.89C88.94,-84.89 88.94,-84 88.94,-84 88.94,-84 201.77,-84 212.34,-84"/>
<polygon fill="black" stroke="black" points="85.44,-92.9 88.94,-82.9 92.44,-92.9 85.44,-92.9"/>
<text text-anchor="middle" x="75.44" y="-81.7" font-family="Times,serif" font-size="14.00">IN1</text>
</g>
<!-- node_139806839215392 -->
<g id="node9" class="node">
<title>node_139806839215392</title>
<polygon fill="none" stroke="black" points="361.5,-89 249.5,-89 249.5,-51 361.5,-51 361.5,-89"/>
<text text-anchor="middle" x="305.5" y="-73.8" font-family="Times,serif" font-size="14.00">ProductBlock</text>
<text text-anchor="middle" x="305.5" y="-58.8" font-family="Times,serif" font-size="14.00">(multDelta)</text>
</g>
<!-- inter_139806839215728_IN1&#45;&gt;node_139806839215392 -->
<g id="edge5" class="edge">
<title>inter_139806839215728_IN1&#45;&gt;node_139806839215392</title>
<path fill="none" stroke="black" d="M213.73,-84C213.73,-84 239.48,-84 239.48,-84"/>
<polygon fill="black" stroke="black" points="239.48,-87.5 249.48,-84 239.48,-80.5 239.48,-87.5"/>
<text text-anchor="middle" x="235.98" y="-72.8" font-family="Times,serif" font-size="14.00">IN1</text>
</g>
<!-- node_139806839215728_IC -->
<g id="node3" class="node">
<title>node_139806839215728_IC</title>
<ellipse fill="black" stroke="black" cx="483.22" cy="-19" rx="0.36" ry="0.36"/>
</g>
<!-- inter_139806839215728_IC -->
<g id="node4" class="node">
<title>inter_139806839215728_IC</title>
<ellipse fill="black" stroke="black" cx="568.72" cy="-19" rx="0.36" ry="0.36"/>
</g>
<!-- node_139806839215728_IC&#45;&gt;inter_139806839215728_IC -->
<g id="edge2" class="edge">
<title>node_139806839215728_IC&#45;&gt;inter_139806839215728_IC</title>
<path fill="none" stroke="black" d="M493.76,-19C493.76,-19 568.22,-19 568.22,-19"/>
<polygon fill="black" stroke="black" points="483.76,-15.5 493.76,-19 483.76,-22.5 483.76,-15.5"/>
<text text-anchor="middle" x="475.76" y="-7.8" font-family="Times,serif" font-size="14.00">IC</text>
</g>
<!-- node_139806839214960 -->
<g id="node11" class="node">
<title>node_139806839214960</title>
<polygon fill="none" stroke="black" points="709.22,-38 605.22,-38 605.22,0 709.22,0 709.22,-38"/>
<text text-anchor="middle" x="657.22" y="-22.8" font-family="Times,serif" font-size="14.00">DelayBlock</text>
<text text-anchor="middle" x="657.22" y="-7.8" font-family="Times,serif" font-size="14.00">(delayState)</text>
</g>
<!-- inter_139806839215728_IC&#45;&gt;node_139806839214960 -->
<g id="edge9" class="edge">
<title>inter_139806839215728_IC&#45;&gt;node_139806839214960</title>
<path fill="none" stroke="black" d="M569.28,-19C569.28,-19 594.75,-19 594.75,-19"/>
<polygon fill="black" stroke="black" points="594.75,-22.5 604.75,-19 594.75,-15.5 594.75,-22.5"/>
<text text-anchor="middle" x="596.75" y="-7.8" font-family="Times,serif" font-size="14.00">IC</text>
</g>
<!-- node_139806839216448 -->
<g id="node5" class="node">
<title>node_139806839216448</title>
<ellipse fill="none" stroke="black" cx="88.39" cy="-149" rx="88.28" ry="37.45"/>
<text text-anchor="middle" x="88.39" y="-160.3" font-family="Times,serif" font-size="14.00"> ConstantBlock</text>
<text text-anchor="middle" x="88.39" y="-145.3" font-family="Times,serif" font-size="14.00">(zero)</text>
<text text-anchor="middle" x="88.39" y="-130.3" font-family="Times,serif" font-size="14.00">0</text>
</g>
<!-- inter_139806839216448_OUT1 -->
<g id="node6" class="node">
<title>inter_139806839216448_OUT1</title>
<ellipse fill="black" stroke="black" cx="213.14" cy="-149" rx="0.36" ry="0.36"/>
</g>
<!-- node_139806839216448&#45;&gt;inter_139806839216448_OUT1 -->
<g id="edge3" class="edge">
<title>node_139806839216448&#45;&gt;inter_139806839216448_OUT1</title>
<path fill="none" stroke="black" d="M187.05,-149C187.05,-149 212.73,-149 212.73,-149"/>
<polygon fill="none" stroke="black" points="177.05,-145.5 187.05,-149 177.05,-152.5 177.05,-145.5"/>
<text text-anchor="middle" x="198.05" y="-152.8" font-family="Times,serif" font-size="14.00">OUT1</text>
</g>
<!-- node_139806839216016 -->
<g id="node7" class="node">
<title>node_139806839216016</title>
<polygon fill="none" stroke="black" points="139.89,-75 36.89,-75 36.89,-37 139.89,-37 139.89,-75"/>
<text text-anchor="middle" x="88.39" y="-59.8" font-family="Times,serif" font-size="14.00">DeltaTBlock</text>
<text text-anchor="middle" x="88.39" y="-44.8" font-family="Times,serif" font-size="14.00">(delta_t)</text>
</g>
<!-- inter_139806839216016_OUT1 -->
<g id="node8" class="node">
<title>inter_139806839216016_OUT1</title>
<ellipse fill="black" stroke="black" cx="213.14" cy="-61" rx="0.36" ry="0.36"/>
</g>
<!-- node_139806839216016&#45;&gt;inter_139806839216016_OUT1 -->
<g id="edge4" class="edge">
<title>node_139806839216016&#45;&gt;inter_139806839216016_OUT1</title>
<path fill="none" stroke="black" d="M150.21,-61C150.21,-61 212.69,-61 212.69,-61"/>
<polygon fill="none" stroke="black" points="140.21,-57.5 150.21,-61 140.21,-64.5 140.21,-57.5"/>
<text text-anchor="middle" x="161.21" y="-49.8" font-family="Times,serif" font-size="14.00">OUT1</text>
</g>
<!-- inter_139806839216016_OUT1&#45;&gt;node_139806839215392 -->
<g id="edge6" class="edge">
<title>inter_139806839216016_OUT1&#45;&gt;node_139806839215392</title>
<path fill="none" stroke="black" d="M213.73,-61C213.73,-61 239.48,-61 239.48,-61"/>
<polygon fill="black" stroke="black" points="239.48,-64.5 249.48,-61 239.48,-57.5 239.48,-64.5"/>
<text text-anchor="middle" x="235.98" y="-49.8" font-family="Times,serif" font-size="14.00">IN2</text>
</g>
<!-- inter_139806839215392_OUT1 -->
<g id="node10" class="node">
<title>inter_139806839215392_OUT1</title>
<ellipse fill="black" stroke="black" cx="397.86" cy="-70" rx="0.36" ry="0.36"/>
</g>
<!-- node_139806839215392&#45;&gt;inter_139806839215392_OUT1 -->
<g id="edge7" class="edge">
<title>node_139806839215392&#45;&gt;inter_139806839215392_OUT1</title>
<path fill="none" stroke="black" d="M371.62,-70C371.62,-70 397.42,-70 397.42,-70"/>
<polygon fill="none" stroke="black" points="361.62,-66.5 371.62,-70 361.62,-73.5 361.62,-66.5"/>
<text text-anchor="middle" x="382.62" y="-58.8" font-family="Times,serif" font-size="14.00">OUT1</text>
</g>
<!-- node_139806658413040 -->
<g id="node14" class="node">
<title>node_139806658413040</title>
<polygon fill="none" stroke="black" points="532.22,-89 434.22,-89 434.22,-51 532.22,-51 532.22,-89"/>
<text text-anchor="middle" x="483.22" y="-73.8" font-family="Times,serif" font-size="14.00">AdderBlock</text>
<text text-anchor="middle" x="483.22" y="-58.8" font-family="Times,serif" font-size="14.00">(sumState)</text>
</g>
<!-- inter_139806839215392_OUT1&#45;&gt;node_139806658413040 -->
<g id="edge11" class="edge">
<title>inter_139806839215392_OUT1&#45;&gt;node_139806658413040</title>
<path fill="none" stroke="black" d="M398.4,-70C398.4,-70 424.03,-70 424.03,-70"/>
<polygon fill="black" stroke="black" points="424.03,-73.5 434.03,-70 424.03,-66.5 424.03,-73.5"/>
<text text-anchor="middle" x="420.53" y="-58.8" font-family="Times,serif" font-size="14.00">IN1</text>
</g>
<!-- inter_139806839214960_OUT1 -->
<g id="node13" class="node">
<title>inter_139806839214960_OUT1</title>
<ellipse fill="black" stroke="black" cx="745.58" cy="-51" rx="0.36" ry="0.36"/>
</g>
<!-- node_139806839214960&#45;&gt;inter_139806839214960_OUT1 -->
<g id="edge10" class="edge">
<title>node_139806839214960&#45;&gt;inter_139806839214960_OUT1</title>
<path fill="none" stroke="black" d="M719.34,-19C719.34,-19 745.94,-19 745.94,-19 745.94,-19 745.94,-49.03 745.94,-50.91"/>
<polygon fill="none" stroke="black" points="709.34,-15.5 719.34,-19 709.34,-22.5 709.34,-15.5"/>
<text text-anchor="middle" x="730.34" y="-7.8" font-family="Times,serif" font-size="14.00">OUT1</text>
</g>
<!-- inter_139806658413040_OUT1 -->
<g id="node12" class="node">
<title>inter_139806658413040_OUT1</title>
<ellipse fill="black" stroke="black" cx="568.72" cy="-56" rx="0.36" ry="0.36"/>
</g>
<!-- inter_139806658413040_OUT1&#45;&gt;node_139806839214960 -->
<g id="edge8" class="edge">
<title>inter_139806658413040_OUT1&#45;&gt;node_139806839214960</title>
<path fill="none" stroke="black" d="M568.94,-55.69C568.94,-52.67 568.94,-28.5 568.94,-28.5 568.94,-28.5 595.1,-28.5 595.1,-28.5"/>
<polygon fill="black" stroke="black" points="595.1,-32 605.1,-28.5 595.1,-25 595.1,-32"/>
<text text-anchor="middle" x="591.6" y="-32.3" font-family="Times,serif" font-size="14.00">IN1</text>
</g>
<!-- node_139806839215728_OUT1 -->
<g id="node15" class="node">
<title>node_139806839215728_OUT1</title>
<ellipse fill="black" stroke="black" cx="657.22" cy="-56" rx="0.36" ry="0.36"/>
</g>
<!-- inter_139806658413040_OUT1&#45;&gt;node_139806839215728_OUT1 -->
<g id="edge14" class="edge">
<title>inter_139806658413040_OUT1&#45;&gt;node_139806839215728_OUT1</title>
<path fill="none" stroke="black" d="M569.28,-56C569.28,-56 646.7,-56 646.7,-56"/>
<polygon fill="none" stroke="black" points="646.7,-59.5 656.7,-56 646.7,-52.5 646.7,-59.5"/>
<text text-anchor="middle" x="635.7" y="-44.8" font-family="Times,serif" font-size="14.00">OUT1</text>
</g>
<!-- inter_139806839214960_OUT1&#45;&gt;node_139806658413040 -->
<g id="edge12" class="edge">
<title>inter_139806839214960_OUT1&#45;&gt;node_139806658413040</title>
<path fill="none" stroke="black" d="M745.53,-51.5C745.53,-51.5 542.49,-51.5 542.49,-51.5"/>
<polygon fill="black" stroke="black" points="542.49,-48 532.49,-51.5 542.49,-55 542.49,-48"/>
<text text-anchor="middle" x="545.99" y="-40.3" font-family="Times,serif" font-size="14.00">IN2</text>
</g>
<!-- node_139806658413040&#45;&gt;inter_139806658413040_OUT1 -->
<g id="edge13" class="edge">
<title>node_139806658413040&#45;&gt;inter_139806658413040_OUT1</title>
<path fill="none" stroke="black" d="M542.46,-56C542.46,-56 568.27,-56 568.27,-56"/>
<polygon fill="none" stroke="black" points="532.46,-52.5 542.46,-56 532.46,-59.5 532.46,-52.5"/>
<text text-anchor="middle" x="553.46" y="-59.8" font-family="Times,serif" font-size="14.00">OUT1</text>
</g>
</g>
</svg>
