<?xml version="1.0" encoding="UTF-8" standalone="no"?>
<!DOCTYPE svg PUBLIC "-//W3C//DTD SVG 1.1//EN"
 "http://www.w3.org/Graphics/SVG/1.1/DTD/svg11.dtd">
<!-- Generated by graphviz version 3.0.0 (20220226.1711)
 -->
<!-- Title: model Pages: 1 -->
<svg width="925pt" height="208pt"
 viewBox="0.00 0.00 924.83 207.88" xmlns="http://www.w3.org/2000/svg" xmlns:xlink="http://www.w3.org/1999/xlink">
<g id="graph0" class="graph" transform="scale(1 1) rotate(0) translate(4 203.88)">
<title>model</title>
<polygon fill="white" stroke="transparent" points="-4,4 -4,-203.88 920.83,-203.88 920.83,4 -4,4"/>
<text text-anchor="start" x="413.42" y="-180.88" font-family="Times,serif" font-weight="bold" font-size="20.00">G_T (G_t)</text>
<!-- node_4343972432_IN1 -->
<g id="node1" class="node">
<title>node_4343972432_IN1</title>
<ellipse fill="black" stroke="black" cx="71.42" cy="-161.48" rx="0.36" ry="0.36"/>
</g>
<!-- inter_4343972432_IN1 -->
<g id="node2" class="node">
<title>inter_4343972432_IN1</title>
<ellipse fill="black" stroke="black" cx="179.2" cy="-158.48" rx="0.36" ry="0.36"/>
</g>
<!-- node_4343972432_IN1&#45;&gt;inter_4343972432_IN1 -->
<g id="edge1" class="edge">
<title>node_4343972432_IN1&#45;&gt;inter_4343972432_IN1</title>
<path fill="none" stroke="black" d="M71.83,-158.76C71.83,-158.76 71.83,-158.48 71.83,-158.48 71.83,-158.48 169.37,-158.48 178.51,-158.48"/>
<polygon fill="black" stroke="black" points="68.33,-161.35 71.83,-151.35 75.33,-161.35 68.33,-161.35"/>
<text text-anchor="middle" x="60.83" y="-150.15" font-family="Times,serif" font-size="14.00">IN1</text>
</g>
<!-- node_11493759296 -->
<g id="node7" class="node">
<title>node_11493759296</title>
<polygon fill="none" stroke="black" points="328.47,-130.48 245.47,-130.48 245.47,-92.48 328.47,-92.48 328.47,-130.48"/>
<text text-anchor="middle" x="286.97" y="-115.28" font-family="Times,serif" font-size="14.00">PowerBlock</text>
<text text-anchor="middle" x="286.97" y="-100.28" font-family="Times,serif" font-size="14.00">(power)</text>
</g>
<!-- inter_4343972432_IN1&#45;&gt;node_11493759296 -->
<g id="edge4" class="edge">
<title>inter_4343972432_IN1&#45;&gt;node_11493759296</title>
<path fill="none" stroke="black" d="M179.83,-158.37C179.83,-156.14 179.83,-120.48 179.83,-120.48 179.83,-120.48 235.24,-120.48 235.24,-120.48"/>
<polygon fill="black" stroke="black" points="235.24,-123.98 245.24,-120.48 235.24,-116.98 235.24,-123.98"/>
<text text-anchor="middle" x="234.24" y="-124.28" font-family="Times,serif" font-size="14.00">IN1</text>
</g>
<!-- node_11493760400 -->
<g id="node9" class="node">
<title>node_11493760400</title>
<polygon fill="none" stroke="black" points="843.39,-154.48 752.39,-154.48 752.39,-116.48 843.39,-116.48 843.39,-154.48"/>
<text text-anchor="middle" x="797.89" y="-139.28" font-family="Times,serif" font-size="14.00">ProductBlock</text>
<text text-anchor="middle" x="797.89" y="-124.28" font-family="Times,serif" font-size="14.00">(multi)</text>
</g>
<!-- inter_4343972432_IN1&#45;&gt;node_11493760400 -->
<g id="edge8" class="edge">
<title>inter_4343972432_IN1&#45;&gt;node_11493760400</title>
<path fill="none" stroke="black" d="M179.64,-158.48C198.41,-158.48 798.83,-158.48 798.83,-158.48 798.83,-158.48 798.83,-158.12 798.83,-158.12"/>
<polygon fill="black" stroke="black" points="802.33,-164.88 798.83,-154.88 795.33,-164.88 802.33,-164.88"/>
<text text-anchor="middle" x="787.83" y="-158.68" font-family="Times,serif" font-size="14.00">IN2</text>
</g>
<!-- node_4953486000 -->
<g id="node3" class="node">
<title>node_4953486000</title>
<ellipse fill="none" stroke="black" cx="286.97" cy="-37.48" rx="71.34" ry="37.45"/>
<text text-anchor="middle" x="286.97" y="-48.78" font-family="Times,serif" font-size="14.00"> ConstantBlock</text>
<text text-anchor="middle" x="286.97" y="-33.78" font-family="Times,serif" font-size="14.00">(one)</text>
<text text-anchor="middle" x="286.97" y="-18.78" font-family="Times,serif" font-size="14.00">1</text>
</g>
<!-- inter_4953486000_OUT1 -->
<g id="node4" class="node">
<title>inter_4953486000_OUT1</title>
<ellipse fill="black" stroke="black" cx="394.89" cy="-65.48" rx="0.36" ry="0.36"/>
</g>
<!-- node_4953486000&#45;&gt;inter_4953486000_OUT1 -->
<g id="edge2" class="edge">
<title>node_4953486000&#45;&gt;inter_4953486000_OUT1</title>
<path fill="none" stroke="black" d="M344.62,-65.48C344.62,-65.48 394.09,-65.48 394.09,-65.48"/>
<polygon fill="none" stroke="black" points="334.62,-61.98 344.62,-65.48 334.62,-68.98 334.62,-61.98"/>
<text text-anchor="middle" x="352.12" y="-69.28" font-family="Times,serif" font-size="14.00">OUT1</text>
</g>
<!-- node_11493778192 -->
<g id="node14" class="node">
<title>node_11493778192</title>
<polygon fill="none" stroke="black" points="514.39,-130.48 431.39,-130.48 431.39,-92.48 514.39,-92.48 514.39,-130.48"/>
<text text-anchor="middle" x="472.89" y="-115.28" font-family="Times,serif" font-size="14.00">AdderBlock</text>
<text text-anchor="middle" x="472.89" y="-100.28" font-family="Times,serif" font-size="14.00">(sum)</text>
</g>
<!-- inter_4953486000_OUT1&#45;&gt;node_11493778192 -->
<g id="edge13" class="edge">
<title>inter_4953486000_OUT1&#45;&gt;node_11493778192</title>
<path fill="none" stroke="black" d="M395.83,-65.58C395.83,-67.69 395.83,-101.48 395.83,-101.48 395.83,-101.48 421.2,-101.48 421.2,-101.48"/>
<polygon fill="black" stroke="black" points="421.2,-104.98 431.2,-101.48 421.2,-97.98 421.2,-104.98"/>
<text text-anchor="middle" x="420.2" y="-90.28" font-family="Times,serif" font-size="14.00">IN2</text>
</g>
<!-- node_11493759152 -->
<g id="node5" class="node">
<title>node_11493759152</title>
<ellipse fill="none" stroke="black" cx="71.42" cy="-105.48" rx="71.34" ry="37.45"/>
<text text-anchor="middle" x="71.42" y="-116.78" font-family="Times,serif" font-size="14.00"> ConstantBlock</text>
<text text-anchor="middle" x="71.42" y="-101.78" font-family="Times,serif" font-size="14.00">(two)</text>
<text text-anchor="middle" x="71.42" y="-86.78" font-family="Times,serif" font-size="14.00">2</text>
</g>
<!-- inter_11493759152_OUT1 -->
<g id="node6" class="node">
<title>inter_11493759152_OUT1</title>
<ellipse fill="black" stroke="black" cx="179.2" cy="-109.48" rx="0.36" ry="0.36"/>
</g>
<!-- node_11493759152&#45;&gt;inter_11493759152_OUT1 -->
<g id="edge3" class="edge">
<title>node_11493759152&#45;&gt;inter_11493759152_OUT1</title>
<path fill="none" stroke="black" d="M152.71,-109.48C152.71,-109.48 178.77,-109.48 178.77,-109.48"/>
<polygon fill="none" stroke="black" points="142.71,-105.98 152.71,-109.48 142.71,-112.98 142.71,-105.98"/>
<text text-anchor="middle" x="160.21" y="-98.28" font-family="Times,serif" font-size="14.00">OUT1</text>
</g>
<!-- inter_11493759152_OUT1&#45;&gt;node_11493759296 -->
<g id="edge5" class="edge">
<title>inter_11493759152_OUT1&#45;&gt;node_11493759296</title>
<path fill="none" stroke="black" d="M179.88,-109.48C179.88,-109.48 235.21,-109.48 235.21,-109.48"/>
<polygon fill="black" stroke="black" points="235.21,-112.98 245.21,-109.48 235.21,-105.98 235.21,-112.98"/>
<text text-anchor="middle" x="234.21" y="-98.28" font-family="Times,serif" font-size="14.00">IN2</text>
</g>
<!-- inter_11493759296_OUT1 -->
<g id="node8" class="node">
<title>inter_11493759296_OUT1</title>
<ellipse fill="black" stroke="black" cx="394.89" cy="-111.48" rx="0.36" ry="0.36"/>
</g>
<!-- node_11493759296&#45;&gt;inter_11493759296_OUT1 -->
<g id="edge6" class="edge">
<title>node_11493759296&#45;&gt;inter_11493759296_OUT1</title>
<path fill="none" stroke="black" d="M338.7,-111.48C338.7,-111.48 394.48,-111.48 394.48,-111.48"/>
<polygon fill="none" stroke="black" points="328.7,-107.98 338.7,-111.48 328.7,-114.98 328.7,-107.98"/>
<text text-anchor="middle" x="346.2" y="-100.28" font-family="Times,serif" font-size="14.00">OUT1</text>
</g>
<!-- inter_11493759296_OUT1&#45;&gt;node_11493778192 -->
<g id="edge12" class="edge">
<title>inter_11493759296_OUT1&#45;&gt;node_11493778192</title>
<path fill="none" stroke="black" d="M395.39,-111.48C395.39,-111.48 420.97,-111.48 420.97,-111.48"/>
<polygon fill="black" stroke="black" points="420.97,-114.98 430.97,-111.48 420.97,-107.98 420.97,-114.98"/>
<text text-anchor="middle" x="419.97" y="-115.28" font-family="Times,serif" font-size="14.00">IN1</text>
</g>
<!-- inter_11493760400_OUT1 -->
<g id="node11" class="node">
<title>inter_11493760400_OUT1</title>
<ellipse fill="black" stroke="black" cx="879.75" cy="-135.48" rx="0.36" ry="0.36"/>
</g>
<!-- node_11493760400&#45;&gt;inter_11493760400_OUT1 -->
<g id="edge9" class="edge">
<title>node_11493760400&#45;&gt;inter_11493760400_OUT1</title>
<path fill="none" stroke="black" d="M853.61,-135.48C853.61,-135.48 879.31,-135.48 879.31,-135.48"/>
<polygon fill="none" stroke="black" points="843.61,-131.98 853.61,-135.48 843.61,-138.98 843.61,-131.98"/>
<text text-anchor="middle" x="861.11" y="-124.28" font-family="Times,serif" font-size="14.00">OUT1</text>
</g>
<!-- inter_11493759968_OUT1 -->
<g id="node10" class="node">
<title>inter_11493759968_OUT1</title>
<ellipse fill="black" stroke="black" cx="715.89" cy="-121.48" rx="0.36" ry="0.36"/>
</g>
<!-- inter_11493759968_OUT1&#45;&gt;node_11493760400 -->
<g id="edge7" class="edge">
<title>inter_11493759968_OUT1&#45;&gt;node_11493760400</title>
<path fill="none" stroke="black" d="M716.41,-121.48C716.41,-121.48 742,-121.48 742,-121.48"/>
<polygon fill="black" stroke="black" points="742,-124.98 752,-121.48 742,-117.98 742,-124.98"/>
<text text-anchor="middle" x="741" y="-110.28" font-family="Times,serif" font-size="14.00">IN1</text>
</g>
<!-- node_4343972432_OUT1 -->
<g id="node15" class="node">
<title>node_4343972432_OUT1</title>
<ellipse fill="black" stroke="black" cx="916.47" cy="-135.48" rx="0.36" ry="0.36"/>
</g>
<!-- inter_11493760400_OUT1&#45;&gt;node_4343972432_OUT1 -->
<g id="edge15" class="edge">
<title>inter_11493760400_OUT1&#45;&gt;node_4343972432_OUT1</title>
<path fill="none" stroke="black" d="M880.16,-135.48C880.16,-135.48 906.11,-135.48 906.11,-135.48"/>
<polygon fill="none" stroke="black" points="906.11,-138.98 916.11,-135.48 906.11,-131.98 906.11,-138.98"/>
<text text-anchor="middle" x="898.61" y="-124.28" font-family="Times,serif" font-size="14.00">OUT1</text>
</g>
<!-- node_11493759968 -->
<g id="node12" class="node">
<title>node_11493759968</title>
<polygon fill="none" stroke="black" points="679.39,-130.48 587.39,-130.48 587.39,-92.48 679.39,-92.48 679.39,-130.48"/>
<text text-anchor="middle" x="633.39" y="-115.28" font-family="Times,serif" font-size="14.00">InverterBlock</text>
<text text-anchor="middle" x="633.39" y="-100.28" font-family="Times,serif" font-size="14.00">(invert)</text>
</g>
<!-- node_11493759968&#45;&gt;inter_11493759968_OUT1 -->
<g id="edge11" class="edge">
<title>node_11493759968&#45;&gt;inter_11493759968_OUT1</title>
<path fill="none" stroke="black" d="M689.47,-121.48C689.47,-121.48 715.44,-121.48 715.44,-121.48"/>
<polygon fill="none" stroke="black" points="679.47,-117.98 689.47,-121.48 679.47,-124.98 679.47,-117.98"/>
<text text-anchor="middle" x="696.97" y="-110.28" font-family="Times,serif" font-size="14.00">OUT1</text>
</g>
<!-- inter_11493778192_OUT1 -->
<g id="node13" class="node">
<title>inter_11493778192_OUT1</title>
<ellipse fill="black" stroke="black" cx="550.89" cy="-111.48" rx="0.36" ry="0.36"/>
</g>
<!-- inter_11493778192_OUT1&#45;&gt;node_11493759968 -->
<g id="edge10" class="edge">
<title>inter_11493778192_OUT1&#45;&gt;node_11493759968</title>
<path fill="none" stroke="black" d="M551.42,-111.48C551.42,-111.48 577.22,-111.48 577.22,-111.48"/>
<polygon fill="black" stroke="black" points="577.22,-114.98 587.22,-111.48 577.22,-107.98 577.22,-114.98"/>
<text text-anchor="middle" x="576.22" y="-100.28" font-family="Times,serif" font-size="14.00">IN1</text>
</g>
<!-- node_11493778192&#45;&gt;inter_11493778192_OUT1 -->
<g id="edge14" class="edge">
<title>node_11493778192&#45;&gt;inter_11493778192_OUT1</title>
<path fill="none" stroke="black" d="M524.63,-111.48C524.63,-111.48 550.44,-111.48 550.44,-111.48"/>
<polygon fill="none" stroke="black" points="514.63,-107.98 524.63,-111.48 514.63,-114.98 514.63,-107.98"/>
<text text-anchor="middle" x="532.13" y="-100.28" font-family="Times,serif" font-size="14.00">OUT1</text>
</g>
</g>
</svg>
