<?xml version="1.0" encoding="UTF-8" standalone="no"?>
<!DOCTYPE svg PUBLIC "-//W3C//DTD SVG 1.1//EN"
 "http://www.w3.org/Graphics/SVG/1.1/DTD/svg11.dtd">
<!-- Generated by graphviz version 3.0.0 (20220226.1711)
 -->
<!-- Title: model Pages: 1 -->
<svg width="821pt" height="161pt"
 viewBox="0.00 0.00 820.72 161.36" xmlns="http://www.w3.org/2000/svg" xmlns:xlink="http://www.w3.org/1999/xlink">
<g id="graph0" class="graph" transform="scale(1 1) rotate(0) translate(4 157.36)">
<title>model</title>
<polygon fill="white" stroke="transparent" points="-4,4 -4,-157.36 816.72,-157.36 816.72,4 -4,4"/>
<text text-anchor="start" x="285.36" y="-134.36" font-family="Times,serif" font-weight="bold" font-size="20.00">integrator (IntegratorBlock)</text>
<!-- node_5218693472_IN1 -->
<g id="node1" class="node">
<title>node_5218693472_IN1</title>
<ellipse fill="black" stroke="black" cx="71.42" cy="-123" rx="0.36" ry="0.36"/>
</g>
<!-- inter_5218693472_IN1 -->
<g id="node2" class="node">
<title>inter_5218693472_IN1</title>
<ellipse fill="black" stroke="black" cx="179.2" cy="-113" rx="0.36" ry="0.36"/>
</g>
<!-- node_5218693472_IN1&#45;&gt;inter_5218693472_IN1 -->
<g id="edge1" class="edge">
<title>node_5218693472_IN1&#45;&gt;inter_5218693472_IN1</title>
<path fill="none" stroke="black" d="M82.11,-123C82.11,-123 179.72,-123 179.72,-123 179.72,-123 179.72,-114.21 179.72,-113.11"/>
<polygon fill="black" stroke="black" points="72.11,-119.5 82.11,-123 72.11,-126.5 72.11,-119.5"/>
<text text-anchor="middle" x="83.11" y="-111.8" font-family="Times,serif" font-size="14.00">IN1</text>
</g>
<!-- node_5218204160 -->
<g id="node9" class="node">
<title>node_5218204160</title>
<polygon fill="none" stroke="black" points="299.06,-118 218.06,-118 218.06,-80 299.06,-80 299.06,-118"/>
<text text-anchor="middle" x="258.56" y="-102.8" font-family="Times,serif" font-size="14.00">DelayBlock</text>
<text text-anchor="middle" x="258.56" y="-87.8" font-family="Times,serif" font-size="14.00">(delayIn)</text>
</g>
<!-- inter_5218693472_IN1&#45;&gt;node_5218204160 -->
<g id="edge5" class="edge">
<title>inter_5218693472_IN1&#45;&gt;node_5218204160</title>
<path fill="none" stroke="black" d="M179.7,-113C179.7,-113 207.68,-113 207.68,-113"/>
<polygon fill="black" stroke="black" points="207.68,-116.5 217.68,-113 207.68,-109.5 207.68,-116.5"/>
<text text-anchor="middle" x="206.68" y="-101.8" font-family="Times,serif" font-size="14.00">IN1</text>
</g>
<!-- node_5218693472_IC -->
<g id="node3" class="node">
<title>node_5218693472_IC</title>
<ellipse fill="black" stroke="black" cx="579.5" cy="-19" rx="0.36" ry="0.36"/>
</g>
<!-- inter_5218693472_IC -->
<g id="node4" class="node">
<title>inter_5218693472_IC</title>
<ellipse fill="black" stroke="black" cx="657.5" cy="-19" rx="0.36" ry="0.36"/>
</g>
<!-- node_5218693472_IC&#45;&gt;inter_5218693472_IC -->
<g id="edge2" class="edge">
<title>node_5218693472_IC&#45;&gt;inter_5218693472_IC</title>
<path fill="none" stroke="black" d="M589.99,-19C589.99,-19 657.04,-19 657.04,-19"/>
<polygon fill="black" stroke="black" points="579.99,-15.5 589.99,-19 579.99,-22.5 579.99,-15.5"/>
<text text-anchor="middle" x="572.99" y="-7.8" font-family="Times,serif" font-size="14.00">IC</text>
</g>
<!-- node_5219813456 -->
<g id="node13" class="node">
<title>node_5219813456</title>
<polygon fill="none" stroke="black" points="776,-38 694,-38 694,0 776,0 776,-38"/>
<text text-anchor="middle" x="735" y="-22.8" font-family="Times,serif" font-size="14.00">DelayBlock</text>
<text text-anchor="middle" x="735" y="-7.8" font-family="Times,serif" font-size="14.00">(delayState)</text>
</g>
<!-- inter_5218693472_IC&#45;&gt;node_5219813456 -->
<g id="edge12" class="edge">
<title>inter_5218693472_IC&#45;&gt;node_5219813456</title>
<path fill="none" stroke="black" d="M657.99,-19C657.99,-19 683.78,-19 683.78,-19"/>
<polygon fill="black" stroke="black" points="683.78,-22.5 693.78,-19 683.78,-15.5 683.78,-22.5"/>
<text text-anchor="middle" x="686.78" y="-7.8" font-family="Times,serif" font-size="14.00">IC</text>
</g>
<!-- node_5218694384 -->
<g id="node5" class="node">
<title>node_5218694384</title>
<ellipse fill="none" stroke="black" cx="71.42" cy="-67" rx="71.34" ry="37.45"/>
<text text-anchor="middle" x="71.42" y="-78.3" font-family="Times,serif" font-size="14.00"> ConstantBlock</text>
<text text-anchor="middle" x="71.42" y="-63.3" font-family="Times,serif" font-size="14.00">(zero)</text>
<text text-anchor="middle" x="71.42" y="-48.3" font-family="Times,serif" font-size="14.00">0</text>
</g>
<!-- inter_5218694384_OUT1 -->
<g id="node6" class="node">
<title>inter_5218694384_OUT1</title>
<ellipse fill="black" stroke="black" cx="179.2" cy="-85" rx="0.36" ry="0.36"/>
</g>
<!-- node_5218694384&#45;&gt;inter_5218694384_OUT1 -->
<g id="edge3" class="edge">
<title>node_5218694384&#45;&gt;inter_5218694384_OUT1</title>
<path fill="none" stroke="black" d="M144.11,-85C144.11,-85 178.65,-85 178.65,-85"/>
<polygon fill="none" stroke="black" points="134.11,-81.5 144.11,-85 134.11,-88.5 134.11,-81.5"/>
<text text-anchor="middle" x="151.61" y="-73.8" font-family="Times,serif" font-size="14.00">OUT1</text>
</g>
<!-- inter_5218694384_OUT1&#45;&gt;node_5218204160 -->
<g id="edge6" class="edge">
<title>inter_5218694384_OUT1&#45;&gt;node_5218204160</title>
<path fill="none" stroke="black" d="M179.7,-85C179.7,-85 207.68,-85 207.68,-85"/>
<polygon fill="black" stroke="black" points="207.68,-88.5 217.68,-85 207.68,-81.5 207.68,-88.5"/>
<text text-anchor="middle" x="210.68" y="-73.8" font-family="Times,serif" font-size="14.00">IC</text>
</g>
<!-- node_5218644992 -->
<g id="node7" class="node">
<title>node_5218644992</title>
<polygon fill="none" stroke="black" points="301.56,-62 215.56,-62 215.56,-24 301.56,-24 301.56,-62"/>
<text text-anchor="middle" x="258.56" y="-46.8" font-family="Times,serif" font-size="14.00">DeltaTBlock</text>
<text text-anchor="middle" x="258.56" y="-31.8" font-family="Times,serif" font-size="14.00">(delta_t)</text>
</g>
<!-- inter_5218644992_OUT1 -->
<g id="node8" class="node">
<title>inter_5218644992_OUT1</title>
<ellipse fill="black" stroke="black" cx="337.92" cy="-61" rx="0.36" ry="0.36"/>
</g>
<!-- node_5218644992&#45;&gt;inter_5218644992_OUT1 -->
<g id="edge4" class="edge">
<title>node_5218644992&#45;&gt;inter_5218644992_OUT1</title>
<path fill="none" stroke="black" d="M311.95,-61C311.95,-61 337.47,-61 337.47,-61"/>
<polygon fill="none" stroke="black" points="301.95,-57.5 311.95,-61 301.95,-64.5 301.95,-57.5"/>
<text text-anchor="middle" x="319.45" y="-49.8" font-family="Times,serif" font-size="14.00">OUT1</text>
</g>
<!-- node_5219954352 -->
<g id="node11" class="node">
<title>node_5219954352</title>
<polygon fill="none" stroke="black" points="465.28,-89 374.28,-89 374.28,-51 465.28,-51 465.28,-89"/>
<text text-anchor="middle" x="419.78" y="-73.8" font-family="Times,serif" font-size="14.00">ProductBlock</text>
<text text-anchor="middle" x="419.78" y="-58.8" font-family="Times,serif" font-size="14.00">(multDelta)</text>
</g>
<!-- inter_5218644992_OUT1&#45;&gt;node_5219954352 -->
<g id="edge9" class="edge">
<title>inter_5218644992_OUT1&#45;&gt;node_5219954352</title>
<path fill="none" stroke="black" d="M338.44,-61C338.44,-61 363.96,-61 363.96,-61"/>
<polygon fill="black" stroke="black" points="363.96,-64.5 373.96,-61 363.96,-57.5 363.96,-64.5"/>
<text text-anchor="middle" x="362.96" y="-49.8" font-family="Times,serif" font-size="14.00">IN2</text>
</g>
<!-- inter_5218204160_OUT1 -->
<g id="node10" class="node">
<title>inter_5218204160_OUT1</title>
<ellipse fill="black" stroke="black" cx="337.92" cy="-89" rx="0.36" ry="0.36"/>
</g>
<!-- node_5218204160&#45;&gt;inter_5218204160_OUT1 -->
<g id="edge7" class="edge">
<title>node_5218204160&#45;&gt;inter_5218204160_OUT1</title>
<path fill="none" stroke="black" d="M309.17,-89C309.17,-89 337.42,-89 337.42,-89"/>
<polygon fill="none" stroke="black" points="299.17,-85.5 309.17,-89 299.17,-92.5 299.17,-85.5"/>
<text text-anchor="middle" x="316.67" y="-77.8" font-family="Times,serif" font-size="14.00">OUT1</text>
</g>
<!-- inter_5218204160_OUT1&#45;&gt;node_5219954352 -->
<g id="edge8" class="edge">
<title>inter_5218204160_OUT1&#45;&gt;node_5219954352</title>
<path fill="none" stroke="black" d="M337.97,-88.5C337.97,-88.5 364.15,-88.5 364.15,-88.5"/>
<polygon fill="black" stroke="black" points="364.15,-92 374.15,-88.5 364.15,-85 364.15,-92"/>
<text text-anchor="middle" x="363.15" y="-77.3" font-family="Times,serif" font-size="14.00">IN1</text>
</g>
<!-- inter_5219954352_OUT1 -->
<g id="node12" class="node">
<title>inter_5219954352_OUT1</title>
<ellipse fill="black" stroke="black" cx="501.64" cy="-70" rx="0.36" ry="0.36"/>
</g>
<!-- node_5219954352&#45;&gt;inter_5219954352_OUT1 -->
<g id="edge10" class="edge">
<title>node_5219954352&#45;&gt;inter_5219954352_OUT1</title>
<path fill="none" stroke="black" d="M475.49,-70C475.49,-70 501.19,-70 501.19,-70"/>
<polygon fill="none" stroke="black" points="465.49,-66.5 475.49,-70 465.49,-73.5 465.49,-66.5"/>
<text text-anchor="middle" x="482.99" y="-58.8" font-family="Times,serif" font-size="14.00">OUT1</text>
</g>
<!-- node_10778131952 -->
<g id="node16" class="node">
<title>node_10778131952</title>
<polygon fill="none" stroke="black" points="621,-89 538,-89 538,-51 621,-51 621,-89"/>
<text text-anchor="middle" x="579.5" y="-73.8" font-family="Times,serif" font-size="14.00">AdderBlock</text>
<text text-anchor="middle" x="579.5" y="-58.8" font-family="Times,serif" font-size="14.00">(sumState)</text>
</g>
<!-- inter_5219954352_OUT1&#45;&gt;node_10778131952 -->
<g id="edge14" class="edge">
<title>inter_5219954352_OUT1&#45;&gt;node_10778131952</title>
<path fill="none" stroke="black" d="M502.13,-70C502.13,-70 527.65,-70 527.65,-70"/>
<polygon fill="black" stroke="black" points="527.65,-73.5 537.65,-70 527.65,-66.5 527.65,-73.5"/>
<text text-anchor="middle" x="526.65" y="-58.8" font-family="Times,serif" font-size="14.00">IN1</text>
</g>
<!-- inter_5219813456_OUT1 -->
<g id="node15" class="node">
<title>inter_5219813456_OUT1</title>
<ellipse fill="black" stroke="black" cx="812.36" cy="-51" rx="0.36" ry="0.36"/>
</g>
<!-- node_5219813456&#45;&gt;inter_5219813456_OUT1 -->
<g id="edge13" class="edge">
<title>node_5219813456&#45;&gt;inter_5219813456_OUT1</title>
<path fill="none" stroke="black" d="M756.72,-48.05C756.72,-48.05 756.72,-50.5 756.72,-50.5 756.72,-50.5 808.93,-50.5 812.2,-50.5"/>
<polygon fill="none" stroke="black" points="760.22,-38.05 756.72,-48.05 753.22,-38.05 760.22,-38.05"/>
<text text-anchor="middle" x="739.22" y="-41.85" font-family="Times,serif" font-size="14.00">OUT1</text>
</g>
<!-- inter_10778131952_OUT1 -->
<g id="node14" class="node">
<title>inter_10778131952_OUT1</title>
<ellipse fill="black" stroke="black" cx="657.5" cy="-56" rx="0.36" ry="0.36"/>
</g>
<!-- inter_10778131952_OUT1&#45;&gt;node_5219813456 -->
<g id="edge11" class="edge">
<title>inter_10778131952_OUT1&#45;&gt;node_5219813456</title>
<path fill="none" stroke="black" d="M657.72,-55.38C657.72,-51.53 657.72,-31 657.72,-31 657.72,-31 683.64,-31 683.64,-31"/>
<polygon fill="black" stroke="black" points="683.64,-34.5 693.64,-31 683.64,-27.5 683.64,-34.5"/>
<text text-anchor="middle" x="682.64" y="-34.8" font-family="Times,serif" font-size="14.00">IN1</text>
</g>
<!-- node_5218693472_OUT1 -->
<g id="node17" class="node">
<title>node_5218693472_OUT1</title>
<ellipse fill="black" stroke="black" cx="735" cy="-56" rx="0.36" ry="0.36"/>
</g>
<!-- inter_10778131952_OUT1&#45;&gt;node_5218693472_OUT1 -->
<g id="edge17" class="edge">
<title>inter_10778131952_OUT1&#45;&gt;node_5218693472_OUT1</title>
<path fill="none" stroke="black" d="M657.99,-56C657.99,-56 724.55,-56 724.55,-56"/>
<polygon fill="none" stroke="black" points="724.55,-59.5 734.55,-56 724.55,-52.5 724.55,-59.5"/>
<text text-anchor="middle" x="717.05" y="-59.8" font-family="Times,serif" font-size="14.00">OUT1</text>
</g>
<!-- inter_5219813456_OUT1&#45;&gt;node_10778131952 -->
<g id="edge15" class="edge">
<title>inter_5219813456_OUT1&#45;&gt;node_10778131952</title>
<path fill="none" stroke="black" d="M812.19,-51.5C812.19,-51.5 631.03,-51.5 631.03,-51.5"/>
<polygon fill="black" stroke="black" points="631.03,-48 621.03,-51.5 631.03,-55 631.03,-48"/>
<text text-anchor="middle" x="610.03" y="-40.3" font-family="Times,serif" font-size="14.00">IN2</text>
</g>
<!-- node_10778131952&#45;&gt;inter_10778131952_OUT1 -->
<g id="edge16" class="edge">
<title>node_10778131952&#45;&gt;inter_10778131952_OUT1</title>
<path fill="none" stroke="black" d="M631.24,-56C631.24,-56 657.04,-56 657.04,-56"/>
<polygon fill="none" stroke="black" points="621.24,-52.5 631.24,-56 621.24,-59.5 621.24,-52.5"/>
<text text-anchor="middle" x="638.74" y="-44.8" font-family="Times,serif" font-size="14.00">OUT1</text>
</g>
</g>
</svg>
