<?xml version="1.0" encoding="UTF-8" standalone="no"?>
<!DOCTYPE svg PUBLIC "-//W3C//DTD SVG 1.1//EN"
 "http://www.w3.org/Graphics/SVG/1.1/DTD/svg11.dtd">
<!-- Generated by graphviz version 3.0.0 (20220226.1711)
 -->
<!-- Title: model Pages: 1 -->
<svg width="2028pt" height="573pt"
 viewBox="0.00 0.00 2028.14 572.50" xmlns="http://www.w3.org/2000/svg" xmlns:xlink="http://www.w3.org/1999/xlink">
<g id="graph0" class="graph" transform="scale(1 1) rotate(0) translate(4 568.5)">
<title>model</title>
<polygon fill="white" stroke="transparent" points="-4,4 -4,-568.5 2024.14,-568.5 2024.14,4 -4,4"/>
<text text-anchor="start" x="858.07" y="-545.5" font-family="Times,serif" font-weight="bold" font-size="20.00">integrator (SimpsonOneThirdRule)</text>
<!-- node_5218695584_IN1 -->
<g id="node1" class="node">
<title>node_5218695584_IN1</title>
<ellipse fill="black" stroke="black" cx="71.42" cy="-421.5" rx="0.36" ry="0.36"/>
</g>
<!-- inter_5218695584_IN1 -->
<g id="node2" class="node">
<title>inter_5218695584_IN1</title>
<ellipse fill="black" stroke="black" cx="179.2" cy="-421.5" rx="0.36" ry="0.36"/>
</g>
<!-- node_5218695584_IN1&#45;&gt;inter_5218695584_IN1 -->
<g id="edge1" class="edge">
<title>node_5218695584_IN1&#45;&gt;inter_5218695584_IN1</title>
<path fill="none" stroke="black" d="M82.11,-421.5C82.11,-421.5 178.57,-421.5 178.57,-421.5"/>
<polygon fill="black" stroke="black" points="72.11,-418 82.11,-421.5 72.11,-425 72.11,-418"/>
<text text-anchor="middle" x="61.11" y="-410.3" font-family="Times,serif" font-size="14.00">IN1</text>
</g>
<!-- node_11888334160 -->
<g id="node15" class="node">
<title>node_11888334160</title>
<polygon fill="none" stroke="black" points="327.47,-393.5 246.47,-393.5 246.47,-355.5 327.47,-355.5 327.47,-393.5"/>
<text text-anchor="middle" x="286.97" y="-378.3" font-family="Times,serif" font-size="14.00">DelayBlock</text>
<text text-anchor="middle" x="286.97" y="-363.3" font-family="Times,serif" font-size="14.00">(delayIn)</text>
</g>
<!-- inter_5218695584_IN1&#45;&gt;node_11888334160 -->
<g id="edge8" class="edge">
<title>inter_5218695584_IN1&#45;&gt;node_11888334160</title>
<path fill="none" stroke="black" d="M179.14,-421.13C179.14,-417.53 179.14,-388.74 179.14,-388.74 179.14,-388.74 236.21,-388.74 236.21,-388.74"/>
<polygon fill="black" stroke="black" points="236.21,-392.24 246.21,-388.74 236.21,-385.24 236.21,-392.24"/>
<text text-anchor="middle" x="235.21" y="-377.54" font-family="Times,serif" font-size="14.00">IN1</text>
</g>
<!-- node_11493746960 -->
<g id="node44" class="node">
<title>node_11493746960</title>
<polygon fill="none" stroke="black" points="712.39,-534.5 608.39,-534.5 608.39,-496.5 712.39,-496.5 712.39,-534.5"/>
<text text-anchor="middle" x="660.39" y="-519.3" font-family="Times,serif" font-size="14.00">AdderBlock</text>
<text text-anchor="middle" x="660.39" y="-504.3" font-family="Times,serif" font-size="14.00">(sumSimpson1)</text>
</g>
<!-- inter_5218695584_IN1&#45;&gt;node_11493746960 -->
<g id="edge42" class="edge">
<title>inter_5218695584_IN1&#45;&gt;node_11493746960</title>
<path fill="none" stroke="black" d="M180.14,-421.58C180.14,-424.84 180.14,-529.24 180.14,-529.24 180.14,-529.24 598.08,-529.24 598.08,-529.24"/>
<polygon fill="black" stroke="black" points="598.08,-532.74 608.08,-529.24 598.08,-525.74 598.08,-532.74"/>
<text text-anchor="middle" x="597.08" y="-518.04" font-family="Times,serif" font-size="14.00">IN1</text>
</g>
<!-- node_11493748496 -->
<g id="node47" class="node">
<title>node_11493748496</title>
<polygon fill="none" stroke="black" points="535.39,-426.5 431.39,-426.5 431.39,-388.5 535.39,-388.5 535.39,-426.5"/>
<text text-anchor="middle" x="483.39" y="-411.3" font-family="Times,serif" font-size="14.00">AdderBlock</text>
<text text-anchor="middle" x="483.39" y="-396.3" font-family="Times,serif" font-size="14.00">(sumTrapezoid)</text>
</g>
<!-- inter_5218695584_IN1&#45;&gt;node_11493748496 -->
<g id="edge48" class="edge">
<title>inter_5218695584_IN1&#45;&gt;node_11493748496</title>
<path fill="none" stroke="black" d="M179.69,-421.5C179.69,-421.5 421.26,-421.5 421.26,-421.5"/>
<polygon fill="black" stroke="black" points="421.26,-425 431.26,-421.5 421.26,-418 421.26,-425"/>
<text text-anchor="middle" x="420.26" y="-410.3" font-family="Times,serif" font-size="14.00">IN1</text>
</g>
<!-- node_5218695584_IC -->
<g id="node3" class="node">
<title>node_5218695584_IC</title>
<ellipse fill="black" stroke="black" cx="1701.2" cy="-390.5" rx="0.36" ry="0.36"/>
</g>
<!-- inter_5218695584_IC -->
<g id="node4" class="node">
<title>inter_5218695584_IC</title>
<ellipse fill="black" stroke="black" cx="1779.2" cy="-390.5" rx="0.36" ry="0.36"/>
</g>
<!-- node_5218695584_IC&#45;&gt;inter_5218695584_IC -->
<g id="edge2" class="edge">
<title>node_5218695584_IC&#45;&gt;inter_5218695584_IC</title>
<path fill="none" stroke="black" d="M1711.7,-390.5C1711.7,-390.5 1778.75,-390.5 1778.75,-390.5"/>
<polygon fill="black" stroke="black" points="1701.7,-387 1711.7,-390.5 1701.7,-394 1701.7,-387"/>
<text text-anchor="middle" x="1694.7" y="-379.3" font-family="Times,serif" font-size="14.00">IC</text>
</g>
<!-- node_11888333008 -->
<g id="node19" class="node">
<title>node_11888333008</title>
<polygon fill="none" stroke="black" points="1922.2,-409.5 1840.2,-409.5 1840.2,-371.5 1922.2,-371.5 1922.2,-409.5"/>
<text text-anchor="middle" x="1881.2" y="-394.3" font-family="Times,serif" font-size="14.00">DelayBlock</text>
<text text-anchor="middle" x="1881.2" y="-379.3" font-family="Times,serif" font-size="14.00">(delayState)</text>
</g>
<!-- inter_5218695584_IC&#45;&gt;node_11888333008 -->
<g id="edge15" class="edge">
<title>inter_5218695584_IC&#45;&gt;node_11888333008</title>
<path fill="none" stroke="black" d="M1779.85,-390.5C1779.85,-390.5 1830,-390.5 1830,-390.5"/>
<polygon fill="black" stroke="black" points="1830,-394 1840,-390.5 1830,-387 1830,-394"/>
<text text-anchor="middle" x="1833" y="-379.3" font-family="Times,serif" font-size="14.00">IC</text>
</g>
<!-- node_5218694720 -->
<g id="node5" class="node">
<title>node_5218694720</title>
<ellipse fill="none" stroke="black" cx="71.42" cy="-346.5" rx="71.34" ry="37.45"/>
<text text-anchor="middle" x="71.42" y="-357.8" font-family="Times,serif" font-size="14.00"> ConstantBlock</text>
<text text-anchor="middle" x="71.42" y="-342.8" font-family="Times,serif" font-size="14.00">(zero)</text>
<text text-anchor="middle" x="71.42" y="-327.8" font-family="Times,serif" font-size="14.00">0</text>
</g>
<!-- inter_5218694720_OUT1 -->
<g id="node6" class="node">
<title>inter_5218694720_OUT1</title>
<ellipse fill="black" stroke="black" cx="179.2" cy="-346.5" rx="0.36" ry="0.36"/>
</g>
<!-- node_5218694720&#45;&gt;inter_5218694720_OUT1 -->
<g id="edge3" class="edge">
<title>node_5218694720&#45;&gt;inter_5218694720_OUT1</title>
<path fill="none" stroke="black" d="M153.01,-346.5C153.01,-346.5 178.78,-346.5 178.78,-346.5"/>
<polygon fill="none" stroke="black" points="143.01,-343 153.01,-346.5 143.01,-350 143.01,-343"/>
<text text-anchor="middle" x="160.51" y="-335.3" font-family="Times,serif" font-size="14.00">OUT1</text>
</g>
<!-- inter_5218694720_OUT1&#45;&gt;node_11888334160 -->
<g id="edge9" class="edge">
<title>inter_5218694720_OUT1&#45;&gt;node_11888334160</title>
<path fill="none" stroke="black" d="M180.14,-346.57C180.14,-347.93 180.14,-369.74 180.14,-369.74 180.14,-369.74 236.28,-369.74 236.28,-369.74"/>
<polygon fill="black" stroke="black" points="236.28,-373.24 246.28,-369.74 236.28,-366.24 236.28,-373.24"/>
<text text-anchor="middle" x="239.28" y="-358.54" font-family="Times,serif" font-size="14.00">IC</text>
</g>
<!-- node_11888336560 -->
<g id="node17" class="node">
<title>node_11888336560</title>
<polygon fill="none" stroke="black" points="523.89,-370.5 442.89,-370.5 442.89,-332.5 523.89,-332.5 523.89,-370.5"/>
<text text-anchor="middle" x="483.39" y="-355.3" font-family="Times,serif" font-size="14.00">DelayBlock</text>
<text text-anchor="middle" x="483.39" y="-340.3" font-family="Times,serif" font-size="14.00">(delayIn2)</text>
</g>
<!-- inter_5218694720_OUT1&#45;&gt;node_11888336560 -->
<g id="edge12" class="edge">
<title>inter_5218694720_OUT1&#45;&gt;node_11888336560</title>
<path fill="none" stroke="black" d="M179.69,-346.5C179.69,-346.5 432.88,-346.5 432.88,-346.5"/>
<polygon fill="black" stroke="black" points="432.88,-350 442.88,-346.5 432.88,-343 432.88,-350"/>
<text text-anchor="middle" x="435.88" y="-335.3" font-family="Times,serif" font-size="14.00">IC</text>
</g>
<!-- node_11888348560 -->
<g id="node7" class="node">
<title>node_11888348560</title>
<ellipse fill="none" stroke="black" cx="880.85" cy="-441.5" rx="95.42" ry="37.45"/>
<text text-anchor="middle" x="880.85" y="-452.8" font-family="Times,serif" font-size="14.00"> ConstantBlock</text>
<text text-anchor="middle" x="880.85" y="-437.8" font-family="Times,serif" font-size="14.00">(third)</text>
<text text-anchor="middle" x="880.85" y="-422.8" font-family="Times,serif" font-size="14.00">0.3333333333333333</text>
</g>
<!-- inter_11888348560_OUT1 -->
<g id="node8" class="node">
<title>inter_11888348560_OUT1</title>
<ellipse fill="black" stroke="black" cx="1012.81" cy="-460.5" rx="0.36" ry="0.36"/>
</g>
<!-- node_11888348560&#45;&gt;inter_11888348560_OUT1 -->
<g id="edge4" class="edge">
<title>node_11888348560&#45;&gt;inter_11888348560_OUT1</title>
<path fill="none" stroke="black" d="M973.3,-460.5C973.3,-460.5 1012.22,-460.5 1012.22,-460.5"/>
<polygon fill="none" stroke="black" points="963.3,-457 973.3,-460.5 963.3,-464 963.3,-457"/>
<text text-anchor="middle" x="980.8" y="-449.3" font-family="Times,serif" font-size="14.00">OUT1</text>
</g>
<!-- node_11888360512 -->
<g id="node39" class="node">
<title>node_11888360512</title>
<polygon fill="none" stroke="black" points="1166.23,-502.5 1075.23,-502.5 1075.23,-464.5 1166.23,-464.5 1166.23,-502.5"/>
<text text-anchor="middle" x="1120.73" y="-487.3" font-family="Times,serif" font-size="14.00">ProductBlock</text>
<text text-anchor="middle" x="1120.73" y="-472.3" font-family="Times,serif" font-size="14.00">(division)</text>
</g>
<!-- inter_11888348560_OUT1&#45;&gt;node_11888360512 -->
<g id="edge34" class="edge">
<title>inter_11888348560_OUT1&#45;&gt;node_11888360512</title>
<path fill="none" stroke="black" d="M1013.14,-460.98C1013.14,-463.13 1013.14,-471.74 1013.14,-471.74 1013.14,-471.74 1065.1,-471.74 1065.1,-471.74"/>
<polygon fill="black" stroke="black" points="1065.1,-475.24 1075.1,-471.74 1065.1,-468.24 1065.1,-475.24"/>
<text text-anchor="middle" x="1064.1" y="-460.54" font-family="Times,serif" font-size="14.00">IN2</text>
</g>
<!-- node_11888334736 -->
<g id="node9" class="node">
<title>node_11888334736</title>
<ellipse fill="none" stroke="black" cx="1336.56" cy="-188.5" rx="71.34" ry="37.45"/>
<text text-anchor="middle" x="1336.56" y="-199.8" font-family="Times,serif" font-size="14.00"> ConstantBlock</text>
<text text-anchor="middle" x="1336.56" y="-184.8" font-family="Times,serif" font-size="14.00">(one)</text>
<text text-anchor="middle" x="1336.56" y="-169.8" font-family="Times,serif" font-size="14.00">1</text>
</g>
<!-- inter_11888334736_OUT1 -->
<g id="node10" class="node">
<title>inter_11888334736_OUT1</title>
<ellipse fill="black" stroke="black" cx="1444.48" cy="-170.5" rx="0.36" ry="0.36"/>
</g>
<!-- node_11888334736&#45;&gt;inter_11888334736_OUT1 -->
<g id="edge5" class="edge">
<title>node_11888334736&#45;&gt;inter_11888334736_OUT1</title>
<path fill="none" stroke="black" d="M1409.34,-170.5C1409.34,-170.5 1443.93,-170.5 1443.93,-170.5"/>
<polygon fill="none" stroke="black" points="1399.34,-167 1409.34,-170.5 1399.34,-174 1399.34,-167"/>
<text text-anchor="middle" x="1416.84" y="-159.3" font-family="Times,serif" font-size="14.00">OUT1</text>
</g>
<!-- node_11888355264 -->
<g id="node22" class="node">
<title>node_11888355264</title>
<polygon fill="none" stroke="black" points="1582.98,-142.5 1484.98,-142.5 1484.98,-104.5 1582.98,-104.5 1582.98,-142.5"/>
<text text-anchor="middle" x="1533.98" y="-127.3" font-family="Times,serif" font-size="14.00">DelayBlock</text>
<text text-anchor="middle" x="1533.98" y="-112.3" font-family="Times,serif" font-size="14.00">(delayModulo)</text>
</g>
<!-- inter_11888334736_OUT1&#45;&gt;node_11888355264 -->
<g id="edge18" class="edge">
<title>inter_11888334736_OUT1&#45;&gt;node_11888355264</title>
<path fill="none" stroke="black" d="M1445.14,-170.38C1445.14,-168 1445.14,-129.83 1445.14,-129.83 1445.14,-129.83 1474.88,-129.83 1474.88,-129.83"/>
<polygon fill="black" stroke="black" points="1474.88,-133.33 1484.88,-129.83 1474.88,-126.33 1474.88,-133.33"/>
<text text-anchor="middle" x="1477.88" y="-133.63" font-family="Times,serif" font-size="14.00">IC</text>
</g>
<!-- node_11888335456 -->
<g id="node11" class="node">
<title>node_11888335456</title>
<ellipse fill="none" stroke="black" cx="1120.73" cy="-311.5" rx="71.34" ry="37.45"/>
<text text-anchor="middle" x="1120.73" y="-322.8" font-family="Times,serif" font-size="14.00"> ConstantBlock</text>
<text text-anchor="middle" x="1120.73" y="-307.8" font-family="Times,serif" font-size="14.00">(two)</text>
<text text-anchor="middle" x="1120.73" y="-292.8" font-family="Times,serif" font-size="14.00">2</text>
</g>
<!-- inter_11888335456_OUT1 -->
<g id="node12" class="node">
<title>inter_11888335456_OUT1</title>
<ellipse fill="black" stroke="black" cx="1228.65" cy="-315.5" rx="0.36" ry="0.36"/>
</g>
<!-- node_11888335456&#45;&gt;inter_11888335456_OUT1 -->
<g id="edge6" class="edge">
<title>node_11888335456&#45;&gt;inter_11888335456_OUT1</title>
<path fill="none" stroke="black" d="M1201.81,-315.5C1201.81,-315.5 1228.22,-315.5 1228.22,-315.5"/>
<polygon fill="none" stroke="black" points="1191.81,-312 1201.81,-315.5 1191.81,-319 1191.81,-312"/>
<text text-anchor="middle" x="1209.31" y="-304.3" font-family="Times,serif" font-size="14.00">OUT1</text>
</g>
<!-- node_11493748304 -->
<g id="node41" class="node">
<title>node_11493748304</title>
<polygon fill="none" stroke="black" points="1398.56,-393.5 1274.56,-393.5 1274.56,-355.5 1398.56,-355.5 1398.56,-393.5"/>
<text text-anchor="middle" x="1336.56" y="-378.3" font-family="Times,serif" font-size="14.00">ProductBlock</text>
<text text-anchor="middle" x="1336.56" y="-363.3" font-family="Times,serif" font-size="14.00">(divisionTrapezoid)</text>
</g>
<!-- inter_11888335456_OUT1&#45;&gt;node_11493748304 -->
<g id="edge37" class="edge">
<title>inter_11888335456_OUT1&#45;&gt;node_11493748304</title>
<path fill="none" stroke="black" d="M1229.14,-315.64C1229.14,-318.58 1229.14,-365.5 1229.14,-365.5 1229.14,-365.5 1264.39,-365.5 1264.39,-365.5"/>
<polygon fill="black" stroke="black" points="1264.39,-369 1274.39,-365.5 1264.39,-362 1264.39,-369"/>
<text text-anchor="middle" x="1263.39" y="-354.3" font-family="Times,serif" font-size="14.00">IN2</text>
</g>
<!-- node_11493743632 -->
<g id="node51" class="node">
<title>node_11493743632</title>
<polygon fill="none" stroke="black" points="1382.56,-337.5 1290.56,-337.5 1290.56,-299.5 1382.56,-299.5 1382.56,-337.5"/>
<text text-anchor="middle" x="1336.56" y="-322.3" font-family="Times,serif" font-size="14.00">ModuloBlock</text>
<text text-anchor="middle" x="1336.56" y="-307.3" font-family="Times,serif" font-size="14.00">(modulo)</text>
</g>
<!-- inter_11888335456_OUT1&#45;&gt;node_11493743632 -->
<g id="edge57" class="edge">
<title>inter_11888335456_OUT1&#45;&gt;node_11493743632</title>
<path fill="none" stroke="black" d="M1229.33,-315.5C1229.33,-315.5 1280.29,-315.5 1280.29,-315.5"/>
<polygon fill="black" stroke="black" points="1280.29,-319 1290.29,-315.5 1280.29,-312 1280.29,-319"/>
<text text-anchor="middle" x="1279.29" y="-304.3" font-family="Times,serif" font-size="14.00">IN2</text>
</g>
<!-- node_11493743824 -->
<g id="node52" class="node">
<title>node_11493743824</title>
<polygon fill="none" stroke="black" points="1379.56,-281.5 1293.56,-281.5 1293.56,-243.5 1379.56,-243.5 1379.56,-281.5"/>
<text text-anchor="middle" x="1336.56" y="-266.3" font-family="Times,serif" font-size="14.00">EqualsBlock</text>
<text text-anchor="middle" x="1336.56" y="-251.3" font-family="Times,serif" font-size="14.00">(equal)</text>
</g>
<!-- inter_11888335456_OUT1&#45;&gt;node_11493743824 -->
<g id="edge59" class="edge">
<title>inter_11888335456_OUT1&#45;&gt;node_11493743824</title>
<path fill="none" stroke="black" d="M1229.14,-315.39C1229.14,-313.18 1229.14,-277.76 1229.14,-277.76 1229.14,-277.76 1283.49,-277.76 1283.49,-277.76"/>
<polygon fill="black" stroke="black" points="1283.49,-281.26 1293.49,-277.76 1283.49,-274.26 1283.49,-281.26"/>
<text text-anchor="middle" x="1282.49" y="-266.56" font-family="Times,serif" font-size="14.00">IN1</text>
</g>
<!-- node_11888336176 -->
<g id="node13" class="node">
<title>node_11888336176</title>
<ellipse fill="none" stroke="black" cx="286.97" cy="-486.5" rx="71.34" ry="37.45"/>
<text text-anchor="middle" x="286.97" y="-497.8" font-family="Times,serif" font-size="14.00"> ConstantBlock</text>
<text text-anchor="middle" x="286.97" y="-482.8" font-family="Times,serif" font-size="14.00">(four)</text>
<text text-anchor="middle" x="286.97" y="-467.8" font-family="Times,serif" font-size="14.00">4</text>
</g>
<!-- inter_11888336176_OUT1 -->
<g id="node14" class="node">
<title>inter_11888336176_OUT1</title>
<ellipse fill="black" stroke="black" cx="394.89" cy="-486.5" rx="0.36" ry="0.36"/>
</g>
<!-- node_11888336176&#45;&gt;inter_11888336176_OUT1 -->
<g id="edge7" class="edge">
<title>node_11888336176&#45;&gt;inter_11888336176_OUT1</title>
<path fill="none" stroke="black" d="M368.66,-486.5C368.66,-486.5 394.47,-486.5 394.47,-486.5"/>
<polygon fill="none" stroke="black" points="358.66,-483 368.66,-486.5 358.66,-490 358.66,-483"/>
<text text-anchor="middle" x="376.16" y="-475.3" font-family="Times,serif" font-size="14.00">OUT1</text>
</g>
<!-- node_11493740496 -->
<g id="node30" class="node">
<title>node_11493740496</title>
<polygon fill="none" stroke="black" points="532.89,-505.5 433.89,-505.5 433.89,-467.5 532.89,-467.5 532.89,-505.5"/>
<text text-anchor="middle" x="483.39" y="-490.3" font-family="Times,serif" font-size="14.00">ProductBlock</text>
<text text-anchor="middle" x="483.39" y="-475.3" font-family="Times,serif" font-size="14.00">(multSimpson)</text>
</g>
<!-- inter_11888336176_OUT1&#45;&gt;node_11493740496 -->
<g id="edge24" class="edge">
<title>inter_11888336176_OUT1&#45;&gt;node_11493740496</title>
<path fill="none" stroke="black" d="M395.46,-486.5C395.46,-486.5 423.86,-486.5 423.86,-486.5"/>
<polygon fill="black" stroke="black" points="423.86,-490 433.86,-486.5 423.86,-483 423.86,-490"/>
<text text-anchor="middle" x="422.86" y="-490.3" font-family="Times,serif" font-size="14.00">IN1</text>
</g>
<!-- inter_11888334160_OUT1 -->
<g id="node16" class="node">
<title>inter_11888334160_OUT1</title>
<ellipse fill="black" stroke="black" cx="394.89" cy="-393.5" rx="0.36" ry="0.36"/>
</g>
<!-- node_11888334160&#45;&gt;inter_11888334160_OUT1 -->
<g id="edge10" class="edge">
<title>node_11888334160&#45;&gt;inter_11888334160_OUT1</title>
<path fill="none" stroke="black" d="M337.77,-393C337.77,-393 394.79,-393 394.79,-393"/>
<polygon fill="none" stroke="black" points="327.77,-389.5 337.77,-393 327.77,-396.5 327.77,-389.5"/>
<text text-anchor="middle" x="345.27" y="-381.8" font-family="Times,serif" font-size="14.00">OUT1</text>
</g>
<!-- inter_11888334160_OUT1&#45;&gt;node_11888336560 -->
<g id="edge11" class="edge">
<title>inter_11888334160_OUT1&#45;&gt;node_11888336560</title>
<path fill="none" stroke="black" d="M395.14,-393.16C395.14,-389.81 395.14,-363 395.14,-363 395.14,-363 432.88,-363 432.88,-363"/>
<polygon fill="black" stroke="black" points="432.88,-366.5 442.88,-363 432.88,-359.5 432.88,-366.5"/>
<text text-anchor="middle" x="431.88" y="-351.8" font-family="Times,serif" font-size="14.00">IN1</text>
</g>
<!-- inter_11888334160_OUT1&#45;&gt;node_11493740496 -->
<g id="edge25" class="edge">
<title>inter_11888334160_OUT1&#45;&gt;node_11493740496</title>
<path fill="none" stroke="black" d="M395.14,-394.03C395.14,-401.1 395.14,-476.5 395.14,-476.5 395.14,-476.5 423.85,-476.5 423.85,-476.5"/>
<polygon fill="black" stroke="black" points="423.85,-480 433.85,-476.5 423.85,-473 423.85,-480"/>
<text text-anchor="middle" x="422.85" y="-465.3" font-family="Times,serif" font-size="14.00">IN2</text>
</g>
<!-- inter_11888334160_OUT1&#45;&gt;node_11493748496 -->
<g id="edge49" class="edge">
<title>inter_11888334160_OUT1&#45;&gt;node_11493748496</title>
<path fill="none" stroke="black" d="M395.46,-393.5C395.46,-393.5 420.93,-393.5 420.93,-393.5"/>
<polygon fill="black" stroke="black" points="420.93,-397 430.93,-393.5 420.93,-390 420.93,-397"/>
<text text-anchor="middle" x="419.93" y="-382.3" font-family="Times,serif" font-size="14.00">IN2</text>
</g>
<!-- inter_11888336560_OUT1 -->
<g id="node18" class="node">
<title>inter_11888336560_OUT1</title>
<ellipse fill="black" stroke="black" cx="660.39" cy="-471.5" rx="0.36" ry="0.36"/>
</g>
<!-- node_11888336560&#45;&gt;inter_11888336560_OUT1 -->
<g id="edge13" class="edge">
<title>node_11888336560&#45;&gt;inter_11888336560_OUT1</title>
<path fill="none" stroke="black" d="M534.17,-360.5C534.17,-360.5 661.14,-360.5 661.14,-360.5 661.14,-360.5 661.14,-468.06 661.14,-471.42"/>
<polygon fill="none" stroke="black" points="524.17,-357 534.17,-360.5 524.17,-364 524.17,-357"/>
<text text-anchor="middle" x="541.67" y="-349.3" font-family="Times,serif" font-size="14.00">OUT1</text>
</g>
<!-- node_11493747008 -->
<g id="node46" class="node">
<title>node_11493747008</title>
<polygon fill="none" stroke="black" points="932.85,-534.5 828.85,-534.5 828.85,-496.5 932.85,-496.5 932.85,-534.5"/>
<text text-anchor="middle" x="880.85" y="-519.3" font-family="Times,serif" font-size="14.00">AdderBlock</text>
<text text-anchor="middle" x="880.85" y="-504.3" font-family="Times,serif" font-size="14.00">(sumSimpson2)</text>
</g>
<!-- inter_11888336560_OUT1&#45;&gt;node_11493747008 -->
<g id="edge46" class="edge">
<title>inter_11888336560_OUT1&#45;&gt;node_11493747008</title>
<path fill="none" stroke="black" d="M660.84,-471.5C666.87,-471.5 731.14,-471.5 731.14,-471.5 731.14,-471.5 731.14,-505.5 731.14,-505.5 731.14,-505.5 818.49,-505.5 818.49,-505.5"/>
<polygon fill="black" stroke="black" points="818.49,-509 828.49,-505.5 818.49,-502 818.49,-509"/>
<text text-anchor="middle" x="817.49" y="-494.3" font-family="Times,serif" font-size="14.00">IN2</text>
</g>
<!-- inter_11888333008_OUT1 -->
<g id="node21" class="node">
<title>inter_11888333008_OUT1</title>
<ellipse fill="black" stroke="black" cx="1983.06" cy="-366.5" rx="0.36" ry="0.36"/>
</g>
<!-- node_11888333008&#45;&gt;inter_11888333008_OUT1 -->
<g id="edge16" class="edge">
<title>node_11888333008&#45;&gt;inter_11888333008_OUT1</title>
<path fill="none" stroke="black" d="M1932.37,-390.5C1932.37,-390.5 1983.14,-390.5 1983.14,-390.5 1983.14,-390.5 1983.14,-370.79 1983.14,-367.09"/>
<polygon fill="none" stroke="black" points="1922.37,-387 1932.37,-390.5 1922.37,-394 1922.37,-387"/>
<text text-anchor="middle" x="1939.87" y="-379.3" font-family="Times,serif" font-size="14.00">OUT1</text>
</g>
<!-- inter_11493745616_OUT1 -->
<g id="node20" class="node">
<title>inter_11493745616_OUT1</title>
<ellipse fill="black" stroke="black" cx="1779.2" cy="-371.5" rx="0.36" ry="0.36"/>
</g>
<!-- inter_11493745616_OUT1&#45;&gt;node_11888333008 -->
<g id="edge14" class="edge">
<title>inter_11493745616_OUT1&#45;&gt;node_11888333008</title>
<path fill="none" stroke="black" d="M1779.28,-372C1779.28,-372 1830.16,-372 1830.16,-372"/>
<polygon fill="black" stroke="black" points="1830.16,-375.5 1840.16,-372 1830.16,-368.5 1830.16,-375.5"/>
<text text-anchor="middle" x="1829.16" y="-360.8" font-family="Times,serif" font-size="14.00">IN1</text>
</g>
<!-- node_11493748208 -->
<g id="node48" class="node">
<title>node_11493748208</title>
<polygon fill="none" stroke="black" points="1946.7,-315.5 1815.7,-315.5 1815.7,-277.5 1946.7,-277.5 1946.7,-315.5"/>
<text text-anchor="middle" x="1881.2" y="-300.3" font-family="Times,serif" font-size="14.00">AdderBlock</text>
<text text-anchor="middle" x="1881.2" y="-285.3" font-family="Times,serif" font-size="14.00">(sumStateTrapezoid)</text>
</g>
<!-- inter_11493745616_OUT1&#45;&gt;node_11493748208 -->
<g id="edge51" class="edge">
<title>inter_11493745616_OUT1&#45;&gt;node_11493748208</title>
<path fill="none" stroke="black" d="M1780.14,-371.45C1780.14,-369.48 1780.14,-306.5 1780.14,-306.5 1780.14,-306.5 1805.49,-306.5 1805.49,-306.5"/>
<polygon fill="black" stroke="black" points="1805.49,-310 1815.49,-306.5 1805.49,-303 1805.49,-310"/>
<text text-anchor="middle" x="1804.49" y="-295.3" font-family="Times,serif" font-size="14.00">IN1</text>
</g>
<!-- node_11493745616 -->
<g id="node43" class="node">
<title>node_11493745616</title>
<polygon fill="none" stroke="black" points="1742.7,-372.5 1659.7,-372.5 1659.7,-334.5 1742.7,-334.5 1742.7,-372.5"/>
<text text-anchor="middle" x="1701.2" y="-357.3" font-family="Times,serif" font-size="14.00">AdderBlock</text>
<text text-anchor="middle" x="1701.2" y="-342.3" font-family="Times,serif" font-size="14.00">(sumState)</text>
</g>
<!-- inter_11888333008_OUT1&#45;&gt;node_11493745616 -->
<g id="edge40" class="edge">
<title>inter_11888333008_OUT1&#45;&gt;node_11493745616</title>
<path fill="none" stroke="black" d="M1982.6,-366.5C1982.6,-366.5 1752.8,-366.5 1752.8,-366.5"/>
<polygon fill="black" stroke="black" points="1752.8,-363 1742.8,-366.5 1752.8,-370 1752.8,-363"/>
<text text-anchor="middle" x="1753.8" y="-355.3" font-family="Times,serif" font-size="14.00">IN2</text>
</g>
<!-- inter_11888355264_OUT1 -->
<g id="node24" class="node">
<title>inter_11888355264_OUT1</title>
<ellipse fill="black" stroke="black" cx="1228.65" cy="-193.5" rx="0.36" ry="0.36"/>
</g>
<!-- node_11888355264&#45;&gt;inter_11888355264_OUT1 -->
<g id="edge19" class="edge">
<title>node_11888355264&#45;&gt;inter_11888355264_OUT1</title>
<path fill="none" stroke="black" d="M1474.8,-117.17C1474.8,-117.17 1210.14,-117.17 1210.14,-117.17 1210.14,-117.17 1210.14,-193.5 1210.14,-193.5 1210.14,-193.5 1225.34,-193.5 1228.19,-193.5"/>
<polygon fill="none" stroke="black" points="1484.8,-120.67 1474.8,-117.17 1484.8,-113.67 1484.8,-120.67"/>
<text text-anchor="middle" x="1467.3" y="-105.97" font-family="Times,serif" font-size="14.00">OUT1</text>
</g>
<!-- inter_11493743776_OUT1 -->
<g id="node23" class="node">
<title>inter_11493743776_OUT1</title>
<ellipse fill="black" stroke="black" cx="1444.48" cy="-71.5" rx="0.36" ry="0.36"/>
</g>
<!-- inter_11493743776_OUT1&#45;&gt;node_11888355264 -->
<g id="edge17" class="edge">
<title>inter_11493743776_OUT1&#45;&gt;node_11888355264</title>
<path fill="none" stroke="black" d="M1445.05,-71.5C1452.69,-71.5 1534.14,-71.5 1534.14,-71.5 1534.14,-71.5 1534.14,-94.43 1534.14,-94.43"/>
<polygon fill="black" stroke="black" points="1530.64,-94.43 1534.14,-104.43 1537.64,-94.43 1530.64,-94.43"/>
<text text-anchor="middle" x="1523.14" y="-93.23" font-family="Times,serif" font-size="14.00">IN1</text>
</g>
<!-- node_11493743776 -->
<g id="node50" class="node">
<title>node_11493743776</title>
<polygon fill="none" stroke="black" points="1384.06,-95 1289.06,-95 1289.06,0 1384.06,0 1384.06,-95"/>
<polyline fill="none" stroke="black" points="1301.06,-95 1289.06,-83 "/>
<polyline fill="none" stroke="black" points="1289.06,-12 1301.06,0 "/>
<polyline fill="none" stroke="black" points="1372.06,0 1384.06,-12 "/>
<polyline fill="none" stroke="black" points="1384.06,-83 1372.06,-95 "/>
<text text-anchor="middle" x="1336.56" y="-51.3" font-family="Times,serif" font-size="14.00">AddOneBlock</text>
<text text-anchor="middle" x="1336.56" y="-36.3" font-family="Times,serif" font-size="14.00">(addOne)</text>
</g>
<!-- inter_11888355264_OUT1&#45;&gt;node_11493743776 -->
<g id="edge54" class="edge">
<title>inter_11888355264_OUT1&#45;&gt;node_11493743776</title>
<path fill="none" stroke="black" d="M1229.14,-193.39C1229.14,-188.97 1229.14,-47.5 1229.14,-47.5 1229.14,-47.5 1278.82,-47.5 1278.82,-47.5"/>
<polygon fill="black" stroke="black" points="1278.82,-51 1288.82,-47.5 1278.82,-44 1278.82,-51"/>
<text text-anchor="middle" x="1277.82" y="-36.3" font-family="Times,serif" font-size="14.00">IN1</text>
</g>
<!-- inter_11888355264_OUT1&#45;&gt;node_11493743632 -->
<g id="edge56" class="edge">
<title>inter_11888355264_OUT1&#45;&gt;node_11493743632</title>
<path fill="none" stroke="black" d="M1229.13,-193.5C1232.13,-193.5 1248.14,-193.5 1248.14,-193.5 1248.14,-193.5 1248.14,-307 1248.14,-307 1248.14,-307 1280.54,-307 1280.54,-307"/>
<polygon fill="black" stroke="black" points="1280.54,-310.5 1290.54,-307 1280.54,-303.5 1280.54,-310.5"/>
<text text-anchor="middle" x="1279.54" y="-295.8" font-family="Times,serif" font-size="14.00">IN1</text>
</g>
<!-- inter_11888355264_OUT1&#45;&gt;node_11493743824 -->
<g id="edge60" class="edge">
<title>inter_11888355264_OUT1&#45;&gt;node_11493743824</title>
<path fill="none" stroke="black" d="M1229.14,-193.55C1229.14,-195.52 1229.14,-258.76 1229.14,-258.76 1229.14,-258.76 1283.49,-258.76 1283.49,-258.76"/>
<polygon fill="black" stroke="black" points="1283.49,-262.26 1293.49,-258.76 1283.49,-255.26 1283.49,-262.26"/>
<text text-anchor="middle" x="1282.49" y="-247.56" font-family="Times,serif" font-size="14.00">IN2</text>
</g>
<!-- node_11493737376 -->
<g id="node25" class="node">
<title>node_11493737376</title>
<polygon fill="none" stroke="black" points="1163.73,-446.5 1077.73,-446.5 1077.73,-408.5 1163.73,-408.5 1163.73,-446.5"/>
<text text-anchor="middle" x="1120.73" y="-431.3" font-family="Times,serif" font-size="14.00">DeltaTBlock</text>
<text text-anchor="middle" x="1120.73" y="-416.3" font-family="Times,serif" font-size="14.00">(delta_t)</text>
</g>
<!-- inter_11493737376_OUT1 -->
<g id="node26" class="node">
<title>inter_11493737376_OUT1</title>
<ellipse fill="black" stroke="black" cx="1228.65" cy="-428.5" rx="0.36" ry="0.36"/>
</g>
<!-- node_11493737376&#45;&gt;inter_11493737376_OUT1 -->
<g id="edge20" class="edge">
<title>node_11493737376&#45;&gt;inter_11493737376_OUT1</title>
<path fill="none" stroke="black" d="M1174,-428.5C1174,-428.5 1228.25,-428.5 1228.25,-428.5"/>
<polygon fill="none" stroke="black" points="1164,-425 1174,-428.5 1164,-432 1164,-425"/>
<text text-anchor="middle" x="1181.5" y="-417.3" font-family="Times,serif" font-size="14.00">OUT1</text>
</g>
<!-- node_11493739200 -->
<g id="node27" class="node">
<title>node_11493739200</title>
<polygon fill="none" stroke="black" points="1382.06,-449.5 1291.06,-449.5 1291.06,-411.5 1382.06,-411.5 1382.06,-449.5"/>
<text text-anchor="middle" x="1336.56" y="-434.3" font-family="Times,serif" font-size="14.00">ProductBlock</text>
<text text-anchor="middle" x="1336.56" y="-419.3" font-family="Times,serif" font-size="14.00">(multDelta)</text>
</g>
<!-- inter_11493737376_OUT1&#45;&gt;node_11493739200 -->
<g id="edge22" class="edge">
<title>inter_11493737376_OUT1&#45;&gt;node_11493739200</title>
<path fill="none" stroke="black" d="M1229.33,-428.5C1229.33,-428.5 1280.89,-428.5 1280.89,-428.5"/>
<polygon fill="black" stroke="black" points="1280.89,-432 1290.89,-428.5 1280.89,-425 1280.89,-432"/>
<text text-anchor="middle" x="1279.89" y="-417.3" font-family="Times,serif" font-size="14.00">IN2</text>
</g>
<!-- inter_11493739200_OUT1 -->
<g id="node29" class="node">
<title>inter_11493739200_OUT1</title>
<ellipse fill="black" stroke="black" cx="1444.48" cy="-404.5" rx="0.36" ry="0.36"/>
</g>
<!-- node_11493739200&#45;&gt;inter_11493739200_OUT1 -->
<g id="edge23" class="edge">
<title>node_11493739200&#45;&gt;inter_11493739200_OUT1</title>
<path fill="none" stroke="black" d="M1392.3,-430.5C1392.3,-430.5 1445.14,-430.5 1445.14,-430.5 1445.14,-430.5 1445.14,-406.1 1445.14,-404.57"/>
<polygon fill="none" stroke="black" points="1382.3,-427 1392.3,-430.5 1382.3,-434 1382.3,-427"/>
<text text-anchor="middle" x="1399.8" y="-419.3" font-family="Times,serif" font-size="14.00">OUT1</text>
</g>
<!-- inter_11888360512_OUT1 -->
<g id="node28" class="node">
<title>inter_11888360512_OUT1</title>
<ellipse fill="black" stroke="black" cx="1228.65" cy="-465.5" rx="0.36" ry="0.36"/>
</g>
<!-- inter_11888360512_OUT1&#45;&gt;node_11493739200 -->
<g id="edge21" class="edge">
<title>inter_11888360512_OUT1&#45;&gt;node_11493739200</title>
<path fill="none" stroke="black" d="M1229.14,-465.42C1229.14,-463.81 1229.14,-438 1229.14,-438 1229.14,-438 1281.01,-438 1281.01,-438"/>
<polygon fill="black" stroke="black" points="1281.01,-441.5 1291.01,-438 1281.01,-434.5 1281.01,-441.5"/>
<text text-anchor="middle" x="1280.01" y="-441.8" font-family="Times,serif" font-size="14.00">IN1</text>
</g>
<!-- node_11888338880 -->
<g id="node32" class="node">
<title>node_11888338880</title>
<polygon fill="none" stroke="black" points="1579.48,-372.5 1488.48,-372.5 1488.48,-334.5 1579.48,-334.5 1579.48,-372.5"/>
<text text-anchor="middle" x="1533.98" y="-357.3" font-family="Times,serif" font-size="14.00">ProductBlock</text>
<text text-anchor="middle" x="1533.98" y="-342.3" font-family="Times,serif" font-size="14.00">(multIter2)</text>
</g>
<!-- inter_11493739200_OUT1&#45;&gt;node_11888338880 -->
<g id="edge28" class="edge">
<title>inter_11493739200_OUT1&#45;&gt;node_11888338880</title>
<path fill="none" stroke="black" d="M1445.14,-404.38C1445.14,-402.01 1445.14,-364 1445.14,-364 1445.14,-364 1478.26,-364 1478.26,-364"/>
<polygon fill="black" stroke="black" points="1478.26,-367.5 1488.26,-364 1478.26,-360.5 1478.26,-367.5"/>
<text text-anchor="middle" x="1477.26" y="-352.8" font-family="Times,serif" font-size="14.00">IN2</text>
</g>
<!-- inter_11493740496_OUT1 -->
<g id="node31" class="node">
<title>inter_11493740496_OUT1</title>
<ellipse fill="black" stroke="black" cx="571.89" cy="-505.5" rx="0.36" ry="0.36"/>
</g>
<!-- node_11493740496&#45;&gt;inter_11493740496_OUT1 -->
<g id="edge26" class="edge">
<title>node_11493740496&#45;&gt;inter_11493740496_OUT1</title>
<path fill="none" stroke="black" d="M543.07,-505C543.07,-505 571.84,-505 571.84,-505"/>
<polygon fill="none" stroke="black" points="533.07,-501.5 543.07,-505 533.07,-508.5 533.07,-501.5"/>
<text text-anchor="middle" x="550.57" y="-493.8" font-family="Times,serif" font-size="14.00">OUT1</text>
</g>
<!-- inter_11493740496_OUT1&#45;&gt;node_11493746960 -->
<g id="edge43" class="edge">
<title>inter_11493740496_OUT1&#45;&gt;node_11493746960</title>
<path fill="none" stroke="black" d="M572.46,-505.5C572.46,-505.5 597.93,-505.5 597.93,-505.5"/>
<polygon fill="black" stroke="black" points="597.93,-509 607.93,-505.5 597.93,-502 597.93,-509"/>
<text text-anchor="middle" x="596.93" y="-494.3" font-family="Times,serif" font-size="14.00">IN2</text>
</g>
<!-- inter_11888338880_OUT1 -->
<g id="node34" class="node">
<title>inter_11888338880_OUT1</title>
<ellipse fill="black" stroke="black" cx="1623.34" cy="-353.5" rx="0.36" ry="0.36"/>
</g>
<!-- node_11888338880&#45;&gt;inter_11888338880_OUT1 -->
<g id="edge29" class="edge">
<title>node_11888338880&#45;&gt;inter_11888338880_OUT1</title>
<path fill="none" stroke="black" d="M1589.71,-353.5C1589.71,-353.5 1622.79,-353.5 1622.79,-353.5"/>
<polygon fill="none" stroke="black" points="1579.71,-350 1589.71,-353.5 1579.71,-357 1579.71,-350"/>
<text text-anchor="middle" x="1597.21" y="-342.3" font-family="Times,serif" font-size="14.00">OUT1</text>
</g>
<!-- inter_11493743632_OUT1 -->
<g id="node33" class="node">
<title>inter_11493743632_OUT1</title>
<ellipse fill="black" stroke="black" cx="1444.48" cy="-339.5" rx="0.36" ry="0.36"/>
</g>
<!-- inter_11493743632_OUT1&#45;&gt;node_11888338880 -->
<g id="edge27" class="edge">
<title>inter_11493743632_OUT1&#45;&gt;node_11888338880</title>
<path fill="none" stroke="black" d="M1445.05,-339.5C1445.05,-339.5 1478.38,-339.5 1478.38,-339.5"/>
<polygon fill="black" stroke="black" points="1478.38,-343 1488.38,-339.5 1478.38,-336 1478.38,-343"/>
<text text-anchor="middle" x="1477.38" y="-328.3" font-family="Times,serif" font-size="14.00">IN1</text>
</g>
<!-- inter_11888338880_OUT1&#45;&gt;node_11493745616 -->
<g id="edge39" class="edge">
<title>inter_11888338880_OUT1&#45;&gt;node_11493745616</title>
<path fill="none" stroke="black" d="M1623.84,-353.5C1623.84,-353.5 1649.36,-353.5 1649.36,-353.5"/>
<polygon fill="black" stroke="black" points="1649.36,-357 1659.36,-353.5 1649.36,-350 1649.36,-357"/>
<text text-anchor="middle" x="1648.36" y="-342.3" font-family="Times,serif" font-size="14.00">IN1</text>
</g>
<!-- node_11888338688 -->
<g id="node35" class="node">
<title>node_11888338688</title>
<polygon fill="none" stroke="black" points="1586.98,-315.5 1480.98,-315.5 1480.98,-277.5 1586.98,-277.5 1586.98,-315.5"/>
<text text-anchor="middle" x="1533.98" y="-300.3" font-family="Times,serif" font-size="14.00">ProductBlock</text>
<text text-anchor="middle" x="1533.98" y="-285.3" font-family="Times,serif" font-size="14.00">(multTrapezoid)</text>
</g>
<!-- inter_11888338688_OUT1 -->
<g id="node38" class="node">
<title>inter_11888338688_OUT1</title>
<ellipse fill="black" stroke="black" cx="1623.34" cy="-296.5" rx="0.36" ry="0.36"/>
</g>
<!-- node_11888338688&#45;&gt;inter_11888338688_OUT1 -->
<g id="edge32" class="edge">
<title>node_11888338688&#45;&gt;inter_11888338688_OUT1</title>
<path fill="none" stroke="black" d="M1596.99,-296.5C1596.99,-296.5 1622.9,-296.5 1622.9,-296.5"/>
<polygon fill="none" stroke="black" points="1587,-293 1596.99,-296.5 1586.99,-300 1587,-293"/>
<text text-anchor="middle" x="1604.49" y="-285.3" font-family="Times,serif" font-size="14.00">OUT1</text>
</g>
<!-- inter_11493743824_OUT1 -->
<g id="node36" class="node">
<title>inter_11493743824_OUT1</title>
<ellipse fill="black" stroke="black" cx="1444.48" cy="-273.5" rx="0.36" ry="0.36"/>
</g>
<!-- inter_11493743824_OUT1&#45;&gt;node_11888338688 -->
<g id="edge30" class="edge">
<title>inter_11493743824_OUT1&#45;&gt;node_11888338688</title>
<path fill="none" stroke="black" d="M1445.14,-273.55C1445.14,-274.55 1445.14,-290.5 1445.14,-290.5 1445.14,-290.5 1470.76,-290.5 1470.76,-290.5"/>
<polygon fill="black" stroke="black" points="1470.76,-294 1480.76,-290.5 1470.76,-287 1470.76,-294"/>
<text text-anchor="middle" x="1469.76" y="-279.3" font-family="Times,serif" font-size="14.00">IN1</text>
</g>
<!-- inter_11493748304_OUT1 -->
<g id="node37" class="node">
<title>inter_11493748304_OUT1</title>
<ellipse fill="black" stroke="black" cx="1444.48" cy="-311.5" rx="0.36" ry="0.36"/>
</g>
<!-- inter_11493748304_OUT1&#45;&gt;node_11888338688 -->
<g id="edge31" class="edge">
<title>inter_11493748304_OUT1&#45;&gt;node_11888338688</title>
<path fill="none" stroke="black" d="M1445.05,-311.5C1445.05,-311.5 1470.92,-311.5 1470.92,-311.5"/>
<polygon fill="black" stroke="black" points="1470.92,-315 1480.92,-311.5 1470.92,-308 1470.92,-315"/>
<text text-anchor="middle" x="1469.92" y="-300.3" font-family="Times,serif" font-size="14.00">IN2</text>
</g>
<!-- inter_11888338688_OUT1&#45;&gt;node_11493748208 -->
<g id="edge52" class="edge">
<title>inter_11888338688_OUT1&#45;&gt;node_11493748208</title>
<path fill="none" stroke="black" d="M1623.76,-296.5C1623.76,-296.5 1805.5,-296.5 1805.5,-296.5"/>
<polygon fill="black" stroke="black" points="1805.5,-300 1815.5,-296.5 1805.5,-293 1805.5,-300"/>
<text text-anchor="middle" x="1804.5" y="-285.3" font-family="Times,serif" font-size="14.00">IN2</text>
</g>
<!-- node_11888360512&#45;&gt;inter_11888360512_OUT1 -->
<g id="edge35" class="edge">
<title>node_11888360512&#45;&gt;inter_11888360512_OUT1</title>
<path fill="none" stroke="black" d="M1176.49,-465.5C1176.49,-465.5 1228.27,-465.5 1228.27,-465.5"/>
<polygon fill="none" stroke="black" points="1166.49,-462 1176.49,-465.5 1166.49,-469 1166.49,-462"/>
<text text-anchor="middle" x="1183.99" y="-454.3" font-family="Times,serif" font-size="14.00">OUT1</text>
</g>
<!-- inter_11493747008_OUT1 -->
<g id="node40" class="node">
<title>inter_11493747008_OUT1</title>
<ellipse fill="black" stroke="black" cx="1012.81" cy="-499.5" rx="0.36" ry="0.36"/>
</g>
<!-- inter_11493747008_OUT1&#45;&gt;node_11888360512 -->
<g id="edge33" class="edge">
<title>inter_11493747008_OUT1&#45;&gt;node_11888360512</title>
<path fill="none" stroke="black" d="M1013.5,-499.5C1013.5,-499.5 1065.05,-499.5 1065.05,-499.5"/>
<polygon fill="black" stroke="black" points="1065.05,-503 1075.05,-499.5 1065.05,-496 1065.05,-503"/>
<text text-anchor="middle" x="1064.05" y="-488.3" font-family="Times,serif" font-size="14.00">IN1</text>
</g>
<!-- node_11493748304&#45;&gt;inter_11493748304_OUT1 -->
<g id="edge38" class="edge">
<title>node_11493748304&#45;&gt;inter_11493748304_OUT1</title>
<path fill="none" stroke="black" d="M1391.14,-345.26C1391.14,-345.26 1391.14,-311.5 1391.14,-311.5 1391.14,-311.5 1438.02,-311.5 1443.88,-311.5"/>
<polygon fill="none" stroke="black" points="1387.64,-355.26 1391.14,-345.26 1394.64,-355.26 1387.64,-355.26"/>
<text text-anchor="middle" x="1373.64" y="-344.06" font-family="Times,serif" font-size="14.00">OUT1</text>
</g>
<!-- inter_11493748496_OUT1 -->
<g id="node42" class="node">
<title>inter_11493748496_OUT1</title>
<ellipse fill="black" stroke="black" cx="571.89" cy="-392.5" rx="0.36" ry="0.36"/>
</g>
<!-- inter_11493748496_OUT1&#45;&gt;node_11493748304 -->
<g id="edge36" class="edge">
<title>inter_11493748496_OUT1&#45;&gt;node_11493748304</title>
<path fill="none" stroke="black" d="M572.45,-392.5C572.45,-392.5 1264.53,-392.5 1264.53,-392.5"/>
<polygon fill="black" stroke="black" points="1264.53,-396 1274.53,-392.5 1264.53,-389 1264.53,-396"/>
<text text-anchor="middle" x="1263.53" y="-381.3" font-family="Times,serif" font-size="14.00">IN1</text>
</g>
<!-- node_11493745616&#45;&gt;inter_11493745616_OUT1 -->
<g id="edge41" class="edge">
<title>node_11493745616&#45;&gt;inter_11493745616_OUT1</title>
<path fill="none" stroke="black" d="M1752.94,-371.5C1752.94,-371.5 1778.75,-371.5 1778.75,-371.5"/>
<polygon fill="none" stroke="black" points="1742.94,-368 1752.94,-371.5 1742.94,-375 1742.94,-368"/>
<text text-anchor="middle" x="1760.44" y="-375.3" font-family="Times,serif" font-size="14.00">OUT1</text>
</g>
<!-- inter_11493746960_OUT1 -->
<g id="node45" class="node">
<title>inter_11493746960_OUT1</title>
<ellipse fill="black" stroke="black" cx="748.89" cy="-515.5" rx="0.36" ry="0.36"/>
</g>
<!-- node_11493746960&#45;&gt;inter_11493746960_OUT1 -->
<g id="edge44" class="edge">
<title>node_11493746960&#45;&gt;inter_11493746960_OUT1</title>
<path fill="none" stroke="black" d="M722.64,-515.5C722.64,-515.5 748.45,-515.5 748.45,-515.5"/>
<polygon fill="none" stroke="black" points="712.64,-512 722.64,-515.5 712.64,-519 712.64,-512"/>
<text text-anchor="middle" x="730.14" y="-504.3" font-family="Times,serif" font-size="14.00">OUT1</text>
</g>
<!-- inter_11493746960_OUT1&#45;&gt;node_11493747008 -->
<g id="edge45" class="edge">
<title>inter_11493746960_OUT1&#45;&gt;node_11493747008</title>
<path fill="none" stroke="black" d="M749.27,-515.5C749.27,-515.5 818.73,-515.5 818.73,-515.5"/>
<polygon fill="black" stroke="black" points="818.73,-519 828.73,-515.5 818.73,-512 818.73,-519"/>
<text text-anchor="middle" x="817.73" y="-519.3" font-family="Times,serif" font-size="14.00">IN1</text>
</g>
<!-- node_11493747008&#45;&gt;inter_11493747008_OUT1 -->
<g id="edge47" class="edge">
<title>node_11493747008&#45;&gt;inter_11493747008_OUT1</title>
<path fill="none" stroke="black" d="M943,-499.5C943,-499.5 1012.32,-499.5 1012.32,-499.5"/>
<polygon fill="none" stroke="black" points="933,-496 943,-499.5 933,-503 933,-496"/>
<text text-anchor="middle" x="950.5" y="-488.3" font-family="Times,serif" font-size="14.00">OUT1</text>
</g>
<!-- node_11493748496&#45;&gt;inter_11493748496_OUT1 -->
<g id="edge50" class="edge">
<title>node_11493748496&#45;&gt;inter_11493748496_OUT1</title>
<path fill="none" stroke="black" d="M545.64,-392.5C545.64,-392.5 571.45,-392.5 571.45,-392.5"/>
<polygon fill="none" stroke="black" points="535.64,-389 545.64,-392.5 535.64,-396 535.64,-389"/>
<text text-anchor="middle" x="553.14" y="-381.3" font-family="Times,serif" font-size="14.00">OUT1</text>
</g>
<!-- inter_11493748208_OUT1 -->
<g id="node49" class="node">
<title>inter_11493748208_OUT1</title>
<ellipse fill="black" stroke="black" cx="1983.06" cy="-296.5" rx="0.36" ry="0.36"/>
</g>
<!-- node_11493748208&#45;&gt;inter_11493748208_OUT1 -->
<g id="edge53" class="edge">
<title>node_11493748208&#45;&gt;inter_11493748208_OUT1</title>
<path fill="none" stroke="black" d="M1956.86,-296.5C1956.86,-296.5 1982.64,-296.5 1982.64,-296.5"/>
<polygon fill="none" stroke="black" points="1946.86,-293 1956.86,-296.5 1946.86,-300 1946.86,-293"/>
<text text-anchor="middle" x="1964.36" y="-285.3" font-family="Times,serif" font-size="14.00">OUT1</text>
</g>
<!-- node_5218695584_OUT1 -->
<g id="node53" class="node">
<title>node_5218695584_OUT1</title>
<ellipse fill="black" stroke="black" cx="2019.78" cy="-296.5" rx="0.36" ry="0.36"/>
</g>
<!-- inter_11493748208_OUT1&#45;&gt;node_5218695584_OUT1 -->
<g id="edge62" class="edge">
<title>inter_11493748208_OUT1&#45;&gt;node_5218695584_OUT1</title>
<path fill="none" stroke="black" d="M1983.47,-296.5C1983.47,-296.5 2009.42,-296.5 2009.42,-296.5"/>
<polygon fill="none" stroke="black" points="2009.42,-300 2019.42,-296.5 2009.42,-293 2009.42,-300"/>
<text text-anchor="middle" x="2001.92" y="-285.3" font-family="Times,serif" font-size="14.00">OUT1</text>
</g>
<!-- node_11493743776&#45;&gt;inter_11493743776_OUT1 -->
<g id="edge55" class="edge">
<title>node_11493743776&#45;&gt;inter_11493743776_OUT1</title>
<path fill="none" stroke="black" d="M1394.21,-71.5C1394.21,-71.5 1443.68,-71.5 1443.68,-71.5"/>
<polygon fill="none" stroke="black" points="1384.21,-68 1394.21,-71.5 1384.21,-75 1384.21,-68"/>
<text text-anchor="middle" x="1401.71" y="-60.3" font-family="Times,serif" font-size="14.00">OUT1</text>
</g>
<!-- node_11493743632&#45;&gt;inter_11493743632_OUT1 -->
<g id="edge58" class="edge">
<title>node_11493743632&#45;&gt;inter_11493743632_OUT1</title>
<path fill="none" stroke="black" d="M1392.61,-325C1392.61,-325 1445.14,-325 1445.14,-325 1445.14,-325 1445.14,-337.74 1445.14,-339.34"/>
<polygon fill="none" stroke="black" points="1382.61,-321.5 1392.61,-325 1382.61,-328.5 1382.61,-321.5"/>
<text text-anchor="middle" x="1400.11" y="-313.8" font-family="Times,serif" font-size="14.00">OUT1</text>
</g>
<!-- node_11493743824&#45;&gt;inter_11493743824_OUT1 -->
<g id="edge61" class="edge">
<title>node_11493743824&#45;&gt;inter_11493743824_OUT1</title>
<path fill="none" stroke="black" d="M1389.84,-273.5C1389.84,-273.5 1444.08,-273.5 1444.08,-273.5"/>
<polygon fill="none" stroke="black" points="1379.84,-270 1389.84,-273.5 1379.84,-277 1379.84,-270"/>
<text text-anchor="middle" x="1397.34" y="-262.3" font-family="Times,serif" font-size="14.00">OUT1</text>
</g>
</g>
</svg>
