<?xml version="1.0" encoding="UTF-8" standalone="no"?>
<!DOCTYPE svg PUBLIC "-//W3C//DTD SVG 1.1//EN"
 "http://www.w3.org/Graphics/SVG/1.1/DTD/svg11.dtd">
<!-- Generated by graphviz version 3.0.0 (20220226.1711)
 -->
<!-- Title: model Pages: 1 -->
<svg width="1195pt" height="171pt"
 viewBox="0.00 0.00 1195.27 170.84" xmlns="http://www.w3.org/2000/svg" xmlns:xlink="http://www.w3.org/1999/xlink">
<g id="graph0" class="graph" transform="scale(1 1) rotate(0) translate(4 166.84)">
<title>model</title>
<polygon fill="white" stroke="transparent" points="-4,4 -4,-166.84 1191.27,-166.84 1191.27,4 -4,4"/>
<text text-anchor="start" x="478.14" y="-143.84" font-family="Times,serif" font-weight="bold" font-size="20.00">integrator (TrapezoidRule)</text>
<!-- node_4955213440_IN1 -->
<g id="node1" class="node">
<title>node_4955213440_IN1</title>
<ellipse fill="black" stroke="black" cx="71.42" cy="-132.48" rx="0.36" ry="0.36"/>
</g>
<!-- inter_4955213440_IN1 -->
<g id="node2" class="node">
<title>inter_4955213440_IN1</title>
<ellipse fill="black" stroke="black" cx="179.2" cy="-129.48" rx="0.36" ry="0.36"/>
</g>
<!-- node_4955213440_IN1&#45;&gt;inter_4955213440_IN1 -->
<g id="edge1" class="edge">
<title>node_4955213440_IN1&#45;&gt;inter_4955213440_IN1</title>
<path fill="none" stroke="black" d="M82.11,-132.48C82.11,-132.48 179.27,-132.48 179.27,-132.48 179.27,-132.48 179.27,-130.79 179.27,-129.95"/>
<polygon fill="black" stroke="black" points="72.11,-128.98 82.11,-132.48 72.11,-135.98 72.11,-128.98"/>
<text text-anchor="middle" x="83.11" y="-121.28" font-family="Times,serif" font-size="14.00">IN1</text>
</g>
<!-- node_10778132384 -->
<g id="node9" class="node">
<title>node_10778132384</title>
<polygon fill="none" stroke="black" points="296.56,-101.48 215.56,-101.48 215.56,-63.48 296.56,-63.48 296.56,-101.48"/>
<text text-anchor="middle" x="256.06" y="-86.28" font-family="Times,serif" font-size="14.00">DelayBlock</text>
<text text-anchor="middle" x="256.06" y="-71.28" font-family="Times,serif" font-size="14.00">(delayIn)</text>
</g>
<!-- inter_4955213440_IN1&#45;&gt;node_10778132384 -->
<g id="edge5" class="edge">
<title>inter_4955213440_IN1&#45;&gt;node_10778132384</title>
<path fill="none" stroke="black" d="M179.27,-129.05C179.27,-124.88 179.27,-91.48 179.27,-91.48 179.27,-91.48 205.41,-91.48 205.41,-91.48"/>
<polygon fill="black" stroke="black" points="205.41,-94.98 215.41,-91.48 205.41,-87.98 205.41,-94.98"/>
<text text-anchor="middle" x="204.41" y="-95.28" font-family="Times,serif" font-size="14.00">IN1</text>
</g>
<!-- node_11888330544 -->
<g id="node22" class="node">
<title>node_11888330544</title>
<polygon fill="none" stroke="black" points="487.97,-130.48 393.97,-130.48 393.97,-92.48 487.97,-92.48 487.97,-130.48"/>
<text text-anchor="middle" x="440.97" y="-115.28" font-family="Times,serif" font-size="14.00">AdderBlock</text>
<text text-anchor="middle" x="440.97" y="-100.28" font-family="Times,serif" font-size="14.00">(sumInstance)</text>
</g>
<!-- inter_4955213440_IN1&#45;&gt;node_11888330544 -->
<g id="edge21" class="edge">
<title>inter_4955213440_IN1&#45;&gt;node_11888330544</title>
<path fill="none" stroke="black" d="M179.62,-129.48C179.62,-129.48 383.77,-129.48 383.77,-129.48"/>
<polygon fill="black" stroke="black" points="383.77,-132.98 393.77,-129.48 383.77,-125.98 383.77,-132.98"/>
<text text-anchor="middle" x="382.77" y="-118.28" font-family="Times,serif" font-size="14.00">IN1</text>
</g>
<!-- node_4955213440_IC -->
<g id="node3" class="node">
<title>node_4955213440_IC</title>
<ellipse fill="black" stroke="black" cx="954.05" cy="-103.48" rx="0.36" ry="0.36"/>
</g>
<!-- inter_4955213440_IC -->
<g id="node4" class="node">
<title>inter_4955213440_IC</title>
<ellipse fill="black" stroke="black" cx="1032.05" cy="-103.48" rx="0.36" ry="0.36"/>
</g>
<!-- node_4955213440_IC&#45;&gt;inter_4955213440_IC -->
<g id="edge2" class="edge">
<title>node_4955213440_IC&#45;&gt;inter_4955213440_IC</title>
<path fill="none" stroke="black" d="M964.55,-103.48C964.55,-103.48 1031.6,-103.48 1031.6,-103.48"/>
<polygon fill="black" stroke="black" points="954.55,-99.98 964.55,-103.48 954.55,-106.98 954.55,-99.98"/>
<text text-anchor="middle" x="947.55" y="-92.28" font-family="Times,serif" font-size="14.00">IC</text>
</g>
<!-- node_11888323024 -->
<g id="node18" class="node">
<title>node_11888323024</title>
<polygon fill="none" stroke="black" points="1150.55,-122.48 1068.55,-122.48 1068.55,-84.48 1150.55,-84.48 1150.55,-122.48"/>
<text text-anchor="middle" x="1109.55" y="-107.28" font-family="Times,serif" font-size="14.00">DelayBlock</text>
<text text-anchor="middle" x="1109.55" y="-92.28" font-family="Times,serif" font-size="14.00">(delayState)</text>
</g>
<!-- inter_4955213440_IC&#45;&gt;node_11888323024 -->
<g id="edge16" class="edge">
<title>inter_4955213440_IC&#45;&gt;node_11888323024</title>
<path fill="none" stroke="black" d="M1032.55,-103.48C1032.55,-103.48 1058.33,-103.48 1058.33,-103.48"/>
<polygon fill="black" stroke="black" points="1058.33,-106.98 1068.33,-103.48 1058.33,-99.98 1058.33,-106.98"/>
<text text-anchor="middle" x="1061.33" y="-107.28" font-family="Times,serif" font-size="14.00">IC</text>
</g>
<!-- node_4953083040 -->
<g id="node5" class="node">
<title>node_4953083040</title>
<ellipse fill="none" stroke="black" cx="71.42" cy="-76.48" rx="71.34" ry="37.45"/>
<text text-anchor="middle" x="71.42" y="-87.78" font-family="Times,serif" font-size="14.00"> ConstantBlock</text>
<text text-anchor="middle" x="71.42" y="-72.78" font-family="Times,serif" font-size="14.00">(zero)</text>
<text text-anchor="middle" x="71.42" y="-57.78" font-family="Times,serif" font-size="14.00">0</text>
</g>
<!-- inter_4953083040_OUT1 -->
<g id="node6" class="node">
<title>inter_4953083040_OUT1</title>
<ellipse fill="black" stroke="black" cx="179.2" cy="-80.48" rx="0.36" ry="0.36"/>
</g>
<!-- node_4953083040&#45;&gt;inter_4953083040_OUT1 -->
<g id="edge3" class="edge">
<title>node_4953083040&#45;&gt;inter_4953083040_OUT1</title>
<path fill="none" stroke="black" d="M152.71,-80.48C152.71,-80.48 178.77,-80.48 178.77,-80.48"/>
<polygon fill="none" stroke="black" points="142.71,-76.98 152.71,-80.48 142.71,-83.98 142.71,-76.98"/>
<text text-anchor="middle" x="160.21" y="-69.28" font-family="Times,serif" font-size="14.00">OUT1</text>
</g>
<!-- inter_4953083040_OUT1&#45;&gt;node_10778132384 -->
<g id="edge6" class="edge">
<title>inter_4953083040_OUT1&#45;&gt;node_10778132384</title>
<path fill="none" stroke="black" d="M179.69,-80.48C179.69,-80.48 205.18,-80.48 205.18,-80.48"/>
<polygon fill="black" stroke="black" points="205.18,-83.98 215.18,-80.48 205.18,-76.98 205.18,-83.98"/>
<text text-anchor="middle" x="208.18" y="-69.28" font-family="Times,serif" font-size="14.00">IC</text>
</g>
<!-- node_10778131136 -->
<g id="node7" class="node">
<title>node_10778131136</title>
<ellipse fill="none" stroke="black" cx="440.97" cy="-37.48" rx="71.34" ry="37.45"/>
<text text-anchor="middle" x="440.97" y="-48.78" font-family="Times,serif" font-size="14.00"> ConstantBlock</text>
<text text-anchor="middle" x="440.97" y="-33.78" font-family="Times,serif" font-size="14.00">(half)</text>
<text text-anchor="middle" x="440.97" y="-18.78" font-family="Times,serif" font-size="14.00">0.5</text>
</g>
<!-- inter_10778131136_OUT1 -->
<g id="node8" class="node">
<title>inter_10778131136_OUT1</title>
<ellipse fill="black" stroke="black" cx="548.75" cy="-64.48" rx="0.36" ry="0.36"/>
</g>
<!-- node_10778131136&#45;&gt;inter_10778131136_OUT1 -->
<g id="edge4" class="edge">
<title>node_10778131136&#45;&gt;inter_10778131136_OUT1</title>
<path fill="none" stroke="black" d="M500.76,-64.48C500.76,-64.48 547.99,-64.48 547.99,-64.48"/>
<polygon fill="none" stroke="black" points="490.76,-60.98 500.76,-64.48 490.76,-67.98 490.76,-60.98"/>
<text text-anchor="middle" x="508.26" y="-68.28" font-family="Times,serif" font-size="14.00">OUT1</text>
</g>
<!-- node_11888324368 -->
<g id="node16" class="node">
<title>node_11888324368</title>
<polygon fill="none" stroke="black" points="676.11,-100.48 585.11,-100.48 585.11,-62.48 676.11,-62.48 676.11,-100.48"/>
<text text-anchor="middle" x="630.61" y="-85.28" font-family="Times,serif" font-size="14.00">ProductBlock</text>
<text text-anchor="middle" x="630.61" y="-70.28" font-family="Times,serif" font-size="14.00">(division)</text>
</g>
<!-- inter_10778131136_OUT1&#45;&gt;node_11888324368 -->
<g id="edge13" class="edge">
<title>inter_10778131136_OUT1&#45;&gt;node_11888324368</title>
<path fill="none" stroke="black" d="M549.27,-64.48C549.27,-64.48 574.8,-64.48 574.8,-64.48"/>
<polygon fill="black" stroke="black" points="574.8,-67.98 584.8,-64.48 574.8,-60.98 574.8,-67.98"/>
<text text-anchor="middle" x="573.8" y="-53.28" font-family="Times,serif" font-size="14.00">IN2</text>
</g>
<!-- inter_10778132384_OUT1 -->
<g id="node10" class="node">
<title>inter_10778132384_OUT1</title>
<ellipse fill="black" stroke="black" cx="333.06" cy="-92.48" rx="0.36" ry="0.36"/>
</g>
<!-- node_10778132384&#45;&gt;inter_10778132384_OUT1 -->
<g id="edge7" class="edge">
<title>node_10778132384&#45;&gt;inter_10778132384_OUT1</title>
<path fill="none" stroke="black" d="M306.81,-92.48C306.81,-92.48 332.6,-92.48 332.6,-92.48"/>
<polygon fill="none" stroke="black" points="296.81,-88.98 306.81,-92.48 296.81,-95.98 296.81,-88.98"/>
<text text-anchor="middle" x="314.31" y="-81.28" font-family="Times,serif" font-size="14.00">OUT1</text>
</g>
<!-- inter_10778132384_OUT1&#45;&gt;node_11888330544 -->
<g id="edge22" class="edge">
<title>inter_10778132384_OUT1&#45;&gt;node_11888330544</title>
<path fill="none" stroke="black" d="M333.13,-92.98C333.13,-92.98 383.86,-92.98 383.86,-92.98"/>
<polygon fill="black" stroke="black" points="383.86,-96.48 393.86,-92.98 383.86,-89.48 383.86,-96.48"/>
<text text-anchor="middle" x="382.86" y="-81.78" font-family="Times,serif" font-size="14.00">IN2</text>
</g>
<!-- node_11233115248 -->
<g id="node11" class="node">
<title>node_11233115248</title>
<polygon fill="none" stroke="black" points="673.61,-44.48 587.61,-44.48 587.61,-6.48 673.61,-6.48 673.61,-44.48"/>
<text text-anchor="middle" x="630.61" y="-29.28" font-family="Times,serif" font-size="14.00">DeltaTBlock</text>
<text text-anchor="middle" x="630.61" y="-14.28" font-family="Times,serif" font-size="14.00">(delta_t)</text>
</g>
<!-- inter_11233115248_OUT1 -->
<g id="node12" class="node">
<title>inter_11233115248_OUT1</title>
<ellipse fill="black" stroke="black" cx="712.47" cy="-43.48" rx="0.36" ry="0.36"/>
</g>
<!-- node_11233115248&#45;&gt;inter_11233115248_OUT1 -->
<g id="edge8" class="edge">
<title>node_11233115248&#45;&gt;inter_11233115248_OUT1</title>
<path fill="none" stroke="black" d="M683.94,-43.48C683.94,-43.48 711.99,-43.48 711.99,-43.48"/>
<polygon fill="none" stroke="black" points="673.94,-39.98 683.94,-43.48 673.94,-46.98 673.94,-39.98"/>
<text text-anchor="middle" x="691.44" y="-32.28" font-family="Times,serif" font-size="14.00">OUT1</text>
</g>
<!-- node_11888323504 -->
<g id="node13" class="node">
<title>node_11888323504</title>
<polygon fill="none" stroke="black" points="839.83,-71.48 748.83,-71.48 748.83,-33.48 839.83,-33.48 839.83,-71.48"/>
<text text-anchor="middle" x="794.33" y="-56.28" font-family="Times,serif" font-size="14.00">ProductBlock</text>
<text text-anchor="middle" x="794.33" y="-41.28" font-family="Times,serif" font-size="14.00">(multDelta)</text>
</g>
<!-- inter_11233115248_OUT1&#45;&gt;node_11888323504 -->
<g id="edge10" class="edge">
<title>inter_11233115248_OUT1&#45;&gt;node_11888323504</title>
<path fill="none" stroke="black" d="M712.99,-43.48C712.99,-43.48 738.52,-43.48 738.52,-43.48"/>
<polygon fill="black" stroke="black" points="738.52,-46.98 748.52,-43.48 738.52,-39.98 738.52,-46.98"/>
<text text-anchor="middle" x="737.52" y="-32.28" font-family="Times,serif" font-size="14.00">IN2</text>
</g>
<!-- inter_11888323504_OUT1 -->
<g id="node15" class="node">
<title>inter_11888323504_OUT1</title>
<ellipse fill="black" stroke="black" cx="876.19" cy="-52.48" rx="0.36" ry="0.36"/>
</g>
<!-- node_11888323504&#45;&gt;inter_11888323504_OUT1 -->
<g id="edge11" class="edge">
<title>node_11888323504&#45;&gt;inter_11888323504_OUT1</title>
<path fill="none" stroke="black" d="M850.05,-52.48C850.05,-52.48 875.75,-52.48 875.75,-52.48"/>
<polygon fill="none" stroke="black" points="840.05,-48.98 850.05,-52.48 840.05,-55.98 840.05,-48.98"/>
<text text-anchor="middle" x="857.55" y="-41.28" font-family="Times,serif" font-size="14.00">OUT1</text>
</g>
<!-- inter_11888324368_OUT1 -->
<g id="node14" class="node">
<title>inter_11888324368_OUT1</title>
<ellipse fill="black" stroke="black" cx="712.47" cy="-71.48" rx="0.36" ry="0.36"/>
</g>
<!-- inter_11888324368_OUT1&#45;&gt;node_11888323504 -->
<g id="edge9" class="edge">
<title>inter_11888324368_OUT1&#45;&gt;node_11888323504</title>
<path fill="none" stroke="black" d="M712.53,-70.98C712.53,-70.98 738.7,-70.98 738.7,-70.98"/>
<polygon fill="black" stroke="black" points="738.7,-74.48 748.7,-70.98 738.7,-67.48 738.7,-74.48"/>
<text text-anchor="middle" x="737.7" y="-59.78" font-family="Times,serif" font-size="14.00">IN1</text>
</g>
<!-- node_11888331792 -->
<g id="node21" class="node">
<title>node_11888331792</title>
<polygon fill="none" stroke="black" points="995.55,-71.48 912.55,-71.48 912.55,-33.48 995.55,-33.48 995.55,-71.48"/>
<text text-anchor="middle" x="954.05" y="-56.28" font-family="Times,serif" font-size="14.00">AdderBlock</text>
<text text-anchor="middle" x="954.05" y="-41.28" font-family="Times,serif" font-size="14.00">(sumState)</text>
</g>
<!-- inter_11888323504_OUT1&#45;&gt;node_11888331792 -->
<g id="edge18" class="edge">
<title>inter_11888323504_OUT1&#45;&gt;node_11888331792</title>
<path fill="none" stroke="black" d="M876.69,-52.48C876.69,-52.48 902.21,-52.48 902.21,-52.48"/>
<polygon fill="black" stroke="black" points="902.21,-55.98 912.21,-52.48 902.21,-48.98 902.21,-55.98"/>
<text text-anchor="middle" x="901.21" y="-41.28" font-family="Times,serif" font-size="14.00">IN1</text>
</g>
<!-- node_11888324368&#45;&gt;inter_11888324368_OUT1 -->
<g id="edge14" class="edge">
<title>node_11888324368&#45;&gt;inter_11888324368_OUT1</title>
<path fill="none" stroke="black" d="M686.33,-71.48C686.33,-71.48 712.03,-71.48 712.03,-71.48"/>
<polygon fill="none" stroke="black" points="676.33,-67.98 686.33,-71.48 676.33,-74.98 676.33,-67.98"/>
<text text-anchor="middle" x="693.83" y="-60.28" font-family="Times,serif" font-size="14.00">OUT1</text>
</g>
<!-- inter_11888330544_OUT1 -->
<g id="node17" class="node">
<title>inter_11888330544_OUT1</title>
<ellipse fill="black" stroke="black" cx="548.75" cy="-97.48" rx="0.36" ry="0.36"/>
</g>
<!-- inter_11888330544_OUT1&#45;&gt;node_11888324368 -->
<g id="edge12" class="edge">
<title>inter_11888330544_OUT1&#45;&gt;node_11888324368</title>
<path fill="none" stroke="black" d="M549.27,-97.48C549.27,-97.48 574.8,-97.48 574.8,-97.48"/>
<polygon fill="black" stroke="black" points="574.8,-100.98 584.8,-97.48 574.8,-93.98 574.8,-100.98"/>
<text text-anchor="middle" x="573.8" y="-86.28" font-family="Times,serif" font-size="14.00">IN1</text>
</g>
<!-- inter_11888323024_OUT1 -->
<g id="node20" class="node">
<title>inter_11888323024_OUT1</title>
<ellipse fill="black" stroke="black" cx="1186.91" cy="-70.48" rx="0.36" ry="0.36"/>
</g>
<!-- node_11888323024&#45;&gt;inter_11888323024_OUT1 -->
<g id="edge17" class="edge">
<title>node_11888323024&#45;&gt;inter_11888323024_OUT1</title>
<path fill="none" stroke="black" d="M1160.69,-103.48C1160.69,-103.48 1187.27,-103.48 1187.27,-103.48 1187.27,-103.48 1187.27,-72.51 1187.27,-70.57"/>
<polygon fill="none" stroke="black" points="1150.69,-99.98 1160.69,-103.48 1150.69,-106.98 1150.69,-99.98"/>
<text text-anchor="middle" x="1168.19" y="-92.28" font-family="Times,serif" font-size="14.00">OUT1</text>
</g>
<!-- inter_11888331792_OUT1 -->
<g id="node19" class="node">
<title>inter_11888331792_OUT1</title>
<ellipse fill="black" stroke="black" cx="1032.05" cy="-66.48" rx="0.36" ry="0.36"/>
</g>
<!-- inter_11888331792_OUT1&#45;&gt;node_11888323024 -->
<g id="edge15" class="edge">
<title>inter_11888331792_OUT1&#45;&gt;node_11888323024</title>
<path fill="none" stroke="black" d="M1032.27,-66.77C1032.27,-69.63 1032.27,-92.48 1032.27,-92.48 1032.27,-92.48 1058.2,-92.48 1058.2,-92.48"/>
<polygon fill="black" stroke="black" points="1058.2,-95.98 1068.2,-92.48 1058.2,-88.98 1058.2,-95.98"/>
<text text-anchor="middle" x="1057.2" y="-81.28" font-family="Times,serif" font-size="14.00">IN1</text>
</g>
<!-- node_4955213440_OUT1 -->
<g id="node23" class="node">
<title>node_4955213440_OUT1</title>
<ellipse fill="black" stroke="black" cx="1109.55" cy="-66.48" rx="0.36" ry="0.36"/>
</g>
<!-- inter_11888331792_OUT1&#45;&gt;node_4955213440_OUT1 -->
<g id="edge24" class="edge">
<title>inter_11888331792_OUT1&#45;&gt;node_4955213440_OUT1</title>
<path fill="none" stroke="black" d="M1032.55,-66.48C1032.55,-66.48 1099.1,-66.48 1099.1,-66.48"/>
<polygon fill="none" stroke="black" points="1099.1,-69.98 1109.1,-66.48 1099.1,-62.98 1099.1,-69.98"/>
<text text-anchor="middle" x="1091.6" y="-55.28" font-family="Times,serif" font-size="14.00">OUT1</text>
</g>
<!-- inter_11888323024_OUT1&#45;&gt;node_11888331792 -->
<g id="edge19" class="edge">
<title>inter_11888323024_OUT1&#45;&gt;node_11888331792</title>
<path fill="none" stroke="black" d="M1186.24,-70.48C1186.24,-70.48 1005.71,-70.48 1005.71,-70.48"/>
<polygon fill="black" stroke="black" points="1005.71,-66.98 995.71,-70.48 1005.71,-73.98 1005.71,-66.98"/>
<text text-anchor="middle" x="1006.71" y="-74.28" font-family="Times,serif" font-size="14.00">IN2</text>
</g>
<!-- node_11888331792&#45;&gt;inter_11888331792_OUT1 -->
<g id="edge20" class="edge">
<title>node_11888331792&#45;&gt;inter_11888331792_OUT1</title>
<path fill="none" stroke="black" d="M1005.79,-66.48C1005.79,-66.48 1031.6,-66.48 1031.6,-66.48"/>
<polygon fill="none" stroke="black" points="995.79,-62.98 1005.79,-66.48 995.79,-69.98 995.79,-62.98"/>
<text text-anchor="middle" x="1013.29" y="-55.28" font-family="Times,serif" font-size="14.00">OUT1</text>
</g>
<!-- node_11888330544&#45;&gt;inter_11888330544_OUT1 -->
<g id="edge23" class="edge">
<title>node_11888330544&#45;&gt;inter_11888330544_OUT1</title>
<path fill="none" stroke="black" d="M498.25,-97.48C498.25,-97.48 548.39,-97.48 548.39,-97.48"/>
<polygon fill="none" stroke="black" points="488.25,-93.98 498.25,-97.48 488.25,-100.98 488.25,-93.98"/>
<text text-anchor="middle" x="505.75" y="-86.28" font-family="Times,serif" font-size="14.00">OUT1</text>
</g>
</g>
</svg>
