<?xml version="1.0" encoding="UTF-8" standalone="no"?>
<!DOCTYPE svg PUBLIC "-//W3C//DTD SVG 1.1//EN"
 "http://www.w3.org/Graphics/SVG/1.1/DTD/svg11.dtd">
<!-- Generated by graphviz version 2.43.0 (0)
 -->
<!-- Title: model Pages: 1 -->
<svg width="1363pt" height="171pt"
 viewBox="0.00 0.00 1362.56 170.84" xmlns="http://www.w3.org/2000/svg" xmlns:xlink="http://www.w3.org/1999/xlink">
<g id="graph0" class="graph" transform="scale(1 1) rotate(0) translate(4 166.84)">
<title>model</title>
<polygon fill="white" stroke="transparent" points="-4,4 -4,-166.84 1358.56,-166.84 1358.56,4 -4,4"/>
<text text-anchor="start" x="526.28" y="-143.84" font-family="Times,serif" font-weight="bold" font-size="20.00">integrator (TrapezoidRule)</text>
<!-- node_139806871873808_IN1 -->
<g id="node1" class="node">
<title>node_139806871873808_IN1</title>
<ellipse fill="black" stroke="black" cx="88.39" cy="-132.48" rx="0.36" ry="0.36"/>
</g>
<!-- inter_139806871873808_IN1 -->
<g id="node2" class="node">
<title>inter_139806871873808_IN1</title>
<ellipse fill="black" stroke="black" cx="213.14" cy="-129.48" rx="0.36" ry="0.36"/>
</g>
<!-- node_139806871873808_IN1&#45;&gt;inter_139806871873808_IN1 -->
<g id="edge1" class="edge">
<title>node_139806871873808_IN1&#45;&gt;inter_139806871873808_IN1</title>
<path fill="none" stroke="black" d="M99.19,-132.48C99.19,-132.48 213.15,-132.48 213.15,-132.48 213.15,-132.48 213.15,-130.79 213.15,-129.95"/>
<polygon fill="black" stroke="black" points="89.19,-128.98 99.19,-132.48 89.19,-135.98 89.19,-128.98"/>
<text text-anchor="middle" x="102.69" y="-121.28" font-family="Times,serif" font-size="14.00">IN1</text>
</g>
<!-- node_139806839216784 -->
<g id="node9" class="node">
<title>node_139806839216784</title>
<polygon fill="none" stroke="black" points="345.5,-101.48 249.5,-101.48 249.5,-63.48 345.5,-63.48 345.5,-101.48"/>
<text text-anchor="middle" x="297.5" y="-86.28" font-family="Times,serif" font-size="14.00">DelayBlock</text>
<text text-anchor="middle" x="297.5" y="-71.28" font-family="Times,serif" font-size="14.00">(delayIn)</text>
</g>
<!-- inter_139806871873808_IN1&#45;&gt;node_139806839216784 -->
<g id="edge5" class="edge">
<title>inter_139806871873808_IN1&#45;&gt;node_139806839216784</title>
<path fill="none" stroke="black" d="M213.15,-129.05C213.15,-124.88 213.15,-91.48 213.15,-91.48 213.15,-91.48 239.41,-91.48 239.41,-91.48"/>
<polygon fill="black" stroke="black" points="239.41,-94.98 249.41,-91.48 239.41,-87.98 239.41,-94.98"/>
<text text-anchor="middle" x="235.91" y="-95.28" font-family="Times,serif" font-size="14.00">IN1</text>
</g>
<!-- node_139806658420256 -->
<g id="node22" class="node">
<title>node_139806658420256</title>
<polygon fill="none" stroke="black" points="565.89,-130.48 447.89,-130.48 447.89,-92.48 565.89,-92.48 565.89,-130.48"/>
<text text-anchor="middle" x="506.89" y="-115.28" font-family="Times,serif" font-size="14.00">AdderBlock</text>
<text text-anchor="middle" x="506.89" y="-100.28" font-family="Times,serif" font-size="14.00">(sumInstance)</text>
</g>
<!-- inter_139806871873808_IN1&#45;&gt;node_139806658420256 -->
<g id="edge21" class="edge">
<title>inter_139806871873808_IN1&#45;&gt;node_139806658420256</title>
<path fill="none" stroke="black" d="M213.61,-129.48C213.61,-129.48 437.82,-129.48 437.82,-129.48"/>
<polygon fill="black" stroke="black" points="437.82,-132.98 447.82,-129.48 437.82,-125.98 437.82,-132.98"/>
<text text-anchor="middle" x="434.32" y="-118.28" font-family="Times,serif" font-size="14.00">IN1</text>
</g>
<!-- node_139806871873808_IC -->
<g id="node3" class="node">
<title>node_139806871873808_IC</title>
<ellipse fill="black" stroke="black" cx="1086.43" cy="-103.48" rx="0.36" ry="0.36"/>
</g>
<!-- inter_139806871873808_IC -->
<g id="node4" class="node">
<title>inter_139806871873808_IC</title>
<ellipse fill="black" stroke="black" cx="1171.93" cy="-103.48" rx="0.36" ry="0.36"/>
</g>
<!-- node_139806871873808_IC&#45;&gt;inter_139806871873808_IC -->
<g id="edge2" class="edge">
<title>node_139806871873808_IC&#45;&gt;inter_139806871873808_IC</title>
<path fill="none" stroke="black" d="M1096.98,-103.48C1096.98,-103.48 1171.44,-103.48 1171.44,-103.48"/>
<polygon fill="black" stroke="black" points="1086.98,-99.98 1096.98,-103.48 1086.98,-106.98 1086.98,-99.98"/>
<text text-anchor="middle" x="1078.98" y="-92.28" font-family="Times,serif" font-size="14.00">IC</text>
</g>
<!-- node_139806658423920 -->
<g id="node18" class="node">
<title>node_139806658423920</title>
<polygon fill="none" stroke="black" points="1312.43,-122.48 1208.43,-122.48 1208.43,-84.48 1312.43,-84.48 1312.43,-122.48"/>
<text text-anchor="middle" x="1260.43" y="-107.28" font-family="Times,serif" font-size="14.00">DelayBlock</text>
<text text-anchor="middle" x="1260.43" y="-92.28" font-family="Times,serif" font-size="14.00">(delayState)</text>
</g>
<!-- inter_139806871873808_IC&#45;&gt;node_139806658423920 -->
<g id="edge16" class="edge">
<title>inter_139806871873808_IC&#45;&gt;node_139806658423920</title>
<path fill="none" stroke="black" d="M1172.5,-103.48C1172.5,-103.48 1197.97,-103.48 1197.97,-103.48"/>
<polygon fill="black" stroke="black" points="1197.97,-106.98 1207.97,-103.48 1197.97,-99.98 1197.97,-106.98"/>
<text text-anchor="middle" x="1199.97" y="-92.28" font-family="Times,serif" font-size="14.00">IC</text>
</g>
<!-- node_139806839231488 -->
<g id="node5" class="node">
<title>node_139806839231488</title>
<ellipse fill="none" stroke="black" cx="88.39" cy="-76.48" rx="88.28" ry="37.45"/>
<text text-anchor="middle" x="88.39" y="-87.78" font-family="Times,serif" font-size="14.00"> ConstantBlock</text>
<text text-anchor="middle" x="88.39" y="-72.78" font-family="Times,serif" font-size="14.00">(zero)</text>
<text text-anchor="middle" x="88.39" y="-57.78" font-family="Times,serif" font-size="14.00">0</text>
</g>
<!-- inter_139806839231488_OUT1 -->
<g id="node6" class="node">
<title>inter_139806839231488_OUT1</title>
<ellipse fill="black" stroke="black" cx="213.14" cy="-80.48" rx="0.36" ry="0.36"/>
</g>
<!-- node_139806839231488&#45;&gt;inter_139806839231488_OUT1 -->
<g id="edge3" class="edge">
<title>node_139806839231488&#45;&gt;inter_139806839231488_OUT1</title>
<path fill="none" stroke="black" d="M186.38,-80.48C186.38,-80.48 212.72,-80.48 212.72,-80.48"/>
<polygon fill="none" stroke="black" points="176.38,-76.98 186.38,-80.48 176.38,-83.98 176.38,-76.98"/>
<text text-anchor="middle" x="197.38" y="-69.28" font-family="Times,serif" font-size="14.00">OUT1</text>
</g>
<!-- inter_139806839231488_OUT1&#45;&gt;node_139806839216784 -->
<g id="edge6" class="edge">
<title>inter_139806839231488_OUT1&#45;&gt;node_139806839216784</title>
<path fill="none" stroke="black" d="M213.68,-80.48C213.68,-80.48 239.35,-80.48 239.35,-80.48"/>
<polygon fill="black" stroke="black" points="239.35,-83.98 249.35,-80.48 239.35,-76.98 239.35,-83.98"/>
<text text-anchor="middle" x="241.35" y="-69.28" font-family="Times,serif" font-size="14.00">IC</text>
</g>
<!-- node_139806839216736 -->
<g id="node7" class="node">
<title>node_139806839216736</title>
<ellipse fill="none" stroke="black" cx="506.89" cy="-37.48" rx="88.28" ry="37.45"/>
<text text-anchor="middle" x="506.89" y="-48.78" font-family="Times,serif" font-size="14.00"> ConstantBlock</text>
<text text-anchor="middle" x="506.89" y="-33.78" font-family="Times,serif" font-size="14.00">(half)</text>
<text text-anchor="middle" x="506.89" y="-18.78" font-family="Times,serif" font-size="14.00">0.5</text>
</g>
<!-- inter_139806839216736_OUT1 -->
<g id="node8" class="node">
<title>inter_139806839216736_OUT1</title>
<ellipse fill="black" stroke="black" cx="631.63" cy="-64.48" rx="0.36" ry="0.36"/>
</g>
<!-- node_139806839216736&#45;&gt;inter_139806839216736_OUT1 -->
<g id="edge4" class="edge">
<title>node_139806839216736&#45;&gt;inter_139806839216736_OUT1</title>
<path fill="none" stroke="black" d="M578.53,-64.48C578.53,-64.48 631.27,-64.48 631.27,-64.48"/>
<polygon fill="none" stroke="black" points="568.53,-60.98 578.53,-64.48 568.53,-67.98 568.53,-60.98"/>
<text text-anchor="middle" x="589.53" y="-68.28" font-family="Times,serif" font-size="14.00">OUT1</text>
</g>
<!-- node_139806658424784 -->
<g id="node16" class="node">
<title>node_139806658424784</title>
<polygon fill="none" stroke="black" points="779.99,-100.48 667.99,-100.48 667.99,-62.48 779.99,-62.48 779.99,-100.48"/>
<text text-anchor="middle" x="723.99" y="-85.28" font-family="Times,serif" font-size="14.00">ProductBlock</text>
<text text-anchor="middle" x="723.99" y="-70.28" font-family="Times,serif" font-size="14.00">(division)</text>
</g>
<!-- inter_139806839216736_OUT1&#45;&gt;node_139806658424784 -->
<g id="edge13" class="edge">
<title>inter_139806839216736_OUT1&#45;&gt;node_139806658424784</title>
<path fill="none" stroke="black" d="M632.22,-64.48C632.22,-64.48 657.97,-64.48 657.97,-64.48"/>
<polygon fill="black" stroke="black" points="657.97,-67.98 667.97,-64.48 657.97,-60.98 657.97,-67.98"/>
<text text-anchor="middle" x="654.47" y="-53.28" font-family="Times,serif" font-size="14.00">IN2</text>
</g>
<!-- inter_139806839216784_OUT1 -->
<g id="node10" class="node">
<title>inter_139806839216784_OUT1</title>
<ellipse fill="black" stroke="black" cx="382" cy="-92.48" rx="0.36" ry="0.36"/>
</g>
<!-- node_139806839216784&#45;&gt;inter_139806839216784_OUT1 -->
<g id="edge7" class="edge">
<title>node_139806839216784&#45;&gt;inter_139806839216784_OUT1</title>
<path fill="none" stroke="black" d="M355.67,-92.48C355.67,-92.48 381.55,-92.48 381.55,-92.48"/>
<polygon fill="none" stroke="black" points="345.67,-88.98 355.67,-92.48 345.67,-95.98 345.67,-88.98"/>
<text text-anchor="middle" x="366.67" y="-81.28" font-family="Times,serif" font-size="14.00">OUT1</text>
</g>
<!-- inter_139806839216784_OUT1&#45;&gt;node_139806658420256 -->
<g id="edge22" class="edge">
<title>inter_139806839216784_OUT1&#45;&gt;node_139806658420256</title>
<path fill="none" stroke="black" d="M382.09,-92.98C382.09,-92.98 437.7,-92.98 437.7,-92.98"/>
<polygon fill="black" stroke="black" points="437.7,-96.48 447.7,-92.98 437.7,-89.48 437.7,-96.48"/>
<text text-anchor="middle" x="434.2" y="-81.78" font-family="Times,serif" font-size="14.00">IN2</text>
</g>
<!-- node_139806839217360 -->
<g id="node11" class="node">
<title>node_139806839217360</title>
<polygon fill="none" stroke="black" points="775.49,-44.48 672.49,-44.48 672.49,-6.48 775.49,-6.48 775.49,-44.48"/>
<text text-anchor="middle" x="723.99" y="-29.28" font-family="Times,serif" font-size="14.00">DeltaTBlock</text>
<text text-anchor="middle" x="723.99" y="-14.28" font-family="Times,serif" font-size="14.00">(delta_t)</text>
</g>
<!-- inter_139806839217360_OUT1 -->
<g id="node12" class="node">
<title>inter_139806839217360_OUT1</title>
<ellipse fill="black" stroke="black" cx="816.35" cy="-43.48" rx="0.36" ry="0.36"/>
</g>
<!-- node_139806839217360&#45;&gt;inter_139806839217360_OUT1 -->
<g id="edge8" class="edge">
<title>node_139806839217360&#45;&gt;inter_139806839217360_OUT1</title>
<path fill="none" stroke="black" d="M785.57,-43.48C785.57,-43.48 815.85,-43.48 815.85,-43.48"/>
<polygon fill="none" stroke="black" points="775.57,-39.98 785.57,-43.48 775.57,-46.98 775.57,-39.98"/>
<text text-anchor="middle" x="796.57" y="-32.28" font-family="Times,serif" font-size="14.00">OUT1</text>
</g>
<!-- node_139806658426576 -->
<g id="node13" class="node">
<title>node_139806658426576</title>
<polygon fill="none" stroke="black" points="964.71,-71.48 852.71,-71.48 852.71,-33.48 964.71,-33.48 964.71,-71.48"/>
<text text-anchor="middle" x="908.71" y="-56.28" font-family="Times,serif" font-size="14.00">ProductBlock</text>
<text text-anchor="middle" x="908.71" y="-41.28" font-family="Times,serif" font-size="14.00">(multDelta)</text>
</g>
<!-- inter_139806839217360_OUT1&#45;&gt;node_139806658426576 -->
<g id="edge10" class="edge">
<title>inter_139806839217360_OUT1&#45;&gt;node_139806658426576</title>
<path fill="none" stroke="black" d="M816.94,-43.48C816.94,-43.48 842.69,-43.48 842.69,-43.48"/>
<polygon fill="black" stroke="black" points="842.69,-46.98 852.69,-43.48 842.69,-39.98 842.69,-46.98"/>
<text text-anchor="middle" x="839.19" y="-32.28" font-family="Times,serif" font-size="14.00">IN2</text>
</g>
<!-- inter_139806658426576_OUT1 -->
<g id="node15" class="node">
<title>inter_139806658426576_OUT1</title>
<ellipse fill="black" stroke="black" cx="1001.07" cy="-52.48" rx="0.36" ry="0.36"/>
</g>
<!-- node_139806658426576&#45;&gt;inter_139806658426576_OUT1 -->
<g id="edge11" class="edge">
<title>node_139806658426576&#45;&gt;inter_139806658426576_OUT1</title>
<path fill="none" stroke="black" d="M974.84,-52.48C974.84,-52.48 1000.64,-52.48 1000.64,-52.48"/>
<polygon fill="none" stroke="black" points="964.84,-48.98 974.84,-52.48 964.84,-55.98 964.84,-48.98"/>
<text text-anchor="middle" x="985.84" y="-41.28" font-family="Times,serif" font-size="14.00">OUT1</text>
</g>
<!-- inter_139806658424784_OUT1 -->
<g id="node14" class="node">
<title>inter_139806658424784_OUT1</title>
<ellipse fill="black" stroke="black" cx="816.35" cy="-71.48" rx="0.36" ry="0.36"/>
</g>
<!-- inter_139806658424784_OUT1&#45;&gt;node_139806658426576 -->
<g id="edge9" class="edge">
<title>inter_139806658424784_OUT1&#45;&gt;node_139806658426576</title>
<path fill="none" stroke="black" d="M816.42,-70.98C816.42,-70.98 842.5,-70.98 842.5,-70.98"/>
<polygon fill="black" stroke="black" points="842.5,-74.48 852.5,-70.98 842.5,-67.48 842.5,-74.48"/>
<text text-anchor="middle" x="839" y="-59.78" font-family="Times,serif" font-size="14.00">IN1</text>
</g>
<!-- node_139806658423872 -->
<g id="node21" class="node">
<title>node_139806658423872</title>
<polygon fill="none" stroke="black" points="1135.43,-71.48 1037.43,-71.48 1037.43,-33.48 1135.43,-33.48 1135.43,-71.48"/>
<text text-anchor="middle" x="1086.43" y="-56.28" font-family="Times,serif" font-size="14.00">AdderBlock</text>
<text text-anchor="middle" x="1086.43" y="-41.28" font-family="Times,serif" font-size="14.00">(sumState)</text>
</g>
<!-- inter_139806658426576_OUT1&#45;&gt;node_139806658423872 -->
<g id="edge18" class="edge">
<title>inter_139806658426576_OUT1&#45;&gt;node_139806658423872</title>
<path fill="none" stroke="black" d="M1001.62,-52.48C1001.62,-52.48 1027.24,-52.48 1027.24,-52.48"/>
<polygon fill="black" stroke="black" points="1027.24,-55.98 1037.24,-52.48 1027.24,-48.98 1027.24,-55.98"/>
<text text-anchor="middle" x="1023.74" y="-41.28" font-family="Times,serif" font-size="14.00">IN1</text>
</g>
<!-- node_139806658424784&#45;&gt;inter_139806658424784_OUT1 -->
<g id="edge14" class="edge">
<title>node_139806658424784&#45;&gt;inter_139806658424784_OUT1</title>
<path fill="none" stroke="black" d="M790.12,-71.48C790.12,-71.48 815.92,-71.48 815.92,-71.48"/>
<polygon fill="none" stroke="black" points="780.12,-67.98 790.12,-71.48 780.12,-74.98 780.12,-67.98"/>
<text text-anchor="middle" x="801.12" y="-60.28" font-family="Times,serif" font-size="14.00">OUT1</text>
</g>
<!-- inter_139806658420256_OUT1 -->
<g id="node17" class="node">
<title>inter_139806658420256_OUT1</title>
<ellipse fill="black" stroke="black" cx="631.63" cy="-97.48" rx="0.36" ry="0.36"/>
</g>
<!-- inter_139806658420256_OUT1&#45;&gt;node_139806658424784 -->
<g id="edge12" class="edge">
<title>inter_139806658420256_OUT1&#45;&gt;node_139806658424784</title>
<path fill="none" stroke="black" d="M632.22,-97.48C632.22,-97.48 657.97,-97.48 657.97,-97.48"/>
<polygon fill="black" stroke="black" points="657.97,-100.98 667.97,-97.48 657.97,-93.98 657.97,-100.98"/>
<text text-anchor="middle" x="654.47" y="-86.28" font-family="Times,serif" font-size="14.00">IN1</text>
</g>
<!-- inter_139806658423920_OUT1 -->
<g id="node20" class="node">
<title>inter_139806658423920_OUT1</title>
<ellipse fill="black" stroke="black" cx="1348.79" cy="-70.48" rx="0.36" ry="0.36"/>
</g>
<!-- node_139806658423920&#45;&gt;inter_139806658423920_OUT1 -->
<g id="edge17" class="edge">
<title>node_139806658423920&#45;&gt;inter_139806658423920_OUT1</title>
<path fill="none" stroke="black" d="M1322.56,-103.48C1322.56,-103.48 1349.15,-103.48 1349.15,-103.48 1349.15,-103.48 1349.15,-72.51 1349.15,-70.57"/>
<polygon fill="none" stroke="black" points="1312.56,-99.98 1322.56,-103.48 1312.56,-106.98 1312.56,-99.98"/>
<text text-anchor="middle" x="1333.56" y="-92.28" font-family="Times,serif" font-size="14.00">OUT1</text>
</g>
<!-- inter_139806658423872_OUT1 -->
<g id="node19" class="node">
<title>inter_139806658423872_OUT1</title>
<ellipse fill="black" stroke="black" cx="1171.93" cy="-66.48" rx="0.36" ry="0.36"/>
</g>
<!-- inter_139806658423872_OUT1&#45;&gt;node_139806658423920 -->
<g id="edge15" class="edge">
<title>inter_139806658423872_OUT1&#45;&gt;node_139806658423920</title>
<path fill="none" stroke="black" d="M1172.15,-66.77C1172.15,-69.63 1172.15,-92.48 1172.15,-92.48 1172.15,-92.48 1198.31,-92.48 1198.31,-92.48"/>
<polygon fill="black" stroke="black" points="1198.31,-95.98 1208.31,-92.48 1198.31,-88.98 1198.31,-95.98"/>
<text text-anchor="middle" x="1194.81" y="-81.28" font-family="Times,serif" font-size="14.00">IN1</text>
</g>
<!-- node_139806871873808_OUT1 -->
<g id="node23" class="node">
<title>node_139806871873808_OUT1</title>
<ellipse fill="black" stroke="black" cx="1260.43" cy="-66.48" rx="0.36" ry="0.36"/>
</g>
<!-- inter_139806658423872_OUT1&#45;&gt;node_139806871873808_OUT1 -->
<g id="edge24" class="edge">
<title>inter_139806658423872_OUT1&#45;&gt;node_139806871873808_OUT1</title>
<path fill="none" stroke="black" d="M1172.5,-66.48C1172.5,-66.48 1249.92,-66.48 1249.92,-66.48"/>
<polygon fill="none" stroke="black" points="1249.92,-69.98 1259.92,-66.48 1249.92,-62.98 1249.92,-69.98"/>
<text text-anchor="middle" x="1238.92" y="-55.28" font-family="Times,serif" font-size="14.00">OUT1</text>
</g>
<!-- inter_139806658423920_OUT1&#45;&gt;node_139806658423872 -->
<g id="edge19" class="edge">
<title>inter_139806658423920_OUT1&#45;&gt;node_139806658423872</title>
<path fill="none" stroke="black" d="M1348.37,-70.48C1348.37,-70.48 1145.54,-70.48 1145.54,-70.48"/>
<polygon fill="black" stroke="black" points="1145.54,-66.98 1135.54,-70.48 1145.54,-73.98 1145.54,-66.98"/>
<text text-anchor="middle" x="1149.04" y="-74.28" font-family="Times,serif" font-size="14.00">IN2</text>
</g>
<!-- node_139806658423872&#45;&gt;inter_139806658423872_OUT1 -->
<g id="edge20" class="edge">
<title>node_139806658423872&#45;&gt;inter_139806658423872_OUT1</title>
<path fill="none" stroke="black" d="M1145.67,-66.48C1145.67,-66.48 1171.49,-66.48 1171.49,-66.48"/>
<polygon fill="none" stroke="black" points="1135.67,-62.98 1145.67,-66.48 1135.67,-69.98 1135.67,-62.98"/>
<text text-anchor="middle" x="1156.67" y="-55.28" font-family="Times,serif" font-size="14.00">OUT1</text>
</g>
<!-- node_139806658420256&#45;&gt;inter_139806658420256_OUT1 -->
<g id="edge23" class="edge">
<title>node_139806658420256&#45;&gt;inter_139806658420256_OUT1</title>
<path fill="none" stroke="black" d="M575.97,-97.48C575.97,-97.48 631.25,-97.48 631.25,-97.48"/>
<polygon fill="none" stroke="black" points="565.97,-93.98 575.97,-97.48 565.97,-100.98 565.97,-93.98"/>
<text text-anchor="middle" x="586.97" y="-86.28" font-family="Times,serif" font-size="14.00">OUT1</text>
</g>
</g>
</svg>
