<?xml version="1.0" encoding="UTF-8" standalone="no"?>
<!DOCTYPE svg PUBLIC "-//W3C//DTD SVG 1.1//EN"
 "http://www.w3.org/Graphics/SVG/1.1/DTD/svg11.dtd">
<!-- Generated by graphviz version 2.43.0 (0)
 -->
<!-- Title: model Pages: 1 -->
<svg width="935pt" height="161pt"
 viewBox="0.00 0.00 935.06 161.36" xmlns="http://www.w3.org/2000/svg" xmlns:xlink="http://www.w3.org/1999/xlink">
<g id="graph0" class="graph" transform="scale(1 1) rotate(0) translate(4 157.36)">
<title>model</title>
<polygon fill="white" stroke="transparent" points="-4,4 -4,-157.36 931.06,-157.36 931.06,4 -4,4"/>
<text text-anchor="start" x="303.53" y="-134.36" font-family="Times,serif" font-weight="bold" font-size="20.00">integrator (IntegratorBlock)</text>
<!-- node_139807938602848_IN1 -->
<g id="node1" class="node">
<title>node_139807938602848_IN1</title>
<ellipse fill="black" stroke="black" cx="88.39" cy="-123" rx="0.36" ry="0.36"/>
</g>
<!-- inter_139807938602848_IN1 -->
<g id="node2" class="node">
<title>inter_139807938602848_IN1</title>
<ellipse fill="black" stroke="black" cx="213.14" cy="-113" rx="0.36" ry="0.36"/>
</g>
<!-- node_139807938602848_IN1&#45;&gt;inter_139807938602848_IN1 -->
<g id="edge1" class="edge">
<title>node_139807938602848_IN1&#45;&gt;inter_139807938602848_IN1</title>
<path fill="none" stroke="black" d="M99.19,-123C99.19,-123 213.66,-123 213.66,-123 213.66,-123 213.66,-114.21 213.66,-113.11"/>
<polygon fill="black" stroke="black" points="89.19,-119.5 99.19,-123 89.19,-126.5 89.19,-119.5"/>
<text text-anchor="middle" x="102.69" y="-111.8" font-family="Times,serif" font-size="14.00">IN1</text>
</g>
<!-- node_139806839218288 -->
<g id="node9" class="node">
<title>node_139806839218288</title>
<polygon fill="none" stroke="black" points="349,-118 253,-118 253,-80 349,-80 349,-118"/>
<text text-anchor="middle" x="301" y="-102.8" font-family="Times,serif" font-size="14.00">DelayBlock</text>
<text text-anchor="middle" x="301" y="-87.8" font-family="Times,serif" font-size="14.00">(delayIn)</text>
</g>
<!-- inter_139807938602848_IN1&#45;&gt;node_139806839218288 -->
<g id="edge5" class="edge">
<title>inter_139807938602848_IN1&#45;&gt;node_139806839218288</title>
<path fill="none" stroke="black" d="M213.7,-113C213.7,-113 242.8,-113 242.8,-113"/>
<polygon fill="black" stroke="black" points="242.8,-116.5 252.8,-113 242.8,-109.5 242.8,-116.5"/>
<text text-anchor="middle" x="239.3" y="-101.8" font-family="Times,serif" font-size="14.00">IN1</text>
</g>
<!-- node_139807938602848_IC -->
<g id="node3" class="node">
<title>node_139807938602848_IC</title>
<ellipse fill="black" stroke="black" cx="658.94" cy="-19" rx="0.36" ry="0.36"/>
</g>
<!-- inter_139807938602848_IC -->
<g id="node4" class="node">
<title>inter_139807938602848_IC</title>
<ellipse fill="black" stroke="black" cx="744.44" cy="-19" rx="0.36" ry="0.36"/>
</g>
<!-- node_139807938602848_IC&#45;&gt;inter_139807938602848_IC -->
<g id="edge2" class="edge">
<title>node_139807938602848_IC&#45;&gt;inter_139807938602848_IC</title>
<path fill="none" stroke="black" d="M669.48,-19C669.48,-19 743.94,-19 743.94,-19"/>
<polygon fill="black" stroke="black" points="659.48,-15.5 669.48,-19 659.48,-22.5 659.48,-15.5"/>
<text text-anchor="middle" x="651.48" y="-7.8" font-family="Times,serif" font-size="14.00">IC</text>
</g>
<!-- node_139806839213744 -->
<g id="node13" class="node">
<title>node_139806839213744</title>
<polygon fill="none" stroke="black" points="884.94,-38 780.94,-38 780.94,0 884.94,0 884.94,-38"/>
<text text-anchor="middle" x="832.94" y="-22.8" font-family="Times,serif" font-size="14.00">DelayBlock</text>
<text text-anchor="middle" x="832.94" y="-7.8" font-family="Times,serif" font-size="14.00">(delayState)</text>
</g>
<!-- inter_139807938602848_IC&#45;&gt;node_139806839213744 -->
<g id="edge12" class="edge">
<title>inter_139807938602848_IC&#45;&gt;node_139806839213744</title>
<path fill="none" stroke="black" d="M745,-19C745,-19 770.47,-19 770.47,-19"/>
<polygon fill="black" stroke="black" points="770.47,-22.5 780.47,-19 770.47,-15.5 770.47,-22.5"/>
<text text-anchor="middle" x="772.47" y="-7.8" font-family="Times,serif" font-size="14.00">IC</text>
</g>
<!-- node_139807103207024 -->
<g id="node5" class="node">
<title>node_139807103207024</title>
<ellipse fill="none" stroke="black" cx="88.39" cy="-67" rx="88.28" ry="37.45"/>
<text text-anchor="middle" x="88.39" y="-78.3" font-family="Times,serif" font-size="14.00"> ConstantBlock</text>
<text text-anchor="middle" x="88.39" y="-63.3" font-family="Times,serif" font-size="14.00">(zero)</text>
<text text-anchor="middle" x="88.39" y="-48.3" font-family="Times,serif" font-size="14.00">0</text>
</g>
<!-- inter_139807103207024_OUT1 -->
<g id="node6" class="node">
<title>inter_139807103207024_OUT1</title>
<ellipse fill="black" stroke="black" cx="213.14" cy="-85" rx="0.36" ry="0.36"/>
</g>
<!-- node_139807103207024&#45;&gt;inter_139807103207024_OUT1 -->
<g id="edge3" class="edge">
<title>node_139807103207024&#45;&gt;inter_139807103207024_OUT1</title>
<path fill="none" stroke="black" d="M175.97,-85C175.97,-85 212.58,-85 212.58,-85"/>
<polygon fill="none" stroke="black" points="165.97,-81.5 175.97,-85 165.97,-88.5 165.97,-81.5"/>
<text text-anchor="middle" x="186.97" y="-73.8" font-family="Times,serif" font-size="14.00">OUT1</text>
</g>
<!-- inter_139807103207024_OUT1&#45;&gt;node_139806839218288 -->
<g id="edge6" class="edge">
<title>inter_139807103207024_OUT1&#45;&gt;node_139806839218288</title>
<path fill="none" stroke="black" d="M213.7,-85C213.7,-85 242.8,-85 242.8,-85"/>
<polygon fill="black" stroke="black" points="242.8,-88.5 252.8,-85 242.8,-81.5 242.8,-88.5"/>
<text text-anchor="middle" x="244.8" y="-73.8" font-family="Times,serif" font-size="14.00">IC</text>
</g>
<!-- node_139806839219104 -->
<g id="node7" class="node">
<title>node_139806839219104</title>
<polygon fill="none" stroke="black" points="352.5,-62 249.5,-62 249.5,-24 352.5,-24 352.5,-62"/>
<text text-anchor="middle" x="301" y="-46.8" font-family="Times,serif" font-size="14.00">DeltaTBlock</text>
<text text-anchor="middle" x="301" y="-31.8" font-family="Times,serif" font-size="14.00">(delta_t)</text>
</g>
<!-- inter_139806839219104_OUT1 -->
<g id="node8" class="node">
<title>inter_139806839219104_OUT1</title>
<ellipse fill="black" stroke="black" cx="388.86" cy="-61" rx="0.36" ry="0.36"/>
</g>
<!-- node_139806839219104&#45;&gt;inter_139806839219104_OUT1 -->
<g id="edge4" class="edge">
<title>node_139806839219104&#45;&gt;inter_139806839219104_OUT1</title>
<path fill="none" stroke="black" d="M362.61,-61C362.61,-61 388.42,-61 388.42,-61"/>
<polygon fill="none" stroke="black" points="352.61,-57.5 362.61,-61 352.61,-64.5 352.61,-57.5"/>
<text text-anchor="middle" x="373.61" y="-64.8" font-family="Times,serif" font-size="14.00">OUT1</text>
</g>
<!-- node_139806839213360 -->
<g id="node11" class="node">
<title>node_139806839213360</title>
<polygon fill="none" stroke="black" points="537.22,-89 425.22,-89 425.22,-51 537.22,-51 537.22,-89"/>
<text text-anchor="middle" x="481.22" y="-73.8" font-family="Times,serif" font-size="14.00">ProductBlock</text>
<text text-anchor="middle" x="481.22" y="-58.8" font-family="Times,serif" font-size="14.00">(multDelta)</text>
</g>
<!-- inter_139806839219104_OUT1&#45;&gt;node_139806839213360 -->
<g id="edge9" class="edge">
<title>inter_139806839219104_OUT1&#45;&gt;node_139806839213360</title>
<path fill="none" stroke="black" d="M389.45,-61C389.45,-61 415.2,-61 415.2,-61"/>
<polygon fill="black" stroke="black" points="415.2,-64.5 425.2,-61 415.2,-57.5 415.2,-64.5"/>
<text text-anchor="middle" x="411.7" y="-49.8" font-family="Times,serif" font-size="14.00">IN2</text>
</g>
<!-- inter_139806839218288_OUT1 -->
<g id="node10" class="node">
<title>inter_139806839218288_OUT1</title>
<ellipse fill="black" stroke="black" cx="388.86" cy="-89" rx="0.36" ry="0.36"/>
</g>
<!-- node_139806839218288&#45;&gt;inter_139806839218288_OUT1 -->
<g id="edge7" class="edge">
<title>node_139806839218288&#45;&gt;inter_139806839218288_OUT1</title>
<path fill="none" stroke="black" d="M359.04,-89C359.04,-89 388.36,-89 388.36,-89"/>
<polygon fill="none" stroke="black" points="349.04,-85.5 359.04,-89 349.04,-92.5 349.04,-85.5"/>
<text text-anchor="middle" x="370.04" y="-92.8" font-family="Times,serif" font-size="14.00">OUT1</text>
</g>
<!-- inter_139806839218288_OUT1&#45;&gt;node_139806839213360 -->
<g id="edge8" class="edge">
<title>inter_139806839218288_OUT1&#45;&gt;node_139806839213360</title>
<path fill="none" stroke="black" d="M388.92,-88.5C388.92,-88.5 415,-88.5 415,-88.5"/>
<polygon fill="black" stroke="black" points="415,-92 425,-88.5 415,-85 415,-92"/>
<text text-anchor="middle" x="411.5" y="-77.3" font-family="Times,serif" font-size="14.00">IN1</text>
</g>
<!-- inter_139806839213360_OUT1 -->
<g id="node12" class="node">
<title>inter_139806839213360_OUT1</title>
<ellipse fill="black" stroke="black" cx="573.58" cy="-70" rx="0.36" ry="0.36"/>
</g>
<!-- node_139806839213360&#45;&gt;inter_139806839213360_OUT1 -->
<g id="edge10" class="edge">
<title>node_139806839213360&#45;&gt;inter_139806839213360_OUT1</title>
<path fill="none" stroke="black" d="M547.34,-70C547.34,-70 573.14,-70 573.14,-70"/>
<polygon fill="none" stroke="black" points="537.34,-66.5 547.34,-70 537.34,-73.5 537.34,-66.5"/>
<text text-anchor="middle" x="558.34" y="-73.8" font-family="Times,serif" font-size="14.00">OUT1</text>
</g>
<!-- node_139806839214816 -->
<g id="node16" class="node">
<title>node_139806839214816</title>
<polygon fill="none" stroke="black" points="707.94,-89 609.94,-89 609.94,-51 707.94,-51 707.94,-89"/>
<text text-anchor="middle" x="658.94" y="-73.8" font-family="Times,serif" font-size="14.00">AdderBlock</text>
<text text-anchor="middle" x="658.94" y="-58.8" font-family="Times,serif" font-size="14.00">(sumState)</text>
</g>
<!-- inter_139806839213360_OUT1&#45;&gt;node_139806839214816 -->
<g id="edge14" class="edge">
<title>inter_139806839213360_OUT1&#45;&gt;node_139806839214816</title>
<path fill="none" stroke="black" d="M574.12,-70C574.12,-70 599.75,-70 599.75,-70"/>
<polygon fill="black" stroke="black" points="599.75,-73.5 609.75,-70 599.75,-66.5 599.75,-73.5"/>
<text text-anchor="middle" x="596.25" y="-58.8" font-family="Times,serif" font-size="14.00">IN1</text>
</g>
<!-- inter_139806839213744_OUT1 -->
<g id="node15" class="node">
<title>inter_139806839213744_OUT1</title>
<ellipse fill="black" stroke="black" cx="921.3" cy="-51" rx="0.36" ry="0.36"/>
</g>
<!-- node_139806839213744&#45;&gt;inter_139806839213744_OUT1 -->
<g id="edge13" class="edge">
<title>node_139806839213744&#45;&gt;inter_139806839213744_OUT1</title>
<path fill="none" stroke="black" d="M895.06,-19C895.06,-19 921.66,-19 921.66,-19 921.66,-19 921.66,-49.03 921.66,-50.91"/>
<polygon fill="none" stroke="black" points="885.06,-15.5 895.06,-19 885.06,-22.5 885.06,-15.5"/>
<text text-anchor="middle" x="906.06" y="-7.8" font-family="Times,serif" font-size="14.00">OUT1</text>
</g>
<!-- inter_139806839214816_OUT1 -->
<g id="node14" class="node">
<title>inter_139806839214816_OUT1</title>
<ellipse fill="black" stroke="black" cx="744.44" cy="-56" rx="0.36" ry="0.36"/>
</g>
<!-- inter_139806839214816_OUT1&#45;&gt;node_139806839213744 -->
<g id="edge11" class="edge">
<title>inter_139806839214816_OUT1&#45;&gt;node_139806839213744</title>
<path fill="none" stroke="black" d="M744.66,-55.38C744.66,-51.53 744.66,-31 744.66,-31 744.66,-31 770.82,-31 770.82,-31"/>
<polygon fill="black" stroke="black" points="770.82,-34.5 780.82,-31 770.82,-27.5 770.82,-34.5"/>
<text text-anchor="middle" x="767.32" y="-34.8" font-family="Times,serif" font-size="14.00">IN1</text>
</g>
<!-- node_139807938602848_OUT1 -->
<g id="node17" class="node">
<title>node_139807938602848_OUT1</title>
<ellipse fill="black" stroke="black" cx="832.94" cy="-56" rx="0.36" ry="0.36"/>
</g>
<!-- inter_139806839214816_OUT1&#45;&gt;node_139807938602848_OUT1 -->
<g id="edge17" class="edge">
<title>inter_139806839214816_OUT1&#45;&gt;node_139807938602848_OUT1</title>
<path fill="none" stroke="black" d="M745,-56C745,-56 822.42,-56 822.42,-56"/>
<polygon fill="none" stroke="black" points="822.42,-59.5 832.42,-56 822.42,-52.5 822.42,-59.5"/>
<text text-anchor="middle" x="811.42" y="-44.8" font-family="Times,serif" font-size="14.00">OUT1</text>
</g>
<!-- inter_139806839213744_OUT1&#45;&gt;node_139806839214816 -->
<g id="edge15" class="edge">
<title>inter_139806839213744_OUT1&#45;&gt;node_139806839214816</title>
<path fill="none" stroke="black" d="M921.25,-51.5C921.25,-51.5 718.21,-51.5 718.21,-51.5"/>
<polygon fill="black" stroke="black" points="718.21,-48 708.21,-51.5 718.21,-55 718.21,-48"/>
<text text-anchor="middle" x="694.71" y="-40.3" font-family="Times,serif" font-size="14.00">IN2</text>
</g>
<!-- node_139806839214816&#45;&gt;inter_139806839214816_OUT1 -->
<g id="edge16" class="edge">
<title>node_139806839214816&#45;&gt;inter_139806839214816_OUT1</title>
<path fill="none" stroke="black" d="M718.18,-56C718.18,-56 743.99,-56 743.99,-56"/>
<polygon fill="none" stroke="black" points="708.18,-52.5 718.18,-56 708.18,-59.5 708.18,-52.5"/>
<text text-anchor="middle" x="729.18" y="-59.8" font-family="Times,serif" font-size="14.00">OUT1</text>
</g>
</g>
</svg>
