<?xml version="1.0" encoding="UTF-8" standalone="no"?>
<!DOCTYPE svg PUBLIC "-//W3C//DTD SVG 1.1//EN"
 "http://www.w3.org/Graphics/SVG/1.1/DTD/svg11.dtd">
<!-- Generated by graphviz version 2.43.0 (0)
 -->
<!-- Title: model Pages: 1 -->
<svg width="2383pt" height="589pt"
 viewBox="0.00 0.00 2383.34 589.00" xmlns="http://www.w3.org/2000/svg" xmlns:xlink="http://www.w3.org/1999/xlink">
<g id="graph0" class="graph" transform="scale(1 1) rotate(0) translate(4 585)">
<title>model</title>
<polygon fill="white" stroke="transparent" points="-4,4 -4,-585 2379.34,-585 2379.34,4 -4,4"/>
<text text-anchor="start" x="990.67" y="-562" font-family="Times,serif" font-weight="bold" font-size="20.00">integrator (SimpsonOneThirdRule)</text>
<!-- node_139806839213456_IN1 -->
<g id="node1" class="node">
<title>node_139806839213456_IN1</title>
<ellipse fill="black" stroke="black" cx="88.39" cy="-438" rx="0.36" ry="0.36"/>
</g>
<!-- inter_139806839213456_IN1 -->
<g id="node2" class="node">
<title>inter_139806839213456_IN1</title>
<ellipse fill="black" stroke="black" cx="213.14" cy="-438" rx="0.36" ry="0.36"/>
</g>
<!-- node_139806839213456_IN1&#45;&gt;inter_139806839213456_IN1 -->
<g id="edge1" class="edge">
<title>node_139806839213456_IN1&#45;&gt;inter_139806839213456_IN1</title>
<path fill="none" stroke="black" d="M99.18,-438C99.18,-438 212.41,-438 212.41,-438"/>
<polygon fill="black" stroke="black" points="89.19,-434.5 99.18,-438 89.18,-441.5 89.19,-434.5"/>
<text text-anchor="middle" x="75.68" y="-426.8" font-family="Times,serif" font-size="14.00">IN1</text>
</g>
<!-- node_139806658435440 -->
<g id="node15" class="node">
<title>node_139806658435440</title>
<polygon fill="none" stroke="black" points="385.89,-410 289.89,-410 289.89,-372 385.89,-372 385.89,-410"/>
<text text-anchor="middle" x="337.89" y="-394.8" font-family="Times,serif" font-size="14.00">DelayBlock</text>
<text text-anchor="middle" x="337.89" y="-379.8" font-family="Times,serif" font-size="14.00">(delayIn)</text>
</g>
<!-- inter_139806839213456_IN1&#45;&gt;node_139806658435440 -->
<g id="edge8" class="edge">
<title>inter_139806839213456_IN1&#45;&gt;node_139806658435440</title>
<path fill="none" stroke="black" d="M213.06,-437.63C213.06,-434.03 213.06,-405.24 213.06,-405.24 213.06,-405.24 279.62,-405.24 279.62,-405.24"/>
<polygon fill="black" stroke="black" points="279.62,-408.74 289.62,-405.24 279.62,-401.74 279.62,-408.74"/>
<text text-anchor="middle" x="276.12" y="-394.04" font-family="Times,serif" font-size="14.00">IN1</text>
</g>
<!-- node_139806658471200 -->
<g id="node44" class="node">
<title>node_139806658471200</title>
<polygon fill="none" stroke="black" points="828.27,-551 700.27,-551 700.27,-513 828.27,-513 828.27,-551"/>
<text text-anchor="middle" x="764.27" y="-535.8" font-family="Times,serif" font-size="14.00">AdderBlock</text>
<text text-anchor="middle" x="764.27" y="-520.8" font-family="Times,serif" font-size="14.00">(sumSimpson1)</text>
</g>
<!-- inter_139806839213456_IN1&#45;&gt;node_139806658471200 -->
<g id="edge42" class="edge">
<title>inter_139806839213456_IN1&#45;&gt;node_139806658471200</title>
<path fill="none" stroke="black" d="M214.06,-438.08C214.06,-441.34 214.06,-545.74 214.06,-545.74 214.06,-545.74 690.08,-545.74 690.08,-545.74"/>
<polygon fill="black" stroke="black" points="690.08,-549.24 700.08,-545.74 690.08,-542.24 690.08,-549.24"/>
<text text-anchor="middle" x="686.58" y="-534.54" font-family="Times,serif" font-size="14.00">IN1</text>
</g>
<!-- node_139806658472784 -->
<g id="node47" class="node">
<title>node_139806658472784</title>
<polygon fill="none" stroke="black" points="627.27,-443 499.27,-443 499.27,-405 627.27,-405 627.27,-443"/>
<text text-anchor="middle" x="563.27" y="-427.8" font-family="Times,serif" font-size="14.00">AdderBlock</text>
<text text-anchor="middle" x="563.27" y="-412.8" font-family="Times,serif" font-size="14.00">(sumTrapezoid)</text>
</g>
<!-- inter_139806839213456_IN1&#45;&gt;node_139806658472784 -->
<g id="edge48" class="edge">
<title>inter_139806839213456_IN1&#45;&gt;node_139806658472784</title>
<path fill="none" stroke="black" d="M213.7,-438C213.7,-438 488.94,-438 488.94,-438"/>
<polygon fill="black" stroke="black" points="488.94,-441.5 498.94,-438 488.94,-434.5 488.94,-441.5"/>
<text text-anchor="middle" x="485.44" y="-426.8" font-family="Times,serif" font-size="14.00">IN1</text>
</g>
<!-- node_139806839213456_IC -->
<g id="node3" class="node">
<title>node_139806839213456_IC</title>
<ellipse fill="black" stroke="black" cx="1972.62" cy="-407" rx="0.36" ry="0.36"/>
</g>
<!-- inter_139806839213456_IC -->
<g id="node4" class="node">
<title>inter_139806839213456_IC</title>
<ellipse fill="black" stroke="black" cx="2058.12" cy="-407" rx="0.36" ry="0.36"/>
</g>
<!-- node_139806839213456_IC&#45;&gt;inter_139806839213456_IC -->
<g id="edge2" class="edge">
<title>node_139806839213456_IC&#45;&gt;inter_139806839213456_IC</title>
<path fill="none" stroke="black" d="M1983.17,-407C1983.17,-407 2057.62,-407 2057.62,-407"/>
<polygon fill="black" stroke="black" points="1973.17,-403.5 1983.17,-407 1973.17,-410.5 1973.17,-403.5"/>
<text text-anchor="middle" x="1965.17" y="-395.8" font-family="Times,serif" font-size="14.00">IC</text>
</g>
<!-- node_139806658445120 -->
<g id="node19" class="node">
<title>node_139806658445120</title>
<polygon fill="none" stroke="black" points="2229.62,-426 2125.62,-426 2125.62,-388 2229.62,-388 2229.62,-426"/>
<text text-anchor="middle" x="2177.62" y="-410.8" font-family="Times,serif" font-size="14.00">DelayBlock</text>
<text text-anchor="middle" x="2177.62" y="-395.8" font-family="Times,serif" font-size="14.00">(delayState)</text>
</g>
<!-- inter_139806839213456_IC&#45;&gt;node_139806658445120 -->
<g id="edge15" class="edge">
<title>inter_139806839213456_IC&#45;&gt;node_139806658445120</title>
<path fill="none" stroke="black" d="M2058.88,-407C2058.88,-407 2115.39,-407 2115.39,-407"/>
<polygon fill="black" stroke="black" points="2115.39,-410.5 2125.39,-407 2115.39,-403.5 2115.39,-410.5"/>
<text text-anchor="middle" x="2117.39" y="-395.8" font-family="Times,serif" font-size="14.00">IC</text>
</g>
<!-- node_139806839213744 -->
<g id="node5" class="node">
<title>node_139806839213744</title>
<ellipse fill="none" stroke="black" cx="88.39" cy="-363" rx="88.28" ry="37.45"/>
<text text-anchor="middle" x="88.39" y="-374.3" font-family="Times,serif" font-size="14.00"> ConstantBlock</text>
<text text-anchor="middle" x="88.39" y="-359.3" font-family="Times,serif" font-size="14.00">(zero)</text>
<text text-anchor="middle" x="88.39" y="-344.3" font-family="Times,serif" font-size="14.00">0</text>
</g>
<!-- inter_139806839213744_OUT1 -->
<g id="node6" class="node">
<title>inter_139806839213744_OUT1</title>
<ellipse fill="black" stroke="black" cx="213.14" cy="-363" rx="0.36" ry="0.36"/>
</g>
<!-- node_139806839213744&#45;&gt;inter_139806839213744_OUT1 -->
<g id="edge3" class="edge">
<title>node_139806839213744&#45;&gt;inter_139806839213744_OUT1</title>
<path fill="none" stroke="black" d="M187.05,-363C187.05,-363 212.73,-363 212.73,-363"/>
<polygon fill="none" stroke="black" points="177.05,-359.5 187.05,-363 177.05,-366.5 177.05,-359.5"/>
<text text-anchor="middle" x="198.05" y="-351.8" font-family="Times,serif" font-size="14.00">OUT1</text>
</g>
<!-- inter_139806839213744_OUT1&#45;&gt;node_139806658435440 -->
<g id="edge9" class="edge">
<title>inter_139806839213744_OUT1&#45;&gt;node_139806658435440</title>
<path fill="none" stroke="black" d="M214.06,-363.07C214.06,-364.43 214.06,-386.24 214.06,-386.24 214.06,-386.24 279.66,-386.24 279.66,-386.24"/>
<polygon fill="black" stroke="black" points="279.66,-389.74 289.66,-386.24 279.66,-382.74 279.66,-389.74"/>
<text text-anchor="middle" x="281.66" y="-375.04" font-family="Times,serif" font-size="14.00">IC</text>
</g>
<!-- node_139806658433712 -->
<g id="node17" class="node">
<title>node_139806658433712</title>
<polygon fill="none" stroke="black" points="611.27,-387 515.27,-387 515.27,-349 611.27,-349 611.27,-387"/>
<text text-anchor="middle" x="563.27" y="-371.8" font-family="Times,serif" font-size="14.00">DelayBlock</text>
<text text-anchor="middle" x="563.27" y="-356.8" font-family="Times,serif" font-size="14.00">(delayIn2)</text>
</g>
<!-- inter_139806839213744_OUT1&#45;&gt;node_139806658433712 -->
<g id="edge12" class="edge">
<title>inter_139806839213744_OUT1&#45;&gt;node_139806658433712</title>
<path fill="none" stroke="black" d="M213.7,-363C213.7,-363 505.22,-363 505.22,-363"/>
<polygon fill="black" stroke="black" points="505.22,-366.5 515.22,-363 505.22,-359.5 505.22,-366.5"/>
<text text-anchor="middle" x="507.22" y="-351.8" font-family="Times,serif" font-size="14.00">IC</text>
</g>
<!-- node_139806658435824 -->
<g id="node7" class="node">
<title>node_139806658435824</title>
<ellipse fill="none" stroke="black" cx="1024.31" cy="-458" rx="123.07" ry="37.45"/>
<text text-anchor="middle" x="1024.31" y="-469.3" font-family="Times,serif" font-size="14.00"> ConstantBlock</text>
<text text-anchor="middle" x="1024.31" y="-454.3" font-family="Times,serif" font-size="14.00">(third)</text>
<text text-anchor="middle" x="1024.31" y="-439.3" font-family="Times,serif" font-size="14.00">0.3333333333333333</text>
</g>
<!-- inter_139806658435824_OUT1 -->
<g id="node8" class="node">
<title>inter_139806658435824_OUT1</title>
<ellipse fill="black" stroke="black" cx="1183.85" cy="-477" rx="0.36" ry="0.36"/>
</g>
<!-- node_139806658435824&#45;&gt;inter_139806658435824_OUT1 -->
<g id="edge4" class="edge">
<title>node_139806658435824&#45;&gt;inter_139806658435824_OUT1</title>
<path fill="none" stroke="black" d="M1140.72,-477C1140.72,-477 1183.23,-477 1183.23,-477"/>
<polygon fill="none" stroke="black" points="1130.72,-473.5 1140.72,-477 1130.72,-480.5 1130.72,-473.5"/>
<text text-anchor="middle" x="1151.72" y="-465.8" font-family="Times,serif" font-size="14.00">OUT1</text>
</g>
<!-- node_139806658473312 -->
<g id="node39" class="node">
<title>node_139806658473312</title>
<polygon fill="none" stroke="black" points="1364.73,-519 1252.73,-519 1252.73,-481 1364.73,-481 1364.73,-519"/>
<text text-anchor="middle" x="1308.73" y="-503.8" font-family="Times,serif" font-size="14.00">ProductBlock</text>
<text text-anchor="middle" x="1308.73" y="-488.8" font-family="Times,serif" font-size="14.00">(division)</text>
</g>
<!-- inter_139806658435824_OUT1&#45;&gt;node_139806658473312 -->
<g id="edge34" class="edge">
<title>inter_139806658435824_OUT1&#45;&gt;node_139806658473312</title>
<path fill="none" stroke="black" d="M1184.06,-477.48C1184.06,-479.63 1184.06,-488.24 1184.06,-488.24 1184.06,-488.24 1242.6,-488.24 1242.6,-488.24"/>
<polygon fill="black" stroke="black" points="1242.6,-491.74 1252.6,-488.24 1242.6,-484.74 1242.6,-491.74"/>
<text text-anchor="middle" x="1239.1" y="-477.04" font-family="Times,serif" font-size="14.00">IN2</text>
</g>
<!-- node_139806658435728 -->
<g id="node9" class="node">
<title>node_139806658435728</title>
<ellipse fill="none" stroke="black" cx="1558.51" cy="-205" rx="88.28" ry="37.45"/>
<text text-anchor="middle" x="1558.51" y="-216.3" font-family="Times,serif" font-size="14.00"> ConstantBlock</text>
<text text-anchor="middle" x="1558.51" y="-201.3" font-family="Times,serif" font-size="14.00">(one)</text>
<text text-anchor="middle" x="1558.51" y="-186.3" font-family="Times,serif" font-size="14.00">1</text>
</g>
<!-- inter_139806658435728_OUT1 -->
<g id="node10" class="node">
<title>inter_139806658435728_OUT1</title>
<ellipse fill="black" stroke="black" cx="1683.4" cy="-187" rx="0.36" ry="0.36"/>
</g>
<!-- node_139806658435728&#45;&gt;inter_139806658435728_OUT1 -->
<g id="edge5" class="edge">
<title>node_139806658435728&#45;&gt;inter_139806658435728_OUT1</title>
<path fill="none" stroke="black" d="M1646.19,-187C1646.19,-187 1682.84,-187 1682.84,-187"/>
<polygon fill="none" stroke="black" points="1636.19,-183.5 1646.19,-187 1636.18,-190.5 1636.19,-183.5"/>
<text text-anchor="middle" x="1657.19" y="-175.8" font-family="Times,serif" font-size="14.00">OUT1</text>
</g>
<!-- node_139806658469408 -->
<g id="node22" class="node">
<title>node_139806658469408</title>
<polygon fill="none" stroke="black" points="1844.9,-159 1725.9,-159 1725.9,-121 1844.9,-121 1844.9,-159"/>
<text text-anchor="middle" x="1785.4" y="-143.8" font-family="Times,serif" font-size="14.00">DelayBlock</text>
<text text-anchor="middle" x="1785.4" y="-128.8" font-family="Times,serif" font-size="14.00">(delayModulo)</text>
</g>
<!-- inter_139806658435728_OUT1&#45;&gt;node_139806658469408 -->
<g id="edge18" class="edge">
<title>inter_139806658435728_OUT1&#45;&gt;node_139806658469408</title>
<path fill="none" stroke="black" d="M1684.06,-186.88C1684.06,-184.5 1684.06,-146.33 1684.06,-146.33 1684.06,-146.33 1715.86,-146.33 1715.86,-146.33"/>
<polygon fill="black" stroke="black" points="1715.86,-149.83 1725.86,-146.33 1715.86,-142.83 1715.86,-149.83"/>
<text text-anchor="middle" x="1717.86" y="-135.13" font-family="Times,serif" font-size="14.00">IC</text>
</g>
<!-- node_139806658435056 -->
<g id="node11" class="node">
<title>node_139806658435056</title>
<ellipse fill="none" stroke="black" cx="1308.73" cy="-328" rx="88.28" ry="37.45"/>
<text text-anchor="middle" x="1308.73" y="-339.3" font-family="Times,serif" font-size="14.00"> ConstantBlock</text>
<text text-anchor="middle" x="1308.73" y="-324.3" font-family="Times,serif" font-size="14.00">(two)</text>
<text text-anchor="middle" x="1308.73" y="-309.3" font-family="Times,serif" font-size="14.00">2</text>
</g>
<!-- inter_139806658435056_OUT1 -->
<g id="node12" class="node">
<title>inter_139806658435056_OUT1</title>
<ellipse fill="black" stroke="black" cx="1433.62" cy="-332" rx="0.36" ry="0.36"/>
</g>
<!-- node_139806658435056&#45;&gt;inter_139806658435056_OUT1 -->
<g id="edge6" class="edge">
<title>node_139806658435056&#45;&gt;inter_139806658435056_OUT1</title>
<path fill="none" stroke="black" d="M1406.83,-332C1406.83,-332 1433.21,-332 1433.21,-332"/>
<polygon fill="none" stroke="black" points="1396.83,-328.5 1406.83,-332 1396.83,-335.5 1396.83,-328.5"/>
<text text-anchor="middle" x="1417.83" y="-320.8" font-family="Times,serif" font-size="14.00">OUT1</text>
</g>
<!-- node_139806658473792 -->
<g id="node41" class="node">
<title>node_139806658473792</title>
<polygon fill="none" stroke="black" points="1635.01,-410 1482.01,-410 1482.01,-372 1635.01,-372 1635.01,-410"/>
<text text-anchor="middle" x="1558.51" y="-394.8" font-family="Times,serif" font-size="14.00">ProductBlock</text>
<text text-anchor="middle" x="1558.51" y="-379.8" font-family="Times,serif" font-size="14.00">(divisionTrapezoid)</text>
</g>
<!-- inter_139806658435056_OUT1&#45;&gt;node_139806658473792 -->
<g id="edge37" class="edge">
<title>inter_139806658435056_OUT1&#45;&gt;node_139806658473792</title>
<path fill="none" stroke="black" d="M1434.06,-332.14C1434.06,-335.08 1434.06,-382 1434.06,-382 1434.06,-382 1471.82,-382 1471.82,-382"/>
<polygon fill="black" stroke="black" points="1471.82,-385.5 1481.82,-382 1471.82,-378.5 1471.82,-385.5"/>
<text text-anchor="middle" x="1468.32" y="-370.8" font-family="Times,serif" font-size="14.00">IN2</text>
</g>
<!-- node_139806658463584 -->
<g id="node51" class="node">
<title>node_139806658463584</title>
<polygon fill="none" stroke="black" points="1613.01,-354 1504.01,-354 1504.01,-316 1613.01,-316 1613.01,-354"/>
<text text-anchor="middle" x="1558.51" y="-338.8" font-family="Times,serif" font-size="14.00">ModuloBlock</text>
<text text-anchor="middle" x="1558.51" y="-323.8" font-family="Times,serif" font-size="14.00">(modulo)</text>
</g>
<!-- inter_139806658435056_OUT1&#45;&gt;node_139806658463584 -->
<g id="edge57" class="edge">
<title>inter_139806658435056_OUT1&#45;&gt;node_139806658463584</title>
<path fill="none" stroke="black" d="M1434.42,-332C1434.42,-332 1493.93,-332 1493.93,-332"/>
<polygon fill="black" stroke="black" points="1493.93,-335.5 1503.93,-332 1493.93,-328.5 1493.93,-335.5"/>
<text text-anchor="middle" x="1490.43" y="-320.8" font-family="Times,serif" font-size="14.00">IN2</text>
</g>
<!-- node_139806658463728 -->
<g id="node52" class="node">
<title>node_139806658463728</title>
<polygon fill="none" stroke="black" points="1610.51,-298 1506.51,-298 1506.51,-260 1610.51,-260 1610.51,-298"/>
<text text-anchor="middle" x="1558.51" y="-282.8" font-family="Times,serif" font-size="14.00">EqualsBlock</text>
<text text-anchor="middle" x="1558.51" y="-267.8" font-family="Times,serif" font-size="14.00">(equal)</text>
</g>
<!-- inter_139806658435056_OUT1&#45;&gt;node_139806658463728 -->
<g id="edge59" class="edge">
<title>inter_139806658435056_OUT1&#45;&gt;node_139806658463728</title>
<path fill="none" stroke="black" d="M1434.06,-331.89C1434.06,-329.68 1434.06,-294.26 1434.06,-294.26 1434.06,-294.26 1496.45,-294.26 1496.45,-294.26"/>
<polygon fill="black" stroke="black" points="1496.45,-297.76 1506.45,-294.26 1496.45,-290.76 1496.45,-297.76"/>
<text text-anchor="middle" x="1492.95" y="-283.06" font-family="Times,serif" font-size="14.00">IN1</text>
</g>
<!-- node_139806658434240 -->
<g id="node13" class="node">
<title>node_139806658434240</title>
<ellipse fill="none" stroke="black" cx="337.89" cy="-503" rx="88.28" ry="37.45"/>
<text text-anchor="middle" x="337.89" y="-514.3" font-family="Times,serif" font-size="14.00"> ConstantBlock</text>
<text text-anchor="middle" x="337.89" y="-499.3" font-family="Times,serif" font-size="14.00">(four)</text>
<text text-anchor="middle" x="337.89" y="-484.3" font-family="Times,serif" font-size="14.00">4</text>
</g>
<!-- inter_139806658434240_OUT1 -->
<g id="node14" class="node">
<title>inter_139806658434240_OUT1</title>
<ellipse fill="black" stroke="black" cx="462.77" cy="-503" rx="0.36" ry="0.36"/>
</g>
<!-- node_139806658434240&#45;&gt;inter_139806658434240_OUT1 -->
<g id="edge7" class="edge">
<title>node_139806658434240&#45;&gt;inter_139806658434240_OUT1</title>
<path fill="none" stroke="black" d="M436.31,-503C436.31,-503 462.36,-503 462.36,-503"/>
<polygon fill="none" stroke="black" points="426.31,-499.5 436.31,-503 426.31,-506.5 426.31,-499.5"/>
<text text-anchor="middle" x="447.31" y="-506.8" font-family="Times,serif" font-size="14.00">OUT1</text>
</g>
<!-- node_139806658441168 -->
<g id="node30" class="node">
<title>node_139806658441168</title>
<polygon fill="none" stroke="black" points="624.27,-522 502.27,-522 502.27,-484 624.27,-484 624.27,-522"/>
<text text-anchor="middle" x="563.27" y="-506.8" font-family="Times,serif" font-size="14.00">ProductBlock</text>
<text text-anchor="middle" x="563.27" y="-491.8" font-family="Times,serif" font-size="14.00">(multSimpson)</text>
</g>
<!-- inter_139806658434240_OUT1&#45;&gt;node_139806658441168 -->
<g id="edge24" class="edge">
<title>inter_139806658434240_OUT1&#45;&gt;node_139806658441168</title>
<path fill="none" stroke="black" d="M463.42,-503C463.42,-503 492.04,-503 492.04,-503"/>
<polygon fill="black" stroke="black" points="492.04,-506.5 502.04,-503 492.04,-499.5 492.04,-506.5"/>
<text text-anchor="middle" x="488.54" y="-491.8" font-family="Times,serif" font-size="14.00">IN1</text>
</g>
<!-- inter_139806658435440_OUT1 -->
<g id="node16" class="node">
<title>inter_139806658435440_OUT1</title>
<ellipse fill="black" stroke="black" cx="462.77" cy="-410" rx="0.36" ry="0.36"/>
</g>
<!-- node_139806658435440&#45;&gt;inter_139806658435440_OUT1 -->
<g id="edge10" class="edge">
<title>node_139806658435440&#45;&gt;inter_139806658435440_OUT1</title>
<path fill="none" stroke="black" d="M396.17,-409.5C396.17,-409.5 462.65,-409.5 462.65,-409.5"/>
<polygon fill="none" stroke="black" points="386.17,-406 396.17,-409.5 386.17,-413 386.17,-406"/>
<text text-anchor="middle" x="407.17" y="-398.3" font-family="Times,serif" font-size="14.00">OUT1</text>
</g>
<!-- inter_139806658435440_OUT1&#45;&gt;node_139806658433712 -->
<g id="edge11" class="edge">
<title>inter_139806658435440_OUT1&#45;&gt;node_139806658433712</title>
<path fill="none" stroke="black" d="M463.06,-409.66C463.06,-406.31 463.06,-379.5 463.06,-379.5 463.06,-379.5 505.22,-379.5 505.22,-379.5"/>
<polygon fill="black" stroke="black" points="505.22,-383 515.22,-379.5 505.22,-376 505.22,-383"/>
<text text-anchor="middle" x="501.72" y="-368.3" font-family="Times,serif" font-size="14.00">IN1</text>
</g>
<!-- inter_139806658435440_OUT1&#45;&gt;node_139806658441168 -->
<g id="edge25" class="edge">
<title>inter_139806658435440_OUT1&#45;&gt;node_139806658441168</title>
<path fill="none" stroke="black" d="M463.06,-410.24C463.06,-415.11 463.06,-493 463.06,-493 463.06,-493 492.09,-493 492.09,-493"/>
<polygon fill="black" stroke="black" points="492.09,-496.5 502.09,-493 492.09,-489.5 492.09,-496.5"/>
<text text-anchor="middle" x="488.59" y="-481.8" font-family="Times,serif" font-size="14.00">IN2</text>
</g>
<!-- inter_139806658435440_OUT1&#45;&gt;node_139806658472784 -->
<g id="edge49" class="edge">
<title>inter_139806658435440_OUT1&#45;&gt;node_139806658472784</title>
<path fill="none" stroke="black" d="M463.42,-410C463.42,-410 489.04,-410 489.04,-410"/>
<polygon fill="black" stroke="black" points="489.04,-413.5 499.04,-410 489.04,-406.5 489.04,-413.5"/>
<text text-anchor="middle" x="485.54" y="-398.8" font-family="Times,serif" font-size="14.00">IN2</text>
</g>
<!-- inter_139806658433712_OUT1 -->
<g id="node18" class="node">
<title>inter_139806658433712_OUT1</title>
<ellipse fill="black" stroke="black" cx="764.27" cy="-488" rx="0.36" ry="0.36"/>
</g>
<!-- node_139806658433712&#45;&gt;inter_139806658433712_OUT1 -->
<g id="edge13" class="edge">
<title>node_139806658433712&#45;&gt;inter_139806658433712_OUT1</title>
<path fill="none" stroke="black" d="M621.35,-377C621.35,-377 765.06,-377 765.06,-377 765.06,-377 765.06,-484.56 765.06,-487.92"/>
<polygon fill="none" stroke="black" points="611.35,-373.5 621.35,-377 611.35,-380.5 611.35,-373.5"/>
<text text-anchor="middle" x="632.35" y="-365.8" font-family="Times,serif" font-size="14.00">OUT1</text>
</g>
<!-- node_139806658471344 -->
<g id="node46" class="node">
<title>node_139806658471344</title>
<polygon fill="none" stroke="black" points="1088.31,-551 960.31,-551 960.31,-513 1088.31,-513 1088.31,-551"/>
<text text-anchor="middle" x="1024.31" y="-535.8" font-family="Times,serif" font-size="14.00">AdderBlock</text>
<text text-anchor="middle" x="1024.31" y="-520.8" font-family="Times,serif" font-size="14.00">(sumSimpson2)</text>
</g>
<!-- inter_139806658433712_OUT1&#45;&gt;node_139806658471344 -->
<g id="edge46" class="edge">
<title>inter_139806658433712_OUT1&#45;&gt;node_139806658471344</title>
<path fill="none" stroke="black" d="M764.8,-488C771.76,-488 846.06,-488 846.06,-488 846.06,-488 846.06,-522 846.06,-522 846.06,-522 950.21,-522 950.21,-522"/>
<polygon fill="black" stroke="black" points="950.21,-525.5 960.21,-522 950.21,-518.5 950.21,-525.5"/>
<text text-anchor="middle" x="946.71" y="-510.8" font-family="Times,serif" font-size="14.00">IN2</text>
</g>
<!-- inter_139806658445120_OUT1 -->
<g id="node21" class="node">
<title>inter_139806658445120_OUT1</title>
<ellipse fill="black" stroke="black" cx="2296.98" cy="-383" rx="0.36" ry="0.36"/>
</g>
<!-- node_139806658445120&#45;&gt;inter_139806658445120_OUT1 -->
<g id="edge16" class="edge">
<title>node_139806658445120&#45;&gt;inter_139806658445120_OUT1</title>
<path fill="none" stroke="black" d="M2239.66,-407C2239.66,-407 2297.06,-407 2297.06,-407 2297.06,-407 2297.06,-387.29 2297.06,-383.59"/>
<polygon fill="none" stroke="black" points="2229.66,-403.5 2239.66,-407 2229.66,-410.5 2229.66,-403.5"/>
<text text-anchor="middle" x="2250.66" y="-395.8" font-family="Times,serif" font-size="14.00">OUT1</text>
</g>
<!-- inter_139806658470816_OUT1 -->
<g id="node20" class="node">
<title>inter_139806658470816_OUT1</title>
<ellipse fill="black" stroke="black" cx="2058.12" cy="-388" rx="0.36" ry="0.36"/>
</g>
<!-- inter_139806658470816_OUT1&#45;&gt;node_139806658445120 -->
<g id="edge14" class="edge">
<title>inter_139806658470816_OUT1&#45;&gt;node_139806658445120</title>
<path fill="none" stroke="black" d="M2058.21,-388.5C2058.21,-388.5 2115.46,-388.5 2115.46,-388.5"/>
<polygon fill="black" stroke="black" points="2115.46,-392 2125.46,-388.5 2115.46,-385 2115.46,-392"/>
<text text-anchor="middle" x="2111.96" y="-377.3" font-family="Times,serif" font-size="14.00">IN1</text>
</g>
<!-- node_139806658470912 -->
<g id="node48" class="node">
<title>node_139806658470912</title>
<polygon fill="none" stroke="black" points="2260.62,-332 2094.62,-332 2094.62,-294 2260.62,-294 2260.62,-332"/>
<text text-anchor="middle" x="2177.62" y="-316.8" font-family="Times,serif" font-size="14.00">AdderBlock</text>
<text text-anchor="middle" x="2177.62" y="-301.8" font-family="Times,serif" font-size="14.00">(sumStateTrapezoid)</text>
</g>
<!-- inter_139806658470816_OUT1&#45;&gt;node_139806658470912 -->
<g id="edge51" class="edge">
<title>inter_139806658470816_OUT1&#45;&gt;node_139806658470912</title>
<path fill="none" stroke="black" d="M2059.06,-387.95C2059.06,-385.98 2059.06,-323 2059.06,-323 2059.06,-323 2084.31,-323 2084.31,-323"/>
<polygon fill="black" stroke="black" points="2084.31,-326.5 2094.31,-323 2084.31,-319.5 2084.31,-326.5"/>
<text text-anchor="middle" x="2080.81" y="-326.8" font-family="Times,serif" font-size="14.00">IN1</text>
</g>
<!-- node_139806658470816 -->
<g id="node43" class="node">
<title>node_139806658470816</title>
<polygon fill="none" stroke="black" points="2021.62,-389 1923.62,-389 1923.62,-351 2021.62,-351 2021.62,-389"/>
<text text-anchor="middle" x="1972.62" y="-373.8" font-family="Times,serif" font-size="14.00">AdderBlock</text>
<text text-anchor="middle" x="1972.62" y="-358.8" font-family="Times,serif" font-size="14.00">(sumState)</text>
</g>
<!-- inter_139806658445120_OUT1&#45;&gt;node_139806658470816 -->
<g id="edge40" class="edge">
<title>inter_139806658445120_OUT1&#45;&gt;node_139806658470816</title>
<path fill="none" stroke="black" d="M2296.45,-383C2296.45,-383 2031.87,-383 2031.87,-383"/>
<polygon fill="black" stroke="black" points="2031.87,-379.5 2021.87,-383 2031.87,-386.5 2031.87,-379.5"/>
<text text-anchor="middle" x="2035.37" y="-371.8" font-family="Times,serif" font-size="14.00">IN2</text>
</g>
<!-- inter_139806658469408_OUT1 -->
<g id="node24" class="node">
<title>inter_139806658469408_OUT1</title>
<ellipse fill="black" stroke="black" cx="1433.62" cy="-210" rx="0.36" ry="0.36"/>
</g>
<!-- node_139806658469408&#45;&gt;inter_139806658469408_OUT1 -->
<g id="edge19" class="edge">
<title>node_139806658469408&#45;&gt;inter_139806658469408_OUT1</title>
<path fill="none" stroke="black" d="M1715.9,-133.67C1715.9,-133.67 1415.06,-133.67 1415.06,-133.67 1415.06,-133.67 1415.06,-210 1415.06,-210 1415.06,-210 1430.31,-210 1433.16,-210"/>
<polygon fill="none" stroke="black" points="1725.9,-137.17 1715.9,-133.67 1725.9,-130.17 1725.9,-137.17"/>
<text text-anchor="middle" x="1704.9" y="-122.47" font-family="Times,serif" font-size="14.00">OUT1</text>
</g>
<!-- inter_139806658429904_OUT1 -->
<g id="node23" class="node">
<title>inter_139806658429904_OUT1</title>
<ellipse fill="black" stroke="black" cx="1683.4" cy="-84" rx="0.36" ry="0.36"/>
</g>
<!-- inter_139806658429904_OUT1&#45;&gt;node_139806658469408 -->
<g id="edge17" class="edge">
<title>inter_139806658429904_OUT1&#45;&gt;node_139806658469408</title>
<path fill="none" stroke="black" d="M1684.06,-84C1692.8,-84 1786.06,-84 1786.06,-84 1786.06,-84 1786.06,-110.73 1786.06,-110.73"/>
<polygon fill="black" stroke="black" points="1782.56,-110.73 1786.06,-120.73 1789.56,-110.73 1782.56,-110.73"/>
<text text-anchor="middle" x="1772.56" y="-109.53" font-family="Times,serif" font-size="14.00">IN1</text>
</g>
<!-- node_139806658429904 -->
<g id="node50" class="node">
<title>node_139806658429904</title>
<polygon fill="none" stroke="black" points="1614.51,-112 1502.51,-112 1502.51,0 1614.51,0 1614.51,-112"/>
<polyline fill="none" stroke="black" points="1514.51,-112 1502.51,-100 "/>
<polyline fill="none" stroke="black" points="1502.51,-12 1514.51,0 "/>
<polyline fill="none" stroke="black" points="1602.51,0 1614.51,-12 "/>
<polyline fill="none" stroke="black" points="1614.51,-100 1602.51,-112 "/>
<text text-anchor="middle" x="1558.51" y="-59.8" font-family="Times,serif" font-size="14.00">AddOneBlock</text>
<text text-anchor="middle" x="1558.51" y="-44.8" font-family="Times,serif" font-size="14.00">(addOne)</text>
</g>
<!-- inter_139806658469408_OUT1&#45;&gt;node_139806658429904 -->
<g id="edge54" class="edge">
<title>inter_139806658469408_OUT1&#45;&gt;node_139806658429904</title>
<path fill="none" stroke="black" d="M1434.06,-209.89C1434.06,-205.23 1434.06,-56 1434.06,-56 1434.06,-56 1492.47,-56 1492.47,-56"/>
<polygon fill="black" stroke="black" points="1492.47,-59.5 1502.47,-56 1492.47,-52.5 1492.47,-59.5"/>
<text text-anchor="middle" x="1488.97" y="-44.8" font-family="Times,serif" font-size="14.00">IN1</text>
</g>
<!-- inter_139806658469408_OUT1&#45;&gt;node_139806658463584 -->
<g id="edge56" class="edge">
<title>inter_139806658469408_OUT1&#45;&gt;node_139806658463584</title>
<path fill="none" stroke="black" d="M1434.1,-210C1437.1,-210 1453.06,-210 1453.06,-210 1453.06,-210 1453.06,-323.5 1453.06,-323.5 1453.06,-323.5 1493.93,-323.5 1493.93,-323.5"/>
<polygon fill="black" stroke="black" points="1493.93,-327 1503.93,-323.5 1493.93,-320 1493.93,-327"/>
<text text-anchor="middle" x="1490.43" y="-312.3" font-family="Times,serif" font-size="14.00">IN1</text>
</g>
<!-- inter_139806658469408_OUT1&#45;&gt;node_139806658463728 -->
<g id="edge60" class="edge">
<title>inter_139806658469408_OUT1&#45;&gt;node_139806658463728</title>
<path fill="none" stroke="black" d="M1434.06,-210.05C1434.06,-212.02 1434.06,-275.26 1434.06,-275.26 1434.06,-275.26 1496.45,-275.26 1496.45,-275.26"/>
<polygon fill="black" stroke="black" points="1496.45,-278.76 1506.45,-275.26 1496.45,-271.76 1496.45,-278.76"/>
<text text-anchor="middle" x="1492.95" y="-264.06" font-family="Times,serif" font-size="14.00">IN2</text>
</g>
<!-- node_139806658469072 -->
<g id="node25" class="node">
<title>node_139806658469072</title>
<polygon fill="none" stroke="black" points="1360.23,-463 1257.23,-463 1257.23,-425 1360.23,-425 1360.23,-463"/>
<text text-anchor="middle" x="1308.73" y="-447.8" font-family="Times,serif" font-size="14.00">DeltaTBlock</text>
<text text-anchor="middle" x="1308.73" y="-432.8" font-family="Times,serif" font-size="14.00">(delta_t)</text>
</g>
<!-- inter_139806658469072_OUT1 -->
<g id="node26" class="node">
<title>inter_139806658469072_OUT1</title>
<ellipse fill="black" stroke="black" cx="1433.62" cy="-445" rx="0.36" ry="0.36"/>
</g>
<!-- node_139806658469072&#45;&gt;inter_139806658469072_OUT1 -->
<g id="edge20" class="edge">
<title>node_139806658469072&#45;&gt;inter_139806658469072_OUT1</title>
<path fill="none" stroke="black" d="M1370.25,-445C1370.25,-445 1433.18,-445 1433.18,-445"/>
<polygon fill="none" stroke="black" points="1360.25,-441.5 1370.25,-445 1360.25,-448.5 1360.25,-441.5"/>
<text text-anchor="middle" x="1381.25" y="-433.8" font-family="Times,serif" font-size="14.00">OUT1</text>
</g>
<!-- node_139806658440352 -->
<g id="node27" class="node">
<title>node_139806658440352</title>
<polygon fill="none" stroke="black" points="1614.51,-466 1502.51,-466 1502.51,-428 1614.51,-428 1614.51,-466"/>
<text text-anchor="middle" x="1558.51" y="-450.8" font-family="Times,serif" font-size="14.00">ProductBlock</text>
<text text-anchor="middle" x="1558.51" y="-435.8" font-family="Times,serif" font-size="14.00">(multDelta)</text>
</g>
<!-- inter_139806658469072_OUT1&#45;&gt;node_139806658440352 -->
<g id="edge22" class="edge">
<title>inter_139806658469072_OUT1&#45;&gt;node_139806658440352</title>
<path fill="none" stroke="black" d="M1434.42,-445C1434.42,-445 1492.19,-445 1492.19,-445"/>
<polygon fill="black" stroke="black" points="1492.19,-448.5 1502.19,-445 1492.19,-441.5 1492.19,-448.5"/>
<text text-anchor="middle" x="1488.69" y="-433.8" font-family="Times,serif" font-size="14.00">IN2</text>
</g>
<!-- inter_139806658440352_OUT1 -->
<g id="node29" class="node">
<title>inter_139806658440352_OUT1</title>
<ellipse fill="black" stroke="black" cx="1683.4" cy="-421" rx="0.36" ry="0.36"/>
</g>
<!-- node_139806658440352&#45;&gt;inter_139806658440352_OUT1 -->
<g id="edge23" class="edge">
<title>node_139806658440352&#45;&gt;inter_139806658440352_OUT1</title>
<path fill="none" stroke="black" d="M1624.68,-447C1624.68,-447 1684.06,-447 1684.06,-447 1684.06,-447 1684.06,-422.6 1684.06,-421.07"/>
<polygon fill="none" stroke="black" points="1614.68,-443.5 1624.68,-447 1614.68,-450.5 1614.68,-443.5"/>
<text text-anchor="middle" x="1635.68" y="-435.8" font-family="Times,serif" font-size="14.00">OUT1</text>
</g>
<!-- inter_139806658473312_OUT1 -->
<g id="node28" class="node">
<title>inter_139806658473312_OUT1</title>
<ellipse fill="black" stroke="black" cx="1433.62" cy="-482" rx="0.36" ry="0.36"/>
</g>
<!-- inter_139806658473312_OUT1&#45;&gt;node_139806658440352 -->
<g id="edge21" class="edge">
<title>inter_139806658473312_OUT1&#45;&gt;node_139806658440352</title>
<path fill="none" stroke="black" d="M1434.06,-481.92C1434.06,-480.31 1434.06,-454.5 1434.06,-454.5 1434.06,-454.5 1492.47,-454.5 1492.47,-454.5"/>
<polygon fill="black" stroke="black" points="1492.47,-458 1502.47,-454.5 1492.47,-451 1492.47,-458"/>
<text text-anchor="middle" x="1488.97" y="-458.3" font-family="Times,serif" font-size="14.00">IN1</text>
</g>
<!-- node_139806658438720 -->
<g id="node32" class="node">
<title>node_139806658438720</title>
<polygon fill="none" stroke="black" points="1841.4,-389 1729.4,-389 1729.4,-351 1841.4,-351 1841.4,-389"/>
<text text-anchor="middle" x="1785.4" y="-373.8" font-family="Times,serif" font-size="14.00">ProductBlock</text>
<text text-anchor="middle" x="1785.4" y="-358.8" font-family="Times,serif" font-size="14.00">(multIter2)</text>
</g>
<!-- inter_139806658440352_OUT1&#45;&gt;node_139806658438720 -->
<g id="edge28" class="edge">
<title>inter_139806658440352_OUT1&#45;&gt;node_139806658438720</title>
<path fill="none" stroke="black" d="M1684.06,-420.88C1684.06,-418.51 1684.06,-380.5 1684.06,-380.5 1684.06,-380.5 1719.39,-380.5 1719.39,-380.5"/>
<polygon fill="black" stroke="black" points="1719.39,-384 1729.39,-380.5 1719.39,-377 1719.39,-384"/>
<text text-anchor="middle" x="1715.89" y="-369.3" font-family="Times,serif" font-size="14.00">IN2</text>
</g>
<!-- inter_139806658441168_OUT1 -->
<g id="node31" class="node">
<title>inter_139806658441168_OUT1</title>
<ellipse fill="black" stroke="black" cx="663.77" cy="-522" rx="0.36" ry="0.36"/>
</g>
<!-- node_139806658441168&#45;&gt;inter_139806658441168_OUT1 -->
<g id="edge26" class="edge">
<title>node_139806658441168&#45;&gt;inter_139806658441168_OUT1</title>
<path fill="none" stroke="black" d="M634.34,-521.5C634.34,-521.5 663.72,-521.5 663.72,-521.5"/>
<polygon fill="none" stroke="black" points="624.34,-518 634.34,-521.5 624.34,-525 624.34,-518"/>
<text text-anchor="middle" x="645.34" y="-510.3" font-family="Times,serif" font-size="14.00">OUT1</text>
</g>
<!-- inter_139806658441168_OUT1&#45;&gt;node_139806658471200 -->
<g id="edge43" class="edge">
<title>inter_139806658441168_OUT1&#45;&gt;node_139806658471200</title>
<path fill="none" stroke="black" d="M664.42,-522C664.42,-522 690.04,-522 690.04,-522"/>
<polygon fill="black" stroke="black" points="690.04,-525.5 700.04,-522 690.04,-518.5 690.04,-525.5"/>
<text text-anchor="middle" x="686.54" y="-510.8" font-family="Times,serif" font-size="14.00">IN2</text>
</g>
<!-- inter_139806658438720_OUT1 -->
<g id="node34" class="node">
<title>inter_139806658438720_OUT1</title>
<ellipse fill="black" stroke="black" cx="1887.26" cy="-370" rx="0.36" ry="0.36"/>
</g>
<!-- node_139806658438720&#45;&gt;inter_139806658438720_OUT1 -->
<g id="edge29" class="edge">
<title>node_139806658438720&#45;&gt;inter_139806658438720_OUT1</title>
<path fill="none" stroke="black" d="M1851.69,-370C1851.69,-370 1886.7,-370 1886.7,-370"/>
<polygon fill="none" stroke="black" points="1841.69,-366.5 1851.69,-370 1841.69,-373.5 1841.69,-366.5"/>
<text text-anchor="middle" x="1862.69" y="-358.8" font-family="Times,serif" font-size="14.00">OUT1</text>
</g>
<!-- inter_139806658463584_OUT1 -->
<g id="node33" class="node">
<title>inter_139806658463584_OUT1</title>
<ellipse fill="black" stroke="black" cx="1683.4" cy="-356" rx="0.36" ry="0.36"/>
</g>
<!-- inter_139806658463584_OUT1&#45;&gt;node_139806658438720 -->
<g id="edge27" class="edge">
<title>inter_139806658463584_OUT1&#45;&gt;node_139806658438720</title>
<path fill="none" stroke="black" d="M1684.05,-356C1684.05,-356 1719.16,-356 1719.16,-356"/>
<polygon fill="black" stroke="black" points="1719.16,-359.5 1729.16,-356 1719.16,-352.5 1719.16,-359.5"/>
<text text-anchor="middle" x="1715.66" y="-344.8" font-family="Times,serif" font-size="14.00">IN1</text>
</g>
<!-- inter_139806658438720_OUT1&#45;&gt;node_139806658470816 -->
<g id="edge39" class="edge">
<title>inter_139806658438720_OUT1&#45;&gt;node_139806658470816</title>
<path fill="none" stroke="black" d="M1887.81,-370C1887.81,-370 1913.43,-370 1913.43,-370"/>
<polygon fill="black" stroke="black" points="1913.43,-373.5 1923.43,-370 1913.43,-366.5 1913.43,-373.5"/>
<text text-anchor="middle" x="1909.93" y="-358.8" font-family="Times,serif" font-size="14.00">IN1</text>
</g>
<!-- node_139806658455248 -->
<g id="node35" class="node">
<title>node_139806658455248</title>
<polygon fill="none" stroke="black" points="1850.9,-332 1719.9,-332 1719.9,-294 1850.9,-294 1850.9,-332"/>
<text text-anchor="middle" x="1785.4" y="-316.8" font-family="Times,serif" font-size="14.00">ProductBlock</text>
<text text-anchor="middle" x="1785.4" y="-301.8" font-family="Times,serif" font-size="14.00">(multTrapezoid)</text>
</g>
<!-- inter_139806658455248_OUT1 -->
<g id="node38" class="node">
<title>inter_139806658455248_OUT1</title>
<ellipse fill="black" stroke="black" cx="1887.26" cy="-313" rx="0.36" ry="0.36"/>
</g>
<!-- node_139806658455248&#45;&gt;inter_139806658455248_OUT1 -->
<g id="edge32" class="edge">
<title>node_139806658455248&#45;&gt;inter_139806658455248_OUT1</title>
<path fill="none" stroke="black" d="M1861.06,-313C1861.06,-313 1886.84,-313 1886.84,-313"/>
<polygon fill="none" stroke="black" points="1851.06,-309.5 1861.06,-313 1851.06,-316.5 1851.06,-309.5"/>
<text text-anchor="middle" x="1872.06" y="-301.8" font-family="Times,serif" font-size="14.00">OUT1</text>
</g>
<!-- inter_139806658463728_OUT1 -->
<g id="node36" class="node">
<title>inter_139806658463728_OUT1</title>
<ellipse fill="black" stroke="black" cx="1683.4" cy="-290" rx="0.36" ry="0.36"/>
</g>
<!-- inter_139806658463728_OUT1&#45;&gt;node_139806658455248 -->
<g id="edge30" class="edge">
<title>inter_139806658463728_OUT1&#45;&gt;node_139806658455248</title>
<path fill="none" stroke="black" d="M1684.06,-290.05C1684.06,-291.05 1684.06,-307 1684.06,-307 1684.06,-307 1709.79,-307 1709.79,-307"/>
<polygon fill="black" stroke="black" points="1709.79,-310.5 1719.79,-307 1709.79,-303.5 1709.79,-310.5"/>
<text text-anchor="middle" x="1706.29" y="-295.8" font-family="Times,serif" font-size="14.00">IN1</text>
</g>
<!-- inter_139806658473792_OUT1 -->
<g id="node37" class="node">
<title>inter_139806658473792_OUT1</title>
<ellipse fill="black" stroke="black" cx="1683.4" cy="-328" rx="0.36" ry="0.36"/>
</g>
<!-- inter_139806658473792_OUT1&#45;&gt;node_139806658455248 -->
<g id="edge31" class="edge">
<title>inter_139806658473792_OUT1&#45;&gt;node_139806658455248</title>
<path fill="none" stroke="black" d="M1684.05,-328C1684.05,-328 1709.66,-328 1709.66,-328"/>
<polygon fill="black" stroke="black" points="1709.66,-331.5 1719.66,-328 1709.66,-324.5 1709.66,-331.5"/>
<text text-anchor="middle" x="1706.16" y="-316.8" font-family="Times,serif" font-size="14.00">IN2</text>
</g>
<!-- inter_139806658455248_OUT1&#45;&gt;node_139806658470912 -->
<g id="edge52" class="edge">
<title>inter_139806658455248_OUT1&#45;&gt;node_139806658470912</title>
<path fill="none" stroke="black" d="M1887.73,-313C1887.73,-313 2084.3,-313 2084.3,-313"/>
<polygon fill="black" stroke="black" points="2084.3,-316.5 2094.3,-313 2084.3,-309.5 2084.3,-316.5"/>
<text text-anchor="middle" x="2080.8" y="-301.8" font-family="Times,serif" font-size="14.00">IN2</text>
</g>
<!-- node_139806658473312&#45;&gt;inter_139806658473312_OUT1 -->
<g id="edge35" class="edge">
<title>node_139806658473312&#45;&gt;inter_139806658473312_OUT1</title>
<path fill="none" stroke="black" d="M1374.97,-482C1374.97,-482 1433.22,-482 1433.22,-482"/>
<polygon fill="none" stroke="black" points="1364.97,-478.5 1374.97,-482 1364.97,-485.5 1364.97,-478.5"/>
<text text-anchor="middle" x="1385.97" y="-470.8" font-family="Times,serif" font-size="14.00">OUT1</text>
</g>
<!-- inter_139806658471344_OUT1 -->
<g id="node40" class="node">
<title>inter_139806658471344_OUT1</title>
<ellipse fill="black" stroke="black" cx="1183.85" cy="-516" rx="0.36" ry="0.36"/>
</g>
<!-- inter_139806658471344_OUT1&#45;&gt;node_139806658473312 -->
<g id="edge33" class="edge">
<title>inter_139806658471344_OUT1&#45;&gt;node_139806658473312</title>
<path fill="none" stroke="black" d="M1184.64,-516C1184.64,-516 1242.42,-516 1242.42,-516"/>
<polygon fill="black" stroke="black" points="1242.42,-519.5 1252.42,-516 1242.42,-512.5 1242.42,-519.5"/>
<text text-anchor="middle" x="1238.92" y="-504.8" font-family="Times,serif" font-size="14.00">IN1</text>
</g>
<!-- node_139806658473792&#45;&gt;inter_139806658473792_OUT1 -->
<g id="edge38" class="edge">
<title>node_139806658473792&#45;&gt;inter_139806658473792_OUT1</title>
<path fill="none" stroke="black" d="M1624.06,-361.76C1624.06,-361.76 1624.06,-328 1624.06,-328 1624.06,-328 1676.21,-328 1682.73,-328"/>
<polygon fill="none" stroke="black" points="1620.56,-371.76 1624.06,-361.76 1627.56,-371.76 1620.56,-371.76"/>
<text text-anchor="middle" x="1603.06" y="-360.56" font-family="Times,serif" font-size="14.00">OUT1</text>
</g>
<!-- inter_139806658472784_OUT1 -->
<g id="node42" class="node">
<title>inter_139806658472784_OUT1</title>
<ellipse fill="black" stroke="black" cx="663.77" cy="-409" rx="0.36" ry="0.36"/>
</g>
<!-- inter_139806658472784_OUT1&#45;&gt;node_139806658473792 -->
<g id="edge36" class="edge">
<title>inter_139806658472784_OUT1&#45;&gt;node_139806658473792</title>
<path fill="none" stroke="black" d="M664.42,-409C664.42,-409 1471.79,-409 1471.79,-409"/>
<polygon fill="black" stroke="black" points="1471.79,-412.5 1481.79,-409 1471.79,-405.5 1471.79,-412.5"/>
<text text-anchor="middle" x="1468.29" y="-397.8" font-family="Times,serif" font-size="14.00">IN1</text>
</g>
<!-- node_139806658470816&#45;&gt;inter_139806658470816_OUT1 -->
<g id="edge41" class="edge">
<title>node_139806658470816&#45;&gt;inter_139806658470816_OUT1</title>
<path fill="none" stroke="black" d="M2031.86,-388C2031.86,-388 2057.68,-388 2057.68,-388"/>
<polygon fill="none" stroke="black" points="2021.86,-384.5 2031.86,-388 2021.86,-391.5 2021.86,-384.5"/>
<text text-anchor="middle" x="2042.86" y="-391.8" font-family="Times,serif" font-size="14.00">OUT1</text>
</g>
<!-- inter_139806658471200_OUT1 -->
<g id="node45" class="node">
<title>inter_139806658471200_OUT1</title>
<ellipse fill="black" stroke="black" cx="864.77" cy="-532" rx="0.36" ry="0.36"/>
</g>
<!-- node_139806658471200&#45;&gt;inter_139806658471200_OUT1 -->
<g id="edge44" class="edge">
<title>node_139806658471200&#45;&gt;inter_139806658471200_OUT1</title>
<path fill="none" stroke="black" d="M838.49,-532C838.49,-532 864.35,-532 864.35,-532"/>
<polygon fill="none" stroke="black" points="828.49,-528.5 838.49,-532 828.49,-535.5 828.49,-528.5"/>
<text text-anchor="middle" x="849.49" y="-535.8" font-family="Times,serif" font-size="14.00">OUT1</text>
</g>
<!-- inter_139806658471200_OUT1&#45;&gt;node_139806658471344 -->
<g id="edge45" class="edge">
<title>inter_139806658471200_OUT1&#45;&gt;node_139806658471344</title>
<path fill="none" stroke="black" d="M865.23,-532C865.23,-532 949.97,-532 949.97,-532"/>
<polygon fill="black" stroke="black" points="949.97,-535.5 959.97,-532 949.97,-528.5 949.97,-535.5"/>
<text text-anchor="middle" x="946.47" y="-535.8" font-family="Times,serif" font-size="14.00">IN1</text>
</g>
<!-- node_139806658471344&#45;&gt;inter_139806658471344_OUT1 -->
<g id="edge47" class="edge">
<title>node_139806658471344&#45;&gt;inter_139806658471344_OUT1</title>
<path fill="none" stroke="black" d="M1098.74,-516C1098.74,-516 1183.26,-516 1183.26,-516"/>
<polygon fill="none" stroke="black" points="1088.74,-512.5 1098.74,-516 1088.74,-519.5 1088.74,-512.5"/>
<text text-anchor="middle" x="1109.74" y="-504.8" font-family="Times,serif" font-size="14.00">OUT1</text>
</g>
<!-- node_139806658472784&#45;&gt;inter_139806658472784_OUT1 -->
<g id="edge50" class="edge">
<title>node_139806658472784&#45;&gt;inter_139806658472784_OUT1</title>
<path fill="none" stroke="black" d="M637.49,-409C637.49,-409 663.35,-409 663.35,-409"/>
<polygon fill="none" stroke="black" points="627.49,-405.5 637.49,-409 627.49,-412.5 627.49,-405.5"/>
<text text-anchor="middle" x="648.49" y="-397.8" font-family="Times,serif" font-size="14.00">OUT1</text>
</g>
<!-- inter_139806658470912_OUT1 -->
<g id="node49" class="node">
<title>inter_139806658470912_OUT1</title>
<ellipse fill="black" stroke="black" cx="2296.98" cy="-313" rx="0.36" ry="0.36"/>
</g>
<!-- node_139806658470912&#45;&gt;inter_139806658470912_OUT1 -->
<g id="edge53" class="edge">
<title>node_139806658470912&#45;&gt;inter_139806658470912_OUT1</title>
<path fill="none" stroke="black" d="M2270.84,-313C2270.84,-313 2296.57,-313 2296.57,-313"/>
<polygon fill="none" stroke="black" points="2260.84,-309.5 2270.84,-313 2260.84,-316.5 2260.84,-309.5"/>
<text text-anchor="middle" x="2281.84" y="-301.8" font-family="Times,serif" font-size="14.00">OUT1</text>
</g>
<!-- node_139806839213456_OUT1 -->
<g id="node53" class="node">
<title>node_139806839213456_OUT1</title>
<ellipse fill="black" stroke="black" cx="2333.7" cy="-313" rx="0.36" ry="0.36"/>
</g>
<!-- inter_139806658470912_OUT1&#45;&gt;node_139806839213456_OUT1 -->
<g id="edge62" class="edge">
<title>inter_139806658470912_OUT1&#45;&gt;node_139806839213456_OUT1</title>
<path fill="none" stroke="black" d="M2297.39,-313C2297.39,-313 2323.34,-313 2323.34,-313"/>
<polygon fill="none" stroke="black" points="2323.34,-316.5 2333.34,-313 2323.34,-309.5 2323.34,-316.5"/>
<text text-anchor="middle" x="2354.34" y="-301.8" font-family="Times,serif" font-size="14.00">OUT1</text>
</g>
<!-- node_139806658429904&#45;&gt;inter_139806658429904_OUT1 -->
<g id="edge55" class="edge">
<title>node_139806658429904&#45;&gt;inter_139806658429904_OUT1</title>
<path fill="none" stroke="black" d="M1624.74,-84C1624.74,-84 1682.99,-84 1682.99,-84"/>
<polygon fill="none" stroke="black" points="1614.74,-80.5 1624.74,-84 1614.74,-87.5 1614.74,-80.5"/>
<text text-anchor="middle" x="1635.74" y="-72.8" font-family="Times,serif" font-size="14.00">OUT1</text>
</g>
<!-- node_139806658463584&#45;&gt;inter_139806658463584_OUT1 -->
<g id="edge58" class="edge">
<title>node_139806658463584&#45;&gt;inter_139806658463584_OUT1</title>
<path fill="none" stroke="black" d="M1623.21,-341.5C1623.21,-341.5 1684.06,-341.5 1684.06,-341.5 1684.06,-341.5 1684.06,-354.24 1684.06,-355.84"/>
<polygon fill="none" stroke="black" points="1613.21,-338 1623.21,-341.5 1613.21,-345 1613.21,-338"/>
<text text-anchor="middle" x="1634.21" y="-330.3" font-family="Times,serif" font-size="14.00">OUT1</text>
</g>
<!-- node_139806658463728&#45;&gt;inter_139806658463728_OUT1 -->
<g id="edge61" class="edge">
<title>node_139806658463728&#45;&gt;inter_139806658463728_OUT1</title>
<path fill="none" stroke="black" d="M1620.75,-290C1620.75,-290 1682.96,-290 1682.96,-290"/>
<polygon fill="none" stroke="black" points="1610.75,-286.5 1620.75,-290 1610.75,-293.5 1610.75,-286.5"/>
<text text-anchor="middle" x="1631.75" y="-278.8" font-family="Times,serif" font-size="14.00">OUT1</text>
</g>
</g>
</svg>
