<?xml version="1.0" encoding="UTF-8" standalone="no"?>
<!DOCTYPE svg PUBLIC "-//W3C//DTD SVG 1.1//EN"
 "http://www.w3.org/Graphics/SVG/1.1/DTD/svg11.dtd">
<!-- Generated by graphviz version 3.0.0 (20220226.1711)
 -->
<!-- Title: model Pages: 1 -->
<svg width="567pt" height="274pt"
 viewBox="0.00 0.00 567.28 273.98" xmlns="http://www.w3.org/2000/svg" xmlns:xlink="http://www.w3.org/1999/xlink">
<g id="graph0" class="graph" transform="scale(1 1) rotate(0) translate(4 269.98)">
<title>model</title>
<polygon fill="white" stroke="transparent" points="-4,4 -4,-269.98 563.28,-269.98 563.28,4 -4,4"/>
<text text-anchor="start" x="251.14" y="-246.98" font-family="Times,serif" font-weight="bold" font-size="20.00">yt (Yt)</text>
<!-- node_4876344816 -->
<g id="node1" class="node">
<title>node_4876344816</title>
<polygon fill="none" stroke="black" points="358.56,-143 215.56,-143 215.56,0 358.56,0 358.56,-143"/>
<polyline fill="none" stroke="black" points="227.56,-143 215.56,-131 "/>
<polyline fill="none" stroke="black" points="215.56,-12 227.56,0 "/>
<polyline fill="none" stroke="black" points="346.56,0 358.56,-12 "/>
<polyline fill="none" stroke="black" points="358.56,-131 346.56,-143 "/>
<text text-anchor="middle" x="287.06" y="-75.3" font-family="Times,serif" font-size="14.00">SimpsonOneThirdRule</text>
<text text-anchor="middle" x="287.06" y="-60.3" font-family="Times,serif" font-size="14.00">(integrator)</text>
</g>
<!-- inter_4876344816_OUT1 -->
<g id="node4" class="node">
<title>inter_4876344816_OUT1</title>
<ellipse fill="black" stroke="black" cx="395.06" cy="-99.5" rx="0.36" ry="0.36"/>
</g>
<!-- node_4876344816&#45;&gt;inter_4876344816_OUT1 -->
<g id="edge3" class="edge">
<title>node_4876344816&#45;&gt;inter_4876344816_OUT1</title>
<path fill="none" stroke="black" d="M368.79,-99.5C368.79,-99.5 394.64,-99.5 394.64,-99.5"/>
<polygon fill="none" stroke="black" points="358.79,-96 368.79,-99.5 358.79,-103 358.79,-96"/>
<text text-anchor="middle" x="376.29" y="-88.3" font-family="Times,serif" font-size="14.00">OUT1</text>
</g>
<!-- inter_4876543024_OUT1 -->
<g id="node2" class="node">
<title>inter_4876543024_OUT1</title>
<ellipse fill="black" stroke="black" cx="558.92" cy="-103.5" rx="0.36" ry="0.36"/>
</g>
<!-- inter_4876543024_OUT1&#45;&gt;node_4876344816 -->
<g id="edge1" class="edge">
<title>inter_4876543024_OUT1&#45;&gt;node_4876344816</title>
<path fill="none" stroke="black" d="M558.47,-103.5C558.47,-103.5 368.74,-103.5 368.74,-103.5"/>
<polygon fill="black" stroke="black" points="368.74,-100 358.74,-103.5 368.74,-107 368.74,-100"/>
<text text-anchor="middle" x="369.74" y="-107.3" font-family="Times,serif" font-size="14.00">IN1</text>
</g>
<!-- inter_4876545280_OUT1 -->
<g id="node3" class="node">
<title>inter_4876545280_OUT1</title>
<ellipse fill="black" stroke="black" cx="179.2" cy="-71.5" rx="0.36" ry="0.36"/>
</g>
<!-- inter_4876545280_OUT1&#45;&gt;node_4876344816 -->
<g id="edge2" class="edge">
<title>inter_4876545280_OUT1&#45;&gt;node_4876344816</title>
<path fill="none" stroke="black" d="M179.88,-71.5C179.88,-71.5 205.52,-71.5 205.52,-71.5"/>
<polygon fill="black" stroke="black" points="205.52,-75 215.52,-71.5 205.52,-68 205.52,-75"/>
<text text-anchor="middle" x="208.52" y="-60.3" font-family="Times,serif" font-size="14.00">IC</text>
</g>
<!-- node_4876543024 -->
<g id="node8" class="node">
<title>node_4876543024</title>
<polygon fill="none" stroke="black" points="522.56,-155.5 431.56,-155.5 431.56,-117.5 522.56,-117.5 522.56,-155.5"/>
<text text-anchor="middle" x="477.06" y="-140.3" font-family="Times,serif" font-size="14.00">ProductBlock</text>
<text text-anchor="middle" x="477.06" y="-125.3" font-family="Times,serif" font-size="14.00">(multi)</text>
</g>
<!-- inter_4876344816_OUT1&#45;&gt;node_4876543024 -->
<g id="edge6" class="edge">
<title>inter_4876344816_OUT1&#45;&gt;node_4876543024</title>
<path fill="none" stroke="black" d="M395.28,-99.85C395.28,-103.22 395.28,-130.25 395.28,-130.25 395.28,-130.25 421.38,-130.25 421.38,-130.25"/>
<polygon fill="black" stroke="black" points="421.38,-133.75 431.38,-130.25 421.38,-126.75 421.38,-133.75"/>
<text text-anchor="middle" x="420.38" y="-119.05" font-family="Times,serif" font-size="14.00">IN1</text>
</g>
<!-- node_4878972864_OUT1 -->
<g id="node9" class="node">
<title>node_4878972864_OUT1</title>
<ellipse fill="black" stroke="black" cx="477.06" cy="-99.5" rx="0.36" ry="0.36"/>
</g>
<!-- inter_4876344816_OUT1&#45;&gt;node_4878972864_OUT1 -->
<g id="edge9" class="edge">
<title>inter_4876344816_OUT1&#45;&gt;node_4878972864_OUT1</title>
<path fill="none" stroke="black" d="M395.58,-99.5C395.58,-99.5 466.58,-99.5 466.58,-99.5"/>
<polygon fill="none" stroke="black" points="466.58,-103 476.58,-99.5 466.58,-96 466.58,-103"/>
<text text-anchor="middle" x="459.08" y="-88.3" font-family="Times,serif" font-size="14.00">OUT1</text>
</g>
<!-- node_4876543744 -->
<g id="node5" class="node">
<title>node_4876543744</title>
<ellipse fill="none" stroke="black" cx="287.06" cy="-198.5" rx="71.34" ry="37.45"/>
<text text-anchor="middle" x="287.06" y="-209.8" font-family="Times,serif" font-size="14.00"> ConstantBlock</text>
<text text-anchor="middle" x="287.06" y="-194.8" font-family="Times,serif" font-size="14.00">(minFifteen)</text>
<text text-anchor="middle" x="287.06" y="-179.8" font-family="Times,serif" font-size="14.00">&#45;15</text>
</g>
<!-- inter_4876543744_OUT1 -->
<g id="node6" class="node">
<title>inter_4876543744_OUT1</title>
<ellipse fill="black" stroke="black" cx="395.06" cy="-167.5" rx="0.36" ry="0.36"/>
</g>
<!-- node_4876543744&#45;&gt;inter_4876543744_OUT1 -->
<g id="edge4" class="edge">
<title>node_4876543744&#45;&gt;inter_4876543744_OUT1</title>
<path fill="none" stroke="black" d="M337.27,-167.5C337.27,-167.5 394.63,-167.5 394.63,-167.5"/>
<polygon fill="none" stroke="black" points="327.27,-164 337.27,-167.5 327.27,-171 327.27,-164"/>
<text text-anchor="middle" x="344.77" y="-156.3" font-family="Times,serif" font-size="14.00">OUT1</text>
</g>
<!-- inter_4876543744_OUT1&#45;&gt;node_4876543024 -->
<g id="edge7" class="edge">
<title>inter_4876543744_OUT1&#45;&gt;node_4876543024</title>
<path fill="none" stroke="black" d="M396.28,-167.45C396.28,-166.38 396.28,-149.25 396.28,-149.25 396.28,-149.25 421.47,-149.25 421.47,-149.25"/>
<polygon fill="black" stroke="black" points="421.47,-152.75 431.47,-149.25 421.47,-145.75 421.47,-152.75"/>
<text text-anchor="middle" x="420.47" y="-138.05" font-family="Times,serif" font-size="14.00">IN2</text>
</g>
<!-- node_4876545280 -->
<g id="node7" class="node">
<title>node_4876545280</title>
<ellipse fill="none" stroke="black" cx="71.42" cy="-71.5" rx="71.34" ry="37.45"/>
<text text-anchor="middle" x="71.42" y="-82.8" font-family="Times,serif" font-size="14.00"> ConstantBlock</text>
<text text-anchor="middle" x="71.42" y="-67.8" font-family="Times,serif" font-size="14.00">(one)</text>
<text text-anchor="middle" x="71.42" y="-52.8" font-family="Times,serif" font-size="14.00">1</text>
</g>
<!-- node_4876545280&#45;&gt;inter_4876545280_OUT1 -->
<g id="edge5" class="edge">
<title>node_4876545280&#45;&gt;inter_4876545280_OUT1</title>
<path fill="none" stroke="black" d="M153.01,-71.5C153.01,-71.5 178.78,-71.5 178.78,-71.5"/>
<polygon fill="none" stroke="black" points="143.01,-68 153.01,-71.5 143.01,-75 143.01,-68"/>
<text text-anchor="middle" x="160.51" y="-60.3" font-family="Times,serif" font-size="14.00">OUT1</text>
</g>
<!-- node_4876543024&#45;&gt;inter_4876543024_OUT1 -->
<g id="edge8" class="edge">
<title>node_4876543024&#45;&gt;inter_4876543024_OUT1</title>
<path fill="none" stroke="black" d="M532.97,-136.5C532.97,-136.5 559.28,-136.5 559.28,-136.5 559.28,-136.5 559.28,-105.53 559.28,-103.59"/>
<polygon fill="none" stroke="black" points="522.97,-133 532.97,-136.5 522.97,-140 522.97,-133"/>
<text text-anchor="middle" x="540.47" y="-125.3" font-family="Times,serif" font-size="14.00">OUT1</text>
</g>
</g>
</svg>
